<svg xmlns="http://www.w3.org/2000/svg" viewBox="0 0 758.47 799.56"><defs><style>.cls-1{isolation:isolate;}.cls-2{fill:#e8f2f8;}.cls-3{fill:#88bdeb;opacity:0.36;}.cls-11,.cls-3{mix-blend-mode:multiply;}.cls-4{fill:#3d62c4;}.cls-5{fill:#ffb49e;}.cls-6{fill:#6d15b0;}.cls-7{fill:#3b7aa7;}.cls-8{fill:#58118f;}.cls-9{fill:#96b5eb;}.cls-10{fill:#fff;}.cls-11{fill:#a7bcf5;opacity:0.39;}.cls-12{fill:#99a8e0;}.cls-13{fill:#edf4ff;}.cls-14{fill:#a7c1f5;}.cls-15,.cls-19,.cls-20,.cls-30,.cls-31,.cls-48,.cls-49,.cls-52,.cls-53{fill:none;}.cls-15,.cls-19{stroke:#342b8c;}.cls-15,.cls-19,.cls-20,.cls-52,.cls-53{stroke-linecap:round;stroke-linejoin:round;}.cls-15{stroke-width:1.32px;}.cls-16{fill:#e6f0ff;}.cls-17{fill:#216893;}.cls-18{fill:#d4daff;}.cls-19{stroke-width:0.46px;}.cls-20{stroke:#99a8e0;stroke-width:1.4px;}.cls-21{fill:#d9e8ff;}.cls-22{fill:#a0bde8;}.cls-23{fill:#549bc6;}.cls-24{fill:#2d2222;}.cls-25{fill:#d64075;}.cls-26{fill:#ea986c;}.cls-27{fill:#ea8a6c;}.cls-28{fill:#7090e0;}.cls-29{fill:#ff5ed1;}.cls-30,.cls-31{stroke:#ea986c;}.cls-30,.cls-31,.cls-48,.cls-49{stroke-miterlimit:10;}.cls-30{stroke-width:0.71px;}.cls-31{stroke-width:0.65px;}.cls-32{fill:#6caef0;}.cls-33{fill:#d4ecff;}.cls-34{fill:#cc299e;}.cls-35{fill:#e856be;}.cls-36{fill:#ff6ed6;}.cls-37{fill:#8a00d4;}.cls-38{fill:#a6197d;}.cls-39{fill:#d936aa;}.cls-40{fill:#c7dcff;}.cls-41{fill:#bdd1f2;}.cls-42{fill:#cfe5ff;}.cls-43{fill:#353559;}.cls-44{fill:#85bcff;}.cls-45{fill:#ffe46e;}.cls-46{fill:#ff38ca;}.cls-47{fill:#aa60eb;}.cls-48{stroke:#97cbff;}.cls-48,.cls-49{stroke-width:1.03px;}.cls-49{stroke:#fff;}.cls-50{fill:#ff4fcd;}.cls-51{fill:#5f6ccf;}.cls-52{stroke:#7100d4;stroke-width:1.56px;}.cls-53{stroke:#ff4fcd;stroke-width:1.37px;}</style></defs><title>afford-to-buy</title><g class="cls-1"><g id="Layer_2" data-name="Layer 2"><g id="image"><path class="cls-2" d="M324.26,398.42C310,390.85,21.4,379.2,107.73,190.13,212.59-39.52,500.45-42.34,598.36,82S783.23,447.38,752,552.16,561.43,524.34,324.26,398.42Z"/><path class="cls-3" d="M389.81,165l.11.16C388.06,165.31,388.88,165.16,389.81,165Z"/><path class="cls-3" d="M369.18,271.41s1.13-2.94,2.75-7.45c2.16,1.08,4.46,2.11,6.94,3.1l101.79,26.33a48,48,0,0,0,11.55-.4,37.68,37.68,0,0,0,23-12.7c5.93-7.16,7.56-16.17,8.79-25.15,1.34-9.69,2.86-21.4,11.51-27.42,1.85-1.29.22-4.46-1.66-3.15a24.39,24.39,0,0,0-4.53,4.05,1.84,1.84,0,0,0-.47.26q-7.9,6.21-16.35,11.65c-5.53,3.54-11.35,7.52-17.71,9.28-5.66,1.57-11.7.89-15.91-3.53-3.11-3.28-4.94-7.61-6.44-11.9a31.35,31.35,0,0,0,31-3.92A32.68,32.68,0,0,0,514,216.39c2.16-5.49,2.94-11.41,3.73-17.22.91-6.71,1.83-13.59,5-19.65.93-1.76-1.2-3.44-2.48-2.5a1.62,1.62,0,0,0-2.14,1.13c-3.77,12.91-15.36,22.14-28.08,24.86-12,2.57-24.27-.43-34.89-6.21,6.17-.47,12.35-.94,18.52-1.45,7.4-.61,15-1.66,21.14-6.34,5.44-4.15,7.79-10.44,7.81-17.2,0-7.64-1.72-15.27-2.4-22.85a232.57,232.57,0,0,1-.74-29.63,1.76,1.76,0,0,0-3.51-.19,1.46,1.46,0,0,0-1.25,1.61c.49,10.35-4.23,20.2-11.69,27.14-6.67,6.21-15.22,9.82-24,11.51,8.86-7.13,16.43-15.9,21.12-26.46,6.08-13.7,6.33-29.07-.05-42.61-3.72-7.89-9.27-16.48-6.63-25.64.64-2.21-2.72-3.28-3.36-1.07a20.85,20.85,0,0,0-.75,4.43,1.54,1.54,0,0,0-.6,1c-3.69,15.58-9,35.57-25.2,41.72a63.48,63.48,0,0,1,7.89-15.12c3.43-4.83,8.6-9.29,8.18-15.79-.45-6.82-5.94-12-9.07-17.72a56.87,56.87,0,0,1-6.6-21A1.54,1.54,0,0,0,441.51,40a1.72,1.72,0,0,0-1.46,1.16c-2.29,6.21-8.46,9.35-14,12.07s-10.48,5.53-14.45,10.2c-7.51,8.83-9.81,20.12-7.52,31.36,1.38,6.82,3.92,14.51.78,21.23C392.25,106,394.31,87,397.43,72.63c.48-2.18-2.66-3.25-3.29-1.26a1.14,1.14,0,0,0-.1.19C388.3,83.5,375.48,90,370.21,102.29c-6.65,15.49,3.31,31.06,13.57,41.84,5.93,6.23,1.07,13.94,6,20.91,1-.13,2.14-.21.11.16-5.65,1-10.87.16-15-4.14-8.89-9.34-7.26-23.71-10.81-35.32-.67-2.19-4.11-1.4-3.44.8.16.53.31,1.08.46,1.62-2,5.29-7.17,29.88-11,49.72-8-9.93-15.78-19.6-21.09-26.18a2.14,2.14,0,0,0-3.81,1.28c0,4.68-2.58,10.73-6.3,31.1C313.06,216.67,369.18,271.41,369.18,271.41Zm54.14-159.68c-9.34.51-6.65-19.14-5.47-23.82.8-3.13,1.95-6.3,4.2-8.59s5.83-3.5,8.7-2.14c3.65,1.73,4.66,6.6,4.12,10.66C434.25,92.43,428.53,111.44,423.32,111.73Zm33.11,142.61c3.56-1,7.27.72,10.35,2.76s6,4.52,9.56,5.44c4.85,1.24,11.39,0,13.65,4.57,1.45,2.89-.2,6.65-2.91,8.4s-6.12,1.89-9.3,1.56h0C471.7,276.42,439.54,258.9,456.43,254.34Zm-76-129.7c-1.88-3.71-.58-9.31,3.18-11h0c8.79-4,14.38,18.38,12.28,21.81C391.16,143.15,383.6,130.87,380.44,124.64Z"/><path class="cls-3" d="M361.61,216a361.84,361.84,0,0,1,9.32,45.4c2.23-12.47,6.87-29.67,12.45-40.5L379.5,267.5c-2.77,2.39-5.23,4.38-7.14,5.76a355.19,355.19,0,0,1,1.71,51.15c.3-1.11.63-2.28,1-3.47l-1.22,14.55-.4.23q-.53,7.25-1.36,14.45l-5.22-.44c.55-4.74,1-9.49,1.36-14.25-10.67-3.92-36.89-17.54-49.06-27.52-7.29-6-14.77-15.21-10.52-23.88a13.65,13.65,0,0,1,11.17-7.27c7.87-.74,14.75,3.49,20.47,8.46,10.18,8.82,22.68,30.25,28.37,43.06,0-.63.08-1.25.11-1.88a348.16,348.16,0,0,0-1.53-51.77c-10-2.28-39.41-14-53.13-23.17-7.87-5.28-16.25-13.82-12.83-22.91a13.72,13.72,0,0,1,10.49-8.36c7.82-1.5,15.11,2.08,21.32,6.5,11.58,8.24,27.05,30.1,33.51,42.12a355,355,0,0,0-10.42-52.49c-10.56-2-34.52-9.4-46.4-15.94-7.42-4.09-15.54-11.05-13-19.44a12.15,12.15,0,0,1,8.5-7.91c6.77-1.94,13.49.65,19.3,4.07,8.89,5.22,20.79,18.31,28.43,28.42A353.17,353.17,0,0,0,335.68,161c-10.71.89-32.65.61-44.51-1.93-7.77-1.66-16.95-5.72-16.93-14a11.44,11.44,0,0,1,5.5-9.4c5.56-3.57,12.29-3.06,18.44-1.56,9.35,2.28,23.49,10.76,33.08,17.75a343.86,343.86,0,0,0-20.74-35.62c-9.56,2.12-31.39,4.56-43.29,3.47-7.52-.69-16.66-3.48-17.58-11.25a10.84,10.84,0,0,1,4.13-9.5c4.85-4,11.26-4.29,17.23-3.58,9.53,1.15,24.81,8.12,34.67,13.79q-6.93-9.84-14.54-19.18C281.3,85.77,263.08,75,255.85,66.37,252,61.77,248.7,56.25,249.4,50a10.84,10.84,0,0,1,5.68-8.66c7-3.5,14.32,2.61,19,8.52,6.64,8.36,15.27,24.92,19.5,34.87Q303,96,311.32,108c-3.85-10.57-8.41-28.9-7.59-39.27.48-6,2-12.22,6.91-16.19a10.86,10.86,0,0,1,10.12-2.18c7.43,2.43,8.37,11.92,7.56,19.43-1.41,13.06-9.38,37.07-13,44q9.33,14,17.29,28.92c1.34,2.51,2.64,5,3.92,7.58-1.5-11.79-2.1-28.43.45-37.78,1.67-6.1,4.48-12.23,10.29-15.37a11.4,11.4,0,0,1,10.88-.27c7.21,4,6.32,13.94,4,21.54-3.75,12.38-15.33,33.56-21,41.51a356.37,356.37,0,0,1,19.05,50.95c.39-12,4-35.41,10-46.49,2.62-4.89,6.05-9.63,11-12.19l.26-.13c8.13-3.62,16.57,4.53,13.52,12.89L386,189.42C377.36,200.54,366.37,212.29,361.61,216Z"/><path class="cls-4" d="M183.06,591.71l-137-79.09c-12.7-7.33-7.56-23.41,11.42-35.73l49.24-32c19-12.33,44.89-16.41,57.59-9.08l137,79.1c12.7,7.33,7.56,23.4-11.42,35.72l-49.24,32C221.67,595,195.76,599,183.06,591.71Z"/><polygon class="cls-2" points="725.38 641.07 303.05 397.24 60.92 539.71 49.32 542.45 171.27 614.63 10.72 709.37 157.24 795.77 318.46 701.75 470.68 791.84 725.38 641.07"/><path class="cls-5" d="M203.39,517.89A293.54,293.54,0,0,1,231,499.19c3.66-2.13,7.39-4.08,11.19-5.92,2.87-1.39-1.09.3,1.7-.75,1.7-.65,3.42-1.27,5.17-1.78,1.36-.4,2.76-.65,4.13-1,3.44-.95-1.77-.39.38-.06a10,10,0,0,0,2.89,0c1.79-.43-3.58-.91-.13.06,3.23.91-.9-.55-.64-.38,1.07.67,4.06,2.34-.51-.69a8.49,8.49,0,0,1,1.67,1.61c1.6,1.93-1.12-1.48-1.13-1.51.2.45.78.88.88,1.37s2,3.86.69,1.07.25.79.42,1.44c.61,2.27,1,4.58,1.56,6.86.69,2.8-.15-3.39,0,.5.06,1.36.23,2.71.3,4.07.16,2.91.2,5.82.18,8.73-.11,13.37-1.54,26.71-2.89,40-1.58,15.53-3.32,31.1-3.46,46.73-.19,21.42,33.08,21.43,33.27,0,.27-30.08,6.7-59.83,6.34-89.93-.15-12.45-1.33-26.58-8.36-37.3-8.67-13.22-23-17.55-38.12-15-22.13,3.72-42.43,18.83-59.92,31.92-7.18,5.37-10.86,14.38-6,22.75,4.14,7.08,15.52,11.39,22.75,6Z"/><path class="cls-6" d="M263.65,619.3l5.75,17.64c2,3,8.52,8,11.76,6.5,13.43-6.1,49.42-19.09,43.32-34.94-7.67-19.94-58.51,3.56-58.51,3.56Z"/><path class="cls-5" d="M276.78,601.66s20.26-2.73,29.64,4.1c3.68,2.68.28,6.83-6.38,10-13.11,6.18-28.24,4.41-35.48-5.67l-4.66-2.79Z"/><path class="cls-6" d="M246.33,604.92l4.89,41.66a4.87,4.87,0,0,0,2,3.36h0a4.85,4.85,0,0,0,7.69-3.66l1.84-34.7a4.81,4.81,0,0,0-1.36-3.62l-6.73-7A4.84,4.84,0,0,0,246.33,604.92Z"/><path class="cls-6" d="M251.14,594.67s-12.17,8.82-1.2,34.74c.14.35.22,1.36.45,1.05,10.76-14.28,19,0,19,0l30.26-12.84a39.3,39.3,0,0,1-36-11.63C259.37,601.56,251.14,594.67,251.14,594.67Z"/><path class="cls-6" d="M305.67,643.31,311.42,661c2,3,8.51,8,11.75,6.5,13.43-6.1,49.43-19.09,43.33-34.94-7.67-19.94-58.52,3.56-58.52,3.56Z"/><path class="cls-5" d="M318.8,625.67s20.25-2.73,29.63,4.09c3.69,2.69.28,6.83-6.37,10-13.12,6.18-28.24,4.41-35.48-5.67l-4.67-2.79Z"/><path class="cls-5" d="M205.22,553.54c23.86-1.87,46-9.74,67-21,8.1-4.38,15.91-9.25,23.81-14,2.69-1.61,5.38-3.23,8.15-4.69,1.31-.7,2.66-1.31,4-2-4.48,2.28-1,.24.29.12,1-.1-3.53,0-4.82-.28a19,19,0,0,1-6.85-5.33c-1.13-3-1.42-3.65-.89-2,.26,1.24.26,1.08,0-.48q-.36-3,0,.83c.11,1.45.21,2.91.29,4.36.76,13,.44,26.13-.06,39.17-1,26.68-3.31,53.35-2.94,80.07.29,21.39,33.56,21.45,33.27,0-.31-22.75,1.32-45.48,2.41-68.19.54-11.15,1-22.32,1-33.49,0-9.7.67-20.83-1.76-30.3-9.37-36.43-50.3-5.2-67.76,4.69-17.12,9.69-35.18,17.7-55.14,19.27-9,.7-16.63,7.14-16.63,16.63,0,8.46,7.62,17.34,16.63,16.63Z"/><path class="cls-6" d="M288.35,628.93l4.89,41.66a4.84,4.84,0,0,0,2,3.36h0a4.84,4.84,0,0,0,7.68-3.66l1.84-34.7a4.8,4.8,0,0,0-1.35-3.63l-6.73-7A4.84,4.84,0,0,0,288.35,628.93Z"/><path class="cls-6" d="M293.16,618.68S281,627.5,292,653.42c.15.35.22,1.36.46,1.05,10.75-14.28,19,0,19,0l30.26-12.84a39.3,39.3,0,0,1-36-11.63C301.39,625.57,293.16,618.68,293.16,618.68Z"/><path class="cls-6" d="M206.52,565.16l89.85-42s-10.07-72.55-62.88-64.38c-87,13.47-102.33-5.25-102.33-5.25l-3.79,69.09C121.12,597,177.61,582.26,206.52,565.16Z"/><rect class="cls-7" x="710.65" y="439.72" width="13.5" height="202.86" rx="6.18" transform="translate(1497.88 986.51) rotate(172.68)"/><path class="cls-7" d="M470.05,794.32h0a6.69,6.69,0,0,1-6.09-7.23l26.26-304.82a6.68,6.68,0,0,1,7.23-6.09h0a6.68,6.68,0,0,1,6.08,7.24L477.28,788.23A6.69,6.69,0,0,1,470.05,794.32Z"/><path class="cls-8" d="M59.7,547.41l-1.85-.16A5.76,5.76,0,0,1,52.61,541L71.92,316.88a5.76,5.76,0,0,1,6.22-5.24l1.85.16A5.76,5.76,0,0,1,85.23,318L65.93,542.17A5.77,5.77,0,0,1,59.7,547.41Z"/><polygon class="cls-8" points="491.38 624.54 478.66 615.84 482.3 579.23 495.84 581.34 491.38 624.54"/><polygon class="cls-8" points="706.75 509.69 719 500.35 714.26 463.81 700.08 466.78 706.75 509.69"/><path class="cls-9" d="M736.54,444.81H707.36L294.21,206.28c-6.87-4-18.85-3.47-26.77,1.11L84.14,313.22H56.75V333c-.5,2.9,1,5.75,4.52,7.8L499,593.47c6.87,4,18.85,3.46,26.77-1.11L730,474.44c4.48-2.58,6.7-5.92,6.55-9h0Z"/><path class="cls-10" d="M499,573.73,61.27,321c-6.86-4-6-10.88,1.93-15.45L267.44,187.65c7.92-4.58,19.9-5.07,26.77-1.11L731.9,439.24c6.87,4,6,10.88-1.92,15.46L525.74,572.62C517.82,577.19,505.84,577.69,499,573.73Z"/><path class="cls-11" d="M453.62,376.66l-148.27-87.5c-7.94-4.59,30.48-25.94,39-30.8L348.9,235c8.49-4.86-12.34-23.69-4.4-19.11L538.63,327.94c8,4.58,7.51,12.25-1,17.11l-54.28,31.11C474.89,381,461.57,381.25,453.62,376.66Z"/><path class="cls-12" d="M524,238.29v-.21a1.34,1.34,0,0,0,0-.2v0a.66.66,0,0,1,0-.14,1.11,1.11,0,0,1,0-.19s0-.06,0-.09v-.1l0-.19a1.16,1.16,0,0,1,0-.18h0c0-.07,0-.13-.05-.2a1.33,1.33,0,0,0,0-.19v-.09l0-.1-.06-.18,0-.14v0a1.22,1.22,0,0,1-.07-.17,1.22,1.22,0,0,0-.07-.17l0-.07v0l0-.06c0-.06,0-.11-.07-.17a1.3,1.3,0,0,1-.08-.17v0l0,0-.09-.18-.09-.16-.06-.11,0,0-.16-.26-.06-.08h0a3.71,3.71,0,0,0-.23-.32l0,0,0,0-.08-.11a2.09,2.09,0,0,0-.14-.17l-.05-.06,0,0,0-.06-.14-.15-.11-.12,0,0,0,0-.15-.15-.17-.15h0l-.17-.14-.17-.14,0,0h0l-.12-.1-.18-.13,0,0h0l-.1-.07-.18-.11-1-.55-5.28,2.85,1.32.77.18.11.17.13.18.13.07.06.27.23h0l.26.25,0,0,.24.25,0,0,.22.26,0,.05.2.27.11.15.12.17.13.21.09.14a.75.75,0,0,0,.07.12l.12.22,0,.06.15.31v0c0,.11.1.21.15.33v0l.12.33,0,0c0,.11.07.21.1.32l0,.05c0,.11.05.22.08.32v.05c0,.11,0,.22.07.33v.05c0,.11,0,.22,0,.32v.05l0,.33a.86.86,0,0,0,0,.16v.19a1.48,1.48,0,0,1,0,.21,1.41,1.41,0,0,1,0,.2,1.49,1.49,0,0,1,0,.21,1.11,1.11,0,0,0,0,.17l-.05.3L500.57,355c-.09.54-2.17,4-1.7,3.7l5-4.23a5.82,5.82,0,0,0,2-3.5L523.72,240.4l.22-1.34a1,1,0,0,0,0-.17s0-.09,0-.14h0v-.06c0-.07,0-.14,0-.2v-.19Z"/><path class="cls-10" d="M515.35,235a7.46,7.46,0,0,1,3.57,7l-18.5,114.32c-.4,2.52-2.66,3.45-5,2.07L320.31,257.33a7.46,7.46,0,0,1-3.57-7L335.24,136c.4-2.52,2.66-3.45,5-2.08Z"/><path class="cls-12" d="M526,225.11v-.22a1.15,1.15,0,0,1,0-.19v0a.61.61,0,0,0,0-.14,1.23,1.23,0,0,0,0-.19s0-.06,0-.09v0a.13.13,0,0,0,0-.06l0-.2a1.16,1.16,0,0,0,0-.18h0c0-.06,0-.13,0-.19a1.8,1.8,0,0,1,0-.19l0-.05v0l0-.1-.06-.19a.69.69,0,0,0-.05-.13v0a1.34,1.34,0,0,0-.07-.18l-.06-.16,0-.07v0l0-.07c0-.05-.05-.11-.08-.17s0-.11-.08-.16v0l-.09-.18a.86.86,0,0,0-.1-.16l-.06-.11,0,0a2.26,2.26,0,0,0-.16-.26.56.56,0,0,0-.05-.08v0c-.07-.1-.14-.21-.22-.31l0,0,0,0-.09-.1-.13-.17-.06-.07,0,0-.05-.06-.14-.16a1.14,1.14,0,0,0-.11-.11l0,0v0l-.16-.15-.16-.16h0l-.16-.14-.17-.14,0,0,0,0-.13-.1-.17-.12-.05,0,0,0h0l-.1-.07-.18-.11s-4.22-2.44-4.24-2.44l-5.2,3.14,4.53,2.37.17.12.18.12.17.14.07.06.27.23h0l.26.24,0,0a2.73,2.73,0,0,1,.23.25l0,0a2.75,2.75,0,0,1,.22.26l0,.05.21.27.1.14.12.18a2.39,2.39,0,0,1,.13.21l.09.14.07.12.12.22,0,.06a3,3,0,0,1,.15.31l0,0,.14.33v0a3.05,3.05,0,0,1,.13.32v0c0,.11.07.22.1.33l0,.05a3,3,0,0,1,.08.32l0,.05.06.32V227c0,.11,0,.22.05.33v0a1.84,1.84,0,0,1,0,.33,1,1,0,0,1,0,.17v.39c0,.07,0,.14,0,.2l0,.22a1,1,0,0,1,0,.17l0,.3L502.52,341.81c-.09.54-2.16,4-1.69,3.69l5-4.22a5.8,5.8,0,0,0,2-3.51l17.89-110.55c.08-.54.21-1.34.21-1.34l0-.17c0-.05,0-.1,0-.14h0v-.07a1.27,1.27,0,0,0,0-.2.86.86,0,0,0,0-.16Z"/><path class="cls-12" d="M497.5,366.57l-.06-8.43-6.82,5.76-1.47-3.38L317.88,261.64c-2.06-1.19-6.16-1-8.55.33l-74.19,42.58v-1.19l-11.27,5.48-1.59-.64.22,5.2a2.39,2.39,0,0,0,1.3,2L402,418.58a9,9,0,0,0,8.08-.2l85.4-49.24a3.28,3.28,0,0,0,2-2.6Z"/><path class="cls-13" d="M401.94,411.66,223.71,308.76c-2.06-1.19-1.8-3.29.58-4.67l85.41-49.31c2.38-1.37,6-1.52,8.08-.33L496,357.35c2.07,1.19,1.81,3.29-.58,4.66L410,411.32C407.64,412.7,404,412.85,401.94,411.66Z"/><path class="cls-14" d="M320.37,273.51a1.36,1.36,0,0,1-1.17-.13l-10.82-6.25c-.39-.22-.5-.53-.24-.68l7.17-4.14a1.33,1.33,0,0,1,1.17.14l10.82,6.24c.39.23.5.53.24.68Z"/><path class="cls-14" d="M332.93,292.16a1.35,1.35,0,0,1-1.18-.14l-10.82-6.24c-.39-.23-.5-.53-.24-.68l7.18-4.15a1.38,1.38,0,0,1,1.16.14l10.82,6.25c.4.22.5.53.25.67Z"/><path class="cls-14" d="M326.58,299.9a1.37,1.37,0,0,1-1.17-.14l-10.82-6.25c-.39-.22-.5-.52-.24-.67l7.17-4.15a1.4,1.4,0,0,1,1.17.14l10.82,6.25c.39.22.5.53.24.67Z"/><path class="cls-14" d="M309.41,301.39a1.34,1.34,0,0,1-1.17-.14L297.42,295c-.39-.22-.49-.53-.24-.68l7.17-4.14a1.35,1.35,0,0,1,1.18.14l10.82,6.24c.39.22.49.53.23.68Z"/><path class="cls-14" d="M279.63,297.05a1.37,1.37,0,0,1-1.17-.14l-10.82-6.24c-.39-.23-.5-.53-.24-.68l8.42-4.87a1.41,1.41,0,0,1,1.17.14l10.82,6.25c.39.22.5.53.24.67Z"/><path class="cls-14" d="M298.29,307.81a1.78,1.78,0,0,1-1.4-.26l-14.17-8.18c-.51-.3-.72-.66-.46-.81l8.42-4.86a1.75,1.75,0,0,1,1.39.26l14.18,8.18c.51.3.71.66.46.81Z"/><path class="cls-14" d="M391.42,361.63a1.28,1.28,0,0,1-1.09-.18l-10.82-6.24c-.39-.23-.54-.51-.32-.64l3.11-1.79a1.36,1.36,0,0,1,1.11.18l10.81,6.24c.39.23.53.51.32.64Z"/><path class="cls-14" d="M405.88,370.19a1.3,1.3,0,0,1-1.1-.18L394,363.77c-.39-.23-.54-.51-.32-.64l3.11-1.79a1.34,1.34,0,0,1,1.1.18l10.82,6.24c.39.23.53.51.31.64Z"/><path class="cls-14" d="M421.21,378.84a1.37,1.37,0,0,1-1.09-.19l-10.81-6.24c-.39-.23-.55-.51-.34-.63l3-1.73a1.37,1.37,0,0,1,1.09.19l10.81,6.24c.39.23.54.51.34.63Z"/><path class="cls-14" d="M411.78,366.89a1.31,1.31,0,0,1-1.08-.19l-10.82-6.24c-.39-.22-.54-.51-.34-.63l3-1.73a1.37,1.37,0,0,1,1.09.19l10.82,6.25c.39.22.53.5.33.62Z"/><path class="cls-14" d="M372.72,350.76a1.39,1.39,0,0,1-1.18-.14L301.13,310c-.38-.22-.5-.53-.24-.68l8.42-4.86a1.4,1.4,0,0,1,1.17.14l70.42,40.63c.39.23.49.54.24.69Z"/><path class="cls-14" d="M296.36,305.13s-.07,0-.11,0L288,300.32c-.05,0-.07-.05-.06-.06l.53-.3s.06,0,.11,0l8.27,4.77s.07.06.05.07Z"/><path class="cls-14" d="M275.15,292s0,0-.06,0l-3.51-2s0,0,0,0l.52-.3h.07l3.51,2s0,0,0,0Z"/><path class="cls-14" d="M324.25,309.94a1.35,1.35,0,0,1-1.18-.14l-10.82-6.24c-.38-.22-.5-.53-.24-.68l7.17-4.14a1.39,1.39,0,0,1,1.18.14l10.82,6.24c.39.23.49.53.24.68Z"/><path class="cls-14" d="M339.14,318.54a1.33,1.33,0,0,1-1.17-.14l-10.82-6.24c-.39-.22-.5-.53-.24-.68l7.17-4.14a1.35,1.35,0,0,1,1.18.14l10.82,6.24c.38.22.49.53.23.68Z"/><path class="cls-14" d="M354,327.14a1.34,1.34,0,0,1-1.17-.14l-10.82-6.24c-.39-.23-.49-.53-.24-.68l7.17-4.14a1.38,1.38,0,0,1,1.18.13L361,322.32c.38.22.49.53.23.68Z"/><path class="cls-14" d="M368.94,335.74a1.4,1.4,0,0,1-1.17-.14L357,329.36c-.39-.23-.5-.54-.24-.68l7.17-4.15a1.43,1.43,0,0,1,1.18.14l10.82,6.25c.39.22.49.53.23.67Z"/><path class="cls-14" d="M383.84,344.34a1.4,1.4,0,0,1-1.18-.15L371.84,338c-.38-.22-.49-.53-.23-.67l7.17-4.15a1.33,1.33,0,0,1,1.17.14l10.82,6.24c.39.23.5.53.24.68Z"/><path class="cls-14" d="M398.74,352.93a1.4,1.4,0,0,1-1.17-.14l-10.82-6.24c-.39-.23-.5-.54-.24-.68l7.17-4.14a1.38,1.38,0,0,1,1.18.13l10.81,6.25c.39.22.5.53.24.67Z"/><path class="cls-14" d="M432.3,372.29a1.36,1.36,0,0,1-1.17-.13l-29.48-17c-.39-.22-.5-.53-.24-.68l7.17-4.14a1.34,1.34,0,0,1,1.17.14l29.48,17c.39.23.5.53.24.68Z"/><path class="cls-14" d="M341.41,308.45a1.33,1.33,0,0,1-1.17-.14l-10.82-6.24c-.39-.23-.5-.53-.24-.68l7.17-4.14a1.36,1.36,0,0,1,1.17.13l10.82,6.25c.39.22.49.53.24.67Z"/><path class="cls-14" d="M356.31,317.05a1.36,1.36,0,0,1-1.17-.14l-10.83-6.25c-.38-.22-.49-.52-.23-.67l7.17-4.15a1.41,1.41,0,0,1,1.17.14l10.82,6.25c.39.22.5.53.24.67Z"/><path class="cls-14" d="M371.21,325.64a1.38,1.38,0,0,1-1.18-.13l-10.81-6.25c-.39-.22-.51-.53-.25-.68l7.17-4.14a1.39,1.39,0,0,1,1.18.14l10.82,6.24c.38.23.49.53.24.68Z"/><path class="cls-14" d="M386.11,334.24a1.35,1.35,0,0,1-1.18-.14l-10.81-6.24c-.39-.23-.5-.53-.25-.68l7.18-4.14a1.34,1.34,0,0,1,1.17.14L393,329.42c.38.23.49.53.24.68Z"/><path class="cls-14" d="M401,342.83a1.36,1.36,0,0,1-1.17-.13L389,336.45c-.39-.22-.49-.53-.23-.68l7.17-4.14a1.37,1.37,0,0,1,1.17.14L407.94,338c.39.22.5.52.24.67Z"/><path class="cls-14" d="M415.9,351.43a1.33,1.33,0,0,1-1.17-.14l-10.81-6.24c-.4-.23-.51-.53-.25-.68l7.18-4.14a1.34,1.34,0,0,1,1.17.14l10.82,6.24c.39.23.49.53.24.68Z"/><path class="cls-14" d="M430.8,360a1.37,1.37,0,0,1-1.17-.14l-10.82-6.25c-.39-.22-.5-.52-.24-.67l7.18-4.14a1.34,1.34,0,0,1,1.16.13l10.83,6.25c.38.22.49.53.23.67Z"/><path class="cls-14" d="M347.76,300.71a1.35,1.35,0,0,1-1.18-.14l-10.82-6.24c-.39-.22-.49-.53-.23-.68l7.17-4.14a1.36,1.36,0,0,1,1.17.13l10.82,6.25c.39.22.49.53.24.67Z"/><path class="cls-14" d="M362.65,309.3a1.36,1.36,0,0,1-1.17-.13l-10.82-6.24c-.39-.23-.5-.53-.24-.68l7.17-4.15a1.43,1.43,0,0,1,1.18.14l10.82,6.25c.38.22.49.52.23.67Z"/><path class="cls-14" d="M377.55,317.9a1.38,1.38,0,0,1-1.18-.13l-10.82-6.25c-.38-.22-.49-.52-.23-.68l7.17-4.14a1.36,1.36,0,0,1,1.17.14l10.82,6.24c.39.23.5.53.24.68Z"/><path class="cls-14" d="M392.45,326.5a1.35,1.35,0,0,1-1.18-.14l-10.82-6.24c-.39-.22-.49-.53-.23-.68l7.17-4.14a1.34,1.34,0,0,1,1.17.14l10.82,6.24c.39.23.49.53.24.68Z"/><path class="cls-14" d="M407.35,335.09a1.36,1.36,0,0,1-1.17-.13l-10.82-6.25c-.39-.22-.5-.52-.24-.68l7.17-4.14a1.39,1.39,0,0,1,1.18.14l10.82,6.25c.38.22.49.52.23.67Z"/><path class="cls-14" d="M422.25,343.69a1.35,1.35,0,0,1-1.18-.14l-10.82-6.24c-.38-.22-.49-.53-.23-.68l7.17-4.14a1.33,1.33,0,0,1,1.17.14l10.82,6.24c.39.23.5.53.24.68Z"/><path class="cls-14" d="M437.15,352.29a1.35,1.35,0,0,1-1.18-.14l-10.82-6.24c-.39-.23-.49-.53-.23-.68l7.17-4.14a1.36,1.36,0,0,1,1.17.13l10.82,6.25c.39.22.49.53.24.67Z"/><path class="cls-14" d="M318,283.56a1.35,1.35,0,0,1-1.18-.14L298.5,272.84c-.39-.23-.49-.53-.23-.69l7.17-4.14a1.37,1.37,0,0,1,1.17.14L325,278.74c.39.22.49.53.24.68Z"/><path class="cls-14" d="M461.92,355.18a1.35,1.35,0,0,1-1.18-.14L442.4,344.46c-.39-.22-.5-.53-.24-.68l7.17-4.14a1.36,1.36,0,0,1,1.17.13l18.35,10.59c.39.23.5.53.24.68Z"/><path class="cls-14" d="M311.68,291.3a1.36,1.36,0,0,1-1.18-.14l-21.87-12.62c-.39-.23-.5-.53-.24-.68l7.17-4.14a1.35,1.35,0,0,1,1.18.14l21.87,12.62c.39.22.49.53.24.67Z"/><path class="cls-14" d="M294.52,292.8a1.43,1.43,0,0,1-1.18-.14l-14.58-8.42c-.39-.22-.5-.53-.24-.68l7.17-4.14a1.35,1.35,0,0,1,1.18.14L301.45,288c.39.23.5.53.24.68Z"/><path class="cls-14" d="M335.27,282.11a1.36,1.36,0,0,1-1.18-.14l-10.81-6.24c-.39-.23-.5-.53-.24-.68l7.17-4.14a1.33,1.33,0,0,1,1.17.14l10.82,6.24c.39.22.5.53.24.68Z"/><path class="cls-14" d="M350.1,290.66a1.35,1.35,0,0,1-1.18-.14l-10.82-6.24c-.38-.22-.49-.53-.23-.68l7.16-4.14a1.35,1.35,0,0,1,1.18.14L357,285.84c.39.22.5.53.24.68Z"/><path class="cls-14" d="M365,299.25a1.35,1.35,0,0,1-1.18-.13L353,292.88c-.38-.23-.49-.53-.23-.68l7.17-4.14a1.36,1.36,0,0,1,1.17.13l10.82,6.25c.39.22.49.52.23.67Z"/><path class="cls-14" d="M379.9,307.86a1.39,1.39,0,0,1-1.18-.14l-10.81-6.24c-.39-.23-.5-.53-.24-.68l7.17-4.14a1.36,1.36,0,0,1,1.17.13L386.83,303c.39.22.5.52.24.67Z"/><path class="cls-14" d="M394.79,316.45a1.36,1.36,0,0,1-1.17-.13l-10.82-6.25c-.39-.22-.5-.53-.24-.68l7.17-4.14a1.35,1.35,0,0,1,1.18.14l10.82,6.24c.39.23.49.53.23.68Z"/><path class="cls-14" d="M409.7,325.05a1.36,1.36,0,0,1-1.17-.14l-10.83-6.25c-.38-.22-.49-.52-.23-.67l7.17-4.14a1.36,1.36,0,0,1,1.17.13l10.82,6.25c.39.22.5.52.24.67Z"/><path class="cls-14" d="M424.6,333.64a1.38,1.38,0,0,1-1.18-.13l-10.82-6.25c-.39-.22-.5-.53-.24-.68l7.17-4.14a1.35,1.35,0,0,1,1.18.14l10.82,6.24c.39.23.5.53.24.68Z"/><path class="cls-14" d="M439.49,342.24a1.36,1.36,0,0,1-1.17-.13l-10.83-6.25c-.38-.22-.49-.53-.23-.68l7.17-4.14a1.36,1.36,0,0,1,1.17.13l10.83,6.25c.39.23.49.53.23.68Z"/><path class="cls-14" d="M448.16,349.82a1.79,1.79,0,0,0-.64-.21.91.91,0,0,0-.53.08l-7.17,4.14a.24.24,0,0,0-.13.31.78.78,0,0,0,.36.36l2.82,1.63-9.4,5.44a.24.24,0,0,0-.12.31.73.73,0,0,0,.36.36l7.29,4.21a1.67,1.67,0,0,0,.64.21.88.88,0,0,0,.54-.07l17-9.85a.23.23,0,0,0,.12-.31.73.73,0,0,0-.36-.36Z"/><path class="cls-14" d="M292.58,289.3a.13.13,0,0,1-.11,0l-8.27-4.77c-.05,0-.07-.06-.06-.07l.52-.3a.16.16,0,0,1,.12,0l8.27,4.77s.07.06.05.07Z"/><path class="cls-14" d="M335.87,359.36l-39.6-22.22c-.46-.25-.45-.69,0-1l16.83-9.69a1.88,1.88,0,0,1,1.68,0l39.61,22.22c.46.26.45.69,0,1l-16.83,9.69A1.9,1.9,0,0,1,335.87,359.36Z"/><path class="cls-15" d="M492.85,368.4a1.66,1.66,0,1,1-.83-2.52A1.92,1.92,0,0,1,492.85,368.4Z"/><path class="cls-16" d="M521.42,218.33,347.89,118.14h0l-.26-.15h0l-.46-.27-.17-.09-.19-.08-.18-.08-.19-.07-.19-.06-.2-.06h0l-.17,0-.09,0h-.13l-.21,0h-.57l-.18,0-.1,0h0l-.34.1h0l0,0a2.6,2.6,0,0,0-.42.19l-5.09,3,.41-.19.16,0,.2-.06.25,0h.1a2,2,0,0,1,.35,0h.07l.38,0h0l.41.08h0l.41.13h0l.43.19.18.1.14.07,1,.56h0L517,221.66a.66.66,0,0,0,.64,0l3.81-2.22A.64.64,0,0,0,521.42,218.33ZM346.18,118.45Z"/><path class="cls-17" d="M517.29,221.66a7.48,7.48,0,0,1,3.56,7L502.35,343c-.4,2.53-2.66,3.46-5,2.08L322.24,244a7.48,7.48,0,0,1-3.57-7l18.5-114.32c.41-2.52,2.66-3.45,5-2.08Z"/><path class="cls-18" d="M511,229c2.25,1.28,3.78,4,3.41,6.14l-16.73,95.9c-.37,2.12-2.49,2.8-4.75,1.52L326.91,238.5c-2.25-1.28-3.78-4-3.41-6.14l16.73-95.91c.36-2.11,2.49-2.79,4.74-1.51Z"/><path class="cls-19" d="M347.16,117.72l171.56,98.5s8.19,3.86,6.79,11.62L509.13,329.28"/><line class="cls-15" x1="437.06" y1="398.73" x2="429.25" y2="403.31"/><line class="cls-15" x1="427.29" y1="404.61" x2="419.49" y2="409.19"/><line class="cls-20" x1="316.22" y1="253.29" x2="495.88" y2="356.98"/><path class="cls-5" d="M310.59,291.33s21.52.73,18.25-6.15c-.82-1.73-4.88-2.14-10-1.91a4.1,4.1,0,0,0,2-4.29s-3.12-.13-6.93,0a3.91,3.91,0,0,0,.57-2.9s-10-.4-16.06,1.09a39.87,39.87,0,0,0-12.21,4.69c-5.49,3.19-6.68,6.27-18,18.5,0,0,.64.31,1.62.73a7.26,7.26,0,0,0-1.91,8l.13.32a11.09,11.09,0,0,0,12.11,7l11.16-1.78L306,306.19s9-1.93,8.45-5.76c-.59-4.27-10.4.4-10.4.4L296.72,304c-2.18.62-3.14.93-4.11-1-.57-1.17.75-2.48.73-2.72C293.3,299.66,310.59,291.33,310.59,291.33Z"/><path class="cls-5" d="M410.1,319.83a3.41,3.41,0,0,1,1.22,3v0c-.33,3.53-5.16,7.65-14.33,12.24-.28.23-1.22,1.26-2.49,2.71a17.88,17.88,0,0,1,10.23-1c12,2.95,16.82,6.66,17,6.82l.28.21,0,.34a2.68,2.68,0,0,1-1.17,2.21c-2.37,1.79-7.72,1.21-15.88-1.7-2.2-.79-4.72-.39-7.51,1.17a9.65,9.65,0,0,1,5.67-.33c5.47,1.48,16.16,7,16.61,7.19l.43.22v.48a2.54,2.54,0,0,1-1.24,2,4.48,4.48,0,0,1-1.49.61l.27.08.74.24-.25.74c-1.82,5.46-7.81,3.72-12.18,2.45l-1.65-.47c-2-.55-5-.62-6.52,1-4.26,4.48-7.08,8.08-7.93,10.13-.21.51-2.83,4.29-3.16,4.86-6.22,10.91-19.68,3.19-19.78-9.55,7.61-11.71,15.95-30.4,23.18-34.37l.08-.1,19.45-11.48Z"/><path class="cls-5" d="M293.71,425.69c17.46-6.46,34.77-13.41,50.75-23,12.71-7.67,25.05-15.66,38.31-22.4,12.72-6.46,3.28-26.52-9.45-20C360.06,367,347.72,374.93,335,382.6c-16,9.63-33.29,16.58-50.75,23-13.4,5-3.83,25,9.45,20.05Z"/><path class="cls-10" d="M364.27,398s-19.84-13.2-13-31.67l12.86-7.46c8.91,1,17.86,25.09,14.77,30.19Z"/><path class="cls-21" d="M264.05,406.45l90.67-44.4c4,3.86,11.31,21,13.91,37.39l-55.46,24.5c-23.27,11-35,4.38-50.81-14C262.26,409.86,262.36,410,264.05,406.45Z"/><path class="cls-5" d="M185.45,364c17.42-6.55,34.69-13.6,50.61-23.33,12.67-7.73,25-15.79,38.19-22.6,12.68-6.54,8.72-28.38-4-21.84-13.22,6.81-31.1,16.71-43.77,24.45-15.93,9.73-33.19,16.77-50.61,23.33-13.38,5-3.7,25,9.56,20Z"/><path class="cls-10" d="M255.85,335.94s-19.92-13.08-13.23-31.59l12.82-7.53c8.92.93,18,25,14.94,30.11Z"/><path class="cls-22" d="M155.68,344.94,246.09,300c4.07,3.84,11.43,21,14.13,37.31l-84.63,41C161.94,371.18,156.12,359.6,155.68,344.94Z"/><path class="cls-8" d="M211.43,589.2l84.94-66.06L291.25,503c-116.66,91.68-157.4,51.34-157.4,51.34C127.59,628.68,182.51,606.29,211.43,589.2Z"/><path class="cls-21" d="M107.4,345.22S96.49,469.89,98.29,479c0,0-7.09,71.62,71.19,45.71,33-1,60-14.09,62.16-40.13l-5-37.66v-96.1Z"/><path class="cls-21" d="M220.13,385.22c3-1.68,10.77-14.56,10.77-14.56,2.8-17.55,11.54-34.36-4.58-49.84-4.15-4-43.94-28.54-75.25-35.59-15.18-3.42-30.67,4.45-37.45,18.46-2.41,5-4.91,13-6.5,18.48-1.38,4.78-1.05,13.18-.44,18.62,2.18,19.35,9.36-.17,10.71,15.89-.06-.44-5.1-2.23-5.14-2.66,0,0,10.43,11.68,12.4,35.21,1.21,14.67,2.06,25.29,2.12,26.78v.18l52.89,45.49,31-50.78h0Z"/><path class="cls-5" d="M158.17,298.32l22.27-46.09,24.13,18.54L190,309C188.81,316.21,155.3,314.83,158.17,298.32Z"/><path class="cls-10" d="M141,288.14c-9,6.61,10.33,18.7,18.85,22.79,10.86,5.21,39.23.41,50.78-.27,4.13-.24-14.86-11.87-19-11.63-17.72,1-29.73,1.79-35.92-12.57-2.94-6.81-24.55-36-6.32,1.46Z"/><path class="cls-5" d="M173.35,188.93S141.57,164.05,142,210.36c.27,32.21,16.45,58.5,47.09,66,13.22,3.24,32.13,4.74,41-.31,5.06-2.88,9.61-18.23,6.72-28.85-6.63-24.29.17-30-7.91-47.51.9-19.35-13.54-12.3-38.7-13.25Z"/><path class="cls-7" d="M153,274.18s-31.25-6.06-27.77-54.72c3.05-42.66,37.14-47.91,64-51,11.9-1.36,34,6.36,40.46,17.19,7.66,12.75-8.65,14.46-21.9,21.61-5.58,3,3.52,19,3.46,25-.16,15.93-14,10.4-16.16,20.5-2.09,9.56-3.05,24.17-12.15,25.39A61.27,61.27,0,0,1,153,274.18Z"/><path class="cls-23" d="M208,207.23c13.25-7.15,29.56-8.86,21.9-21.62-3-4.93-9.16-9.22-16.15-12.3a27.45,27.45,0,0,1,6.32,7c9,15-1.9,16-17.47,24.43-6.56,3.54-4.14,23.32-4.21,30.34-.19,18.73,12.91,13.07,13.07-2.86C211.48,226.22,202.38,210.24,208,207.23Z"/><path class="cls-5" d="M209.68,247.36c.82,7.86-3.07,14.71-8.7,15.29a7.46,7.46,0,0,1-1.83,0c-4.89-.69-9.12-6.13-9.85-13.12-.82-7.86,3.08-14.71,8.7-15.29S208.86,239.51,209.68,247.36Z"/><path class="cls-5" d="M243.42,242.7h0a3.11,3.11,0,0,1-1.06,2.47,20.29,20.29,0,0,1-6.27,4.71,4.43,4.43,0,0,1-3.61.49,4.28,4.28,0,0,1-2.09-3.23c-.76-3.46-.64-9.72,3.27-11.38,1.61-.68-1.94-12-1.31-10.4C234.84,231.66,240.41,239.21,243.42,242.7Z"/><path class="cls-24" d="M226,233.67c.1,2.07,1.12,3.7,2.27,3.64s2-1.77,1.92-3.84-1.12-3.71-2.28-3.65S225.87,231.6,226,233.67Z"/><path class="cls-25" d="M223.51,226c1.76-1.46,4.43-3.19,6.83-2.93a1.47,1.47,0,0,0,.35-2.92c-3.22-.34-6.63,1.58-9,3.56a1.47,1.47,0,0,0,1.85,2.29Z"/><path class="cls-26" d="M224.76,257.34c2.07,3.56,6,4.33,9.74,3.22a1.32,1.32,0,0,0-.7-2.55c-2.59.77-5.28.54-6.76-2a1.32,1.32,0,0,0-2.28,1.33Z"/><path class="cls-26" d="M203.31,249.34a2,2,0,0,0-.33-2.93c-1.39-1-3.41-1.71-4.39,1s1,5.48,2.62,7.16a.38.38,0,0,0,.62-.41c-.5-1.2-.74-2.67.36-3.68C202.65,250,203,249.66,203.31,249.34Z"/><path class="cls-22" d="M228.21,447.33c-1.57-24.94,10.14-24.94,14.83-59L226.17,352.2l-2.64,8.49c-9.15,29.44-6.08,50.45-5.38,81.28l-1.05,2.2a129.08,129.08,0,0,0-12.53,51.48h0c-2.2,26-48.45,29.44-81.41,30.44-1.49.5-3,.95-4.39,1.37,10.62,5.37,26.49,6.49,50.24-1.37,33-1,60.88-14.83,63.08-40.87Z"/><path class="cls-21" d="M274.36,422.39,202.23,344a21.77,21.77,0,0,1,.18-29.67h0c9-9.5,24.45-1.81,35.45,8.69l61.78,69.88Z"/><path class="cls-10" d="M296.87,389.78l-58.8-66.55c-7.11-6.8-16.11-12.41-24-13C235.79,317.18,275.74,374.24,296.87,389.78Z"/><path class="cls-27" d="M203.82,278.59s-9.29-1.18-13.78-7.67c0,0,3.56,12.36,7.37,18.65C197.41,289.57,201.94,281.57,203.82,278.59Z"/><path class="cls-17" d="M164.41,799.52h0a4,4,0,0,1-3.33-4.5l20-214.91c.32-2.17,14.52-5.91,16.68-5.59h0c2.17.32,20.7,3.42,20.38,5.59L168.91,796.18A4,4,0,0,1,164.41,799.52Z"/><path class="cls-17" d="M13.82,706.87h0a4,4,0,0,1-3.34-4.5l20-214.91c.32-2.16,14.52-5.9,16.68-5.58h0c2.17.32,20.7,3.42,20.38,5.58L18.32,703.54A4,4,0,0,1,13.82,706.87Z"/><path class="cls-17" d="M328,713.65h0a4.11,4.11,0,0,0,3.46-4.66L318.2,531.76c-.33-2.24-13.87,6.85-16.11,7.18h0c-2.24.34-20.31,7.67-20,9.91l41.23,161.34A4.09,4.09,0,0,0,328,713.65Z"/><path class="cls-28" d="M185.74,644.37,44.92,561.73c-17.42-9.28-18.56-16.45-18.56-16.45-9.93-29,5.09-25.32,18.11-17.81l127.35,75c13,7.51,17.93,15.36,15.83,24.68C187.65,627.13,202.24,652.88,185.74,644.37Z"/><path class="cls-23" d="M304.71,582.58l-96.54,59.11c-15.64,9.57-27.72,5.08-26.86-10l.83-14.48c.87-15.06,14.37-35.22,30-44.79l96.54-59.11c15.64-9.57,27.72-5.08,26.86,10l-.83,14.48C333.84,552.85,320.34,573,304.71,582.58Z"/><path class="cls-23" d="M23.57,534.21.62,386.05c-4.09-22.35,12.62-29.79,36.19-16.11l94.27,54.7c17,9.86,33.11,28.28,40.32,46.05l39.79,98.15c11.41,28.13-13.22,55.82-37,41.64Z"/><path class="cls-7" d="M198.08,646,145.17,481.86c-10.85-26.77-53.06-46.21-78.64-61.06L0,382.2c.1,1.05.24,2.13.45,3.27l22.6,145.87a55.56,55.56,0,0,0,3.15,13.35s1.14,7.17,18.55,16.45l139.73,83C189.85,647.71,196.75,647.11,198.08,646Z"/><path class="cls-10" d="M688.09,566.5a3.65,3.65,0,1,1-3.65-3.65A3.64,3.64,0,0,1,688.09,566.5Z"/><path class="cls-10" d="M249.94,137.89a3.65,3.65,0,1,1-3.65-3.65A3.65,3.65,0,0,1,249.94,137.89Z"/><path class="cls-10" d="M556.92,80.26a3.65,3.65,0,1,1-3.65-3.65A3.65,3.65,0,0,1,556.92,80.26Z"/><path class="cls-10" d="M620.87,178.46a3.65,3.65,0,1,1-3.65-3.64A3.64,3.64,0,0,1,620.87,178.46Z"/><circle class="cls-10" cx="705.53" cy="366.21" r="3.65"/><path class="cls-10" d="M579.58,262.69a7.1,7.1,0,1,1-7.09-7.09A7.09,7.09,0,0,1,579.58,262.69Z"/><path class="cls-17" d="M138.3,220c-11,47.22,9.2,54.1,9.2,54.1s12.11,3,16.13,3.6c-1.18-9.33-2.83-16.09,1.52-24,6.72-12.18,9.49-26.43,5.08-39.62A32.1,32.1,0,0,1,169,197.63a12.65,12.65,0,0,0-4.47-12.52C152.59,190.46,142.78,200.72,138.3,220Z"/><ellipse class="cls-29" cx="149.66" cy="201.07" rx="22.05" ry="23" transform="translate(-60.98 336.93) rotate(-86.16)"/><path class="cls-7" d="M150.72,194.36c.44-14.43-19.55-19.08-26.23-6.28a56,56,0,0,0-5,15.84c-7.68,42.12-78.23,39-40.66,111,0,0-29.35,49.5,29.82,67.35,9.49,2.86,19.85-2.43,29.6-11,24.62-21.74,31.46-56.87,19.85-87.59-4.08-10.79-6.12-22.6-2.37-33,4.77-13.16,5.26-27.76-1.19-40.17A32.37,32.37,0,0,1,150.72,194.36Z"/><path class="cls-23" d="M98.91,323.21c-43.3-83,38-79.4,46.86-128a83.51,83.51,0,0,1,2.65-10.74c-5.62-7.12-18.43-7.51-23.52,2.25a55.92,55.92,0,0,0-5,15.83c-7.67,42.13-78.23,39-40.66,111,0,0-24.78,41.8,17.13,62.42C81.86,352,98.91,323.21,98.91,323.21Z"/><polyline class="cls-30" points="318.88 283.27 307.24 283.71 290.18 294.97"/><path class="cls-30" d="M314,279c-.79-.35-12,0-12,0L285,290.25"/><polyline class="cls-31" points="416.43 355.88 398.13 350.99 390.65 357.39"/><line class="cls-31" x1="397.48" y1="345.85" x2="392" y2="349.88"/><path class="cls-32" d="M221.12,365.33l51.63,55.31s12.34,10.77,24.12,8.44a72.4,72.4,0,0,1-34.54-28.25C248.68,379.47,233.6,361.38,221.12,365.33Z"/><path class="cls-33" d="M662.65,453.85l-70.76,39.51c-2.22,1.24-7,.6-10.53-1.42L526.67,461c-3.57-2-4.67-4.69-2.45-5.93L595,415.59c2.22-1.24,7-.6,10.53,1.42l54.69,30.91C663.77,449.94,664.87,452.61,662.65,453.85Z"/><polygon class="cls-29" points="569.18 431.01 578.66 478.55 609.01 481.2 624.86 424.45 569.18 431.01"/><ellipse class="cls-29" cx="593.84" cy="479.87" rx="6.94" ry="15.23" transform="translate(68.94 1034.31) rotate(-85.51)"/><polygon class="cls-29" points="627.81 406.28 628.69 453.75 658.3 455.53 668.38 395.35 627.81 406.28"/><ellipse class="cls-29" cx="643.5" cy="454.64" rx="6.92" ry="14.86" transform="translate(168.81 1083.5) rotate(-88.2)"/><polygon class="cls-34" points="522.5 411.99 529.88 459.36 560.18 462.79 578.6 406.94 522.5 411.99"/><path class="cls-34" d="M560.18,462.79c-.64,3.76-7.93,6-16.3,5.1s-14.63-4.77-14-8.53,7.93-6.05,16.3-5.1S560.82,459,560.18,462.79Z"/><path class="cls-35" d="M571.2,418.14l-49.13-6.4,7.38,47.38c-.51,3.06,3.54,6.16,9.58,7.72C556.79,466,576.33,418.21,571.2,418.14Z"/><path class="cls-29" d="M599,308.5c-21.94.08-60.19,13.73-74.59,37.77-6.87,11.47-9.66,23.45-9.26,41.84.77,35.18,20.68,65.26,56.77,71.43,13.23,2.26,25.6.55,36-4.24l.14-.07.05,0c1.58-.74,3.12-1.55,4.6-2.42,23-11.85,55-24.83,60.24-58.52C680.71,344.06,647.55,308.32,599,308.5Z"/><path class="cls-36" d="M533.16,329.54s12.86,1.82,22.16,9.65c4.78,4,5.76,10.87,2.12,14.84L553,358.84S529.83,339.73,533.16,329.54Z"/><path class="cls-10" d="M521.94,353.83s-6-18,12.44-26.65c0,0,22.66,17.58,19.86,29.3C554.24,356.48,535.36,345.51,521.94,353.83Z"/><path class="cls-36" d="M572,370.5s14.41-16.27,34-4.95c0,0,4.5,11.56,6.17,20.21.89,4.61-1.41,8.76-5.51,10.06l-10.77,3.4-8.82-24.83Z"/><path class="cls-10" d="M573.5,369.62s9.1-10.16,24.92-1.28c0,0,10.77,25.84-1,30C597.43,398.34,588.41,374.4,573.5,369.62Z"/><path class="cls-36" d="M577.29,354.48l40.2-26c1.59-1,1.1-2.85-1.07-4.05h0c-2.18-1.21-5.26-1.35-6.84-.32l-40.21,26c-1.58,1-1.1,2.85,1.08,4.05h0C572.62,355.36,575.7,355.5,577.29,354.48Z"/><path class="cls-37" d="M581.34,357l40.2-26c1.58-1,1.1-2.85-1.08-4h0c-2.17-1.2-5.25-1.35-6.84-.32l-40.2,26c-1.59,1-1.1,2.85,1.07,4.05h0C576.67,357.9,579.75,358,581.34,357Z"/><path class="cls-37" d="M538.88,380.8c-.83,2.72-3.3,4.12-5.51,3.12s-3.32-4-2.49-6.73,3.31-4.12,5.51-3.12S539.72,378.08,538.88,380.8Z"/><path class="cls-10" d="M535.15,376.35a1.74,1.74,0,0,1-2.51.93,2.38,2.38,0,0,1-1.41-2.7,1.75,1.75,0,0,1,2.52-.92A2.35,2.35,0,0,1,535.15,376.35Z"/><path class="cls-37" d="M570.11,393.82c-.3,3-2.41,4.95-4.7,4.37s-3.9-3.49-3.6-6.49,2.41-5,4.7-4.37S570.42,390.82,570.11,393.82Z"/><path class="cls-36" d="M526.25,391s8.35-9.13,21,.35S568.43,418.2,564.39,426,526.25,391,526.25,391Z"/><path class="cls-34" d="M564.3,428.72c.18-11.5-9.39-27.18-21.38-35-8.32-5.45-15.62-5.69-19.38-1.5L514.87,399l35.71,47,8.56-7.28C562.28,437.13,564.21,433.74,564.3,428.72Z"/><ellipse class="cls-10" cx="532.57" cy="422.54" rx="15.52" ry="29.43" transform="translate(-147.16 410.75) rotate(-37.44)"/><ellipse class="cls-36" cx="531.73" cy="423.73" rx="15.52" ry="29.43" transform="translate(-148.06 410.49) rotate(-37.44)"/><path class="cls-10" d="M541.05,433.22c0,2.9-2.11,3.72-4.6,1.83a12.18,12.18,0,0,1-4.42-8.67c.05-2.9,2.11-3.72,4.6-1.83A12.18,12.18,0,0,1,541.05,433.22Z"/><path class="cls-34" d="M541.41,432.2c0,2.9-2.11,3.72-4.59,1.83a12.15,12.15,0,0,1-4.43-8.67c.05-2.9,2.11-3.72,4.6-1.83A12.11,12.11,0,0,1,541.41,432.2Z"/><path class="cls-38" d="M541.48,432.34c0,1.85-1.35,2.38-2.94,1.17a7.77,7.77,0,0,1-2.83-5.55c0-1.85,1.35-2.38,2.94-1.17A7.77,7.77,0,0,1,541.48,432.34Z"/><path class="cls-10" d="M526.68,423.13c0,2.9-2.11,3.72-4.6,1.83a12.18,12.18,0,0,1-4.42-8.67c.05-2.9,2.11-3.72,4.6-1.83A12.18,12.18,0,0,1,526.68,423.13Z"/><path class="cls-34" d="M527,422.11c0,2.9-2.11,3.72-4.59,1.83a12.15,12.15,0,0,1-4.43-8.67c.05-2.9,2.11-3.72,4.6-1.83A12.11,12.11,0,0,1,527,422.11Z"/><path class="cls-38" d="M527.11,422.25c0,1.85-1.35,2.38-2.94,1.17a7.77,7.77,0,0,1-2.83-5.55c0-1.85,1.35-2.38,2.94-1.17A7.77,7.77,0,0,1,527.11,422.25Z"/><path class="cls-34" d="M520.73,356.19s-6-18,12.43-26.65c0,0,22.67,17.59,19.87,29.3C553,358.84,534.15,347.87,520.73,356.19Z"/><path class="cls-34" d="M572,370.5s9.1-10.16,24.92-1.28c0,0,10.77,25.84-1,30C595.91,399.22,586.89,375.28,572,370.5Z"/><path class="cls-34" d="M574.89,460.05c16,1.23,31.36-1.77,43.41-10.11l-2.81,8.38C610.68,462.22,597.38,467.8,574.89,460.05Z"/><path class="cls-10" d="M565.64,390.11a1.74,1.74,0,0,1-2.51.92,2.37,2.37,0,0,1-1.41-2.69,1.75,1.75,0,0,1,2.52-.93A2.37,2.37,0,0,1,565.64,390.11Z"/><path class="cls-34" d="M591.5,416.75c-.79,2.31-4.45,2.71-8.2.91s-6.13-5.14-5.35-7.45,4.46-2.71,8.2-.91S592.29,414.44,591.5,416.75Z"/><path class="cls-39" d="M652.88,366.94c-5.1-1.18-10.59-4.13-13.46-10-5-10.2-12.27-26.82-22.06-23.51L594.2,348.7s11.31-1.52,15.26,9.46c3.84,10.65,4.75,17.44,21.39,26.28Z"/><path class="cls-33" d="M652.81,357.16c-5.1-1.18-10.59-4.12-13.46-10-5-10.21-9.09-23.54-18.89-20.22L597,340.2c-5.31,3.1-7.19,6.87-8.21,12l9.53-6.16h0a8.49,8.49,0,0,1,11,2.38c6.75,9.08,4.75,17.43,21.39,26.28Z"/><ellipse class="cls-10" cx="621.25" cy="342.23" rx="8.7" ry="10.44" transform="translate(268.92 957.8) rotate(-89.06)"/><path class="cls-33" d="M618.89,344.29a6.4,6.4,0,0,1-1.67-2.58l1,.07a5.13,5.13,0,0,0,1.55,2.32c1,.89,1.9,1,2.46.63,1.45-1.11-2.73-4.23-1-5.56.8-.62,2.18-.36,3.5.6l.91-.7.83.73-.89.68a4.24,4.24,0,0,1,1.28,2.22l-1-.19a3.4,3.4,0,0,0-1.18-1.86c-.85-.73-1.73-.94-2.25-.54-1.3,1,2.92,4.07,1,5.55-.86.65-2.28.39-3.71-.67l-.91.7L618,345Z"/><path class="cls-34" d="M629,444.52s31.53-18.24,36.1-29.31l-2,11.71S656.29,442.78,629,444.52Z"/><path class="cls-40" d="M539.94,532.36l-105.56-55.6c18.6-9,32.89-16.43,44.76-25.11L584.56,507A437.92,437.92,0,0,0,539.94,532.36Z"/><path class="cls-21" d="M449.48,478.22l.87-.34c1.31-.5,2.09-1.2,2.08-1.87s-.79-1.28-2.24-1.79l-1-.35.91-.41a141.85,141.85,0,0,0,25.73-14.94l.56-.41.7.33c1.33.62,4.49,1.4,6.92-.12l.6-.37.65.33L574,504l-.7.35c-1.16.57-1.74,1.19-1.72,1.84s.72,1.39,1.87,1.89l.81.36-.81.37a156.77,156.77,0,0,0-25.74,15l-.54.38-.69-.29a9.63,9.63,0,0,0-4.31-.79,5,5,0,0,0-2.6.87l-.59.42-.69-.36Zm4.5-2.9a1.51,1.51,0,0,1,.17.67c0,.82-.71,1.65-2,2.3l86.67,44.64a7.71,7.71,0,0,1,3.14-.85,12.6,12.6,0,0,1,4.88.7,158.49,158.49,0,0,1,24.74-14.38,3,3,0,0,1-1.75-2.22c0-.56.27-1.37,1.64-2.2l-86.78-44.69a10.76,10.76,0,0,1-8,.17,143.49,143.49,0,0,1-24.65,14.33A3.8,3.8,0,0,1,454,475.32Z"/><path class="cls-21" d="M490.09,493.34c-2-3.84-.5-8,4.64-11,8-4.63,21.76-4.64,30.74,0s9.79,12.15,1.81,16.78h0c-8,4.63-21.77,4.64-30.74,0C493.34,497.47,491.18,495.46,490.09,493.34Z"/><path class="cls-21" d="M527.2,508.07c-.31-.16-.25-.5,0-.66a1.59,1.59,0,0,1,.94-.16,22.28,22.28,0,0,1,3.66.33,1.05,1.05,0,0,1,.54.26c.15.16.14.35-.1.49-.82.48-1.56.91-2.4,1.38l-4.8,2.79a1.39,1.39,0,0,1-1.27,0c-.37-.19-.46-.47,0-.71,1-.56,2.84-1.59,4.49-2.55l1.57-.9c-.82,0-1.48-.05-2.06-.09A1.18,1.18,0,0,1,527.2,508.07Z"/><path class="cls-21" d="M538.17,510.74c2.09,1.07,1.59,2.69-.94,4.15s-5.63,1.61-7.45.67-1.85-2.56.51-3.93S535.81,509.52,538.17,510.74Zm-6.39,1.53c-1.4.82-2,1.93-.8,2.56a5.33,5.33,0,0,0,4.86-.6c1.63-.94,2.41-2.11,1.1-2.79C535.36,510.62,533.26,511.41,531.78,512.27Z"/><path class="cls-21" d="M546.07,514.8c2.09,1.08,1.59,2.69-.94,4.16s-5.63,1.61-7.45.67-1.85-2.57.51-3.94S543.71,513.59,546.07,514.8Zm-6.39,1.54c-1.4.81-2,1.93-.8,2.56a5.33,5.33,0,0,0,4.86-.6c1.63-.94,2.41-2.12,1.1-2.79C543.26,514.69,541.16,515.48,539.68,516.34Z"/><path class="cls-41" d="M503.93,493.38a3.77,3.77,0,0,1-1.77-2.8l1.86-.32a3.06,3.06,0,0,0,1.68,2.51,4,4,0,0,0,4.18-.13c3.19-2.07-2.9-4.6.94-7.08a6.87,6.87,0,0,1,6.08-.57l2-1.29,1.17.64-1.95,1.26a2.59,2.59,0,0,1,1.25,2.49l-1.82.15a2,2,0,0,0-1.24-2,3.78,3.78,0,0,0-3.83.16c-2.86,1.85,3.33,4.32-.9,7.06a7.11,7.11,0,0,1-6.44.56l-2,1.29-1.16-.64Z"/><path class="cls-21" d="M485.65,545.09,420.92,476c21.79-7.21,31.9-12.61,49.62-20.74l66.07,70.25C516.67,532.27,503.8,537.2,485.65,545.09Z"/><path class="cls-10" d="M428.44,479.31l1-.24a4.6,4.6,0,0,0,2.94-1.68c.36-.68,0-1.41-1-2.11l-.7-.46,1.06-.32a214.6,214.6,0,0,0,31.84-12.3l.75-.36.45.42a6.14,6.14,0,0,0,6.38.7l.75-.31.4.41,55.17,57.32-.84.27a4.27,4.27,0,0,0-2.6,1.68,1.74,1.74,0,0,0,.64,2.17l.54.46-.95.29a234.57,234.57,0,0,0-31.86,12.3l-.71.33-.46-.38a6,6,0,0,0-6.35-.73l-.77.35-.42-.44Zm5.73-2.45a1.84,1.84,0,0,1-.21.71,5.45,5.45,0,0,1-3.12,2.12l53.89,56a8.71,8.71,0,0,1,3.34-.51,8.16,8.16,0,0,1,4.05,1.3,239.43,239.43,0,0,1,30.63-11.84,2.21,2.21,0,0,1-.34-2.49,5,5,0,0,1,2.73-2.07l-54-56.06a8.66,8.66,0,0,1-7.37-.76,217.05,217.05,0,0,1-30.51,11.79A2.16,2.16,0,0,1,434.17,476.86Z"/><path class="cls-10" d="M453.58,496.12c.51-4,4.3-8.06,10.63-10.55,9.81-3.86,22.06-2.54,27.3,2.94s1.51,13.08-8.31,16.94h0c-9.82,3.86-22.06,2.54-27.3-2.94A7.7,7.7,0,0,1,453.58,496.12Z"/><path class="cls-10" d="M483.6,520.11c-.18-.19.08-.52.42-.66a1.54,1.54,0,0,1,.92-.06,14.9,14.9,0,0,1,3.07.67.49.49,0,0,1,.32.32c0,.17-.08.36-.38.48L485,522l-5.92,2.32a1,1,0,0,1-1.1-.16c-.21-.22-.14-.51.39-.71,1.19-.47,3.45-1.32,5.49-2.12l1.92-.75c-.71-.1-1.28-.19-1.77-.29A.69.69,0,0,1,483.6,520.11Z"/><path class="cls-10" d="M491.77,523.83c1.22,1.27-.18,2.84-3.29,4.06s-6,1.07-7,0-.13-2.75,2.78-3.89S490.39,522.38,491.77,523.83Zm-6.58.92c-1.73.68-2.94,1.73-2.23,2.48s2.5.72,4.68-.13c2-.79,3.39-1.89,2.62-2.69C489.34,523.45,487,524,485.19,524.75Z"/><path class="cls-10" d="M496.38,528.65c1.22,1.27-.18,2.84-3.29,4.06s-5.95,1.07-7,0-.12-2.74,2.79-3.89S495,527.21,496.38,528.65Zm-6.58.92c-1.73.68-2.94,1.73-2.23,2.48s2.5.73,4.68-.13c2-.78,3.39-1.88,2.62-2.69C494,528.27,491.62,528.86,489.8,529.57Z"/><path class="cls-21" d="M466.11,498.25a3.79,3.79,0,0,1-1.33-3l1.89,0a3.06,3.06,0,0,0,1.28,2.74,4,4,0,0,0,4.15.51c3.47-1.55-2.17-5,2-6.86a6.9,6.9,0,0,1,6.1.37l2.16-1,1.05.82-2.12.94a2.6,2.6,0,0,1,.86,2.65l-1.82-.12a2,2,0,0,0-.92-2.2,3.79,3.79,0,0,0-3.8-.43c-3.11,1.39,2.63,4.78-2,6.84a7.11,7.11,0,0,1-6.45-.43L465,500,464,499.2Z"/><ellipse class="cls-42" cx="475.01" cy="441.69" rx="31.66" ry="17.91"/><path class="cls-9" d="M502.64,433.91a24.68,24.68,0,0,1-1,7.57c-1.18,4.12-4.91,8-11,10.91-13.47,6.31-33.43,5.25-44.58-2.37-5.19-3.55-7.55-7.89-7.24-12.16,0-.4.36-5.7.36-5.7a13.32,13.32,0,0,1,2.43-4.32,22.79,22.79,0,0,1,9.25-7.22c13.47-6.31,33.43-5.25,44.57,2.36C500.08,426.19,502.45,430.05,502.64,433.91Z"/><ellipse class="cls-21" cx="470.73" cy="432.97" rx="31.66" ry="17.91"/><ellipse class="cls-10" cx="470.73" cy="432.97" rx="23.19" ry="13.12"/><path class="cls-43" d="M457.39,436.17c-1.59-1.33-2.89-3.2-2.91-4.88l5.28-.31a5.53,5.53,0,0,0,2.49,3.9,4.48,4.48,0,0,0,4.81.53c3.43-1.7-4.81-7.11,1.19-10.08a12.79,12.79,0,0,1,10.88.09l3.43-1.7,3,2-3.36,1.66a4.82,4.82,0,0,1,1.88,4.43l-5.09-.14a3.34,3.34,0,0,0-1.71-3.07,4.14,4.14,0,0,0-4.43-.47c-3.16,1.56,5.28,6.87-1.09,10a13.2,13.2,0,0,1-11.23-.05l-3.47,1.71-3-2Z"/><path class="cls-9" d="M503.32,423.22a24.74,24.74,0,0,1-1,7.57c-1.19,4.12-4.91,8-11.05,10.91C477.8,448,457.85,447,446.7,439.33c-5.2-3.55-7.56-7.9-7.24-12.17,0-.4.36-5.7.36-5.7a13.33,13.33,0,0,1,2.42-4.31,22.82,22.82,0,0,1,9.26-7.23c13.47-6.31,33.42-5.25,44.57,2.37C500.77,415.5,503.14,419.36,503.32,423.22Z"/><ellipse class="cls-21" cx="471.42" cy="422.27" rx="31.66" ry="17.91"/><path class="cls-10" d="M489.28,413.91c-8.17-5.58-22.78-6.36-32.65-1.74s-11.24,12.89-3.07,18.47,22.78,6.36,32.64,1.74S497.44,419.49,489.28,413.91Z"/><path class="cls-43" d="M458.08,425.48c-1.59-1.33-2.89-3.21-2.92-4.88l5.29-.32a5.5,5.5,0,0,0,2.49,3.91,4.5,4.5,0,0,0,4.81.53c3.43-1.7-4.81-7.11,1.19-10.08a12.77,12.77,0,0,1,10.87.08l3.44-1.7,3,2-3.37,1.67a4.8,4.8,0,0,1,1.88,4.42l-5.09-.14A3.34,3.34,0,0,0,478,417.9a4.14,4.14,0,0,0-4.42-.47c-3.17,1.57,5.27,6.88-1.1,10a13.16,13.16,0,0,1-11.23,0l-3.46,1.72-3-2Z"/><path class="cls-9" d="M504.17,410.06a24.66,24.66,0,0,1-1,7.56c-1.18,4.13-4.91,8-11,10.92-13.47,6.31-33.43,5.25-44.58-2.37-5.19-3.55-7.56-7.9-7.24-12.17-.05-.4.36-5.7.36-5.7a13.18,13.18,0,0,1,2.43-4.31,22.72,22.72,0,0,1,9.25-7.23c13.47-6.31,33.43-5.25,44.57,2.37C501.61,402.34,504,406.19,504.17,410.06Z"/><ellipse class="cls-21" cx="472.26" cy="409.11" rx="31.66" ry="17.91"/><path class="cls-10" d="M490.12,400.75c-8.16-5.58-22.78-6.36-32.64-1.74s-11.25,12.89-3.08,18.47,22.78,6.36,32.64,1.73S498.29,406.32,490.12,400.75Z"/><path class="cls-44" d="M463,410.12a4.94,4.94,0,0,1-2-3.31l3.58-.21a3.72,3.72,0,0,0,1.69,2.65,3.06,3.06,0,0,0,3.26.36c2.33-1.15-3.26-4.82.81-6.84a8.7,8.7,0,0,1,7.38.06l2.32-1.15,2,1.35-2.28,1.13a3.26,3.26,0,0,1,1.27,3l-3.45-.09a2.26,2.26,0,0,0-1.16-2.08,2.78,2.78,0,0,0-3-.32c-2.15,1.06,3.58,4.66-.74,6.8a8.94,8.94,0,0,1-7.62,0l-2.35,1.17-2-1.36Z"/><ellipse class="cls-42" cx="438.61" cy="471.24" rx="31.66" ry="17.91"/><path class="cls-9" d="M462.38,464.41a25,25,0,0,1-1,7.56c-1.19,4.13-4.92,8-11.05,10.91-13.47,6.31-33.43,5.25-44.58-2.36-5.19-3.55-7.55-7.9-7.24-12.17-.05-.4.36-5.7.36-5.7a13.32,13.32,0,0,1,2.43-4.32,22.79,22.79,0,0,1,9.25-7.22c13.47-6.31,33.43-5.25,44.58,2.36C459.82,456.68,462.2,460.54,462.38,464.41Z"/><ellipse class="cls-21" cx="430.47" cy="463.46" rx="31.66" ry="17.91"/><ellipse class="cls-10" cx="430.47" cy="463.46" rx="23.19" ry="13.12"/><path class="cls-44" d="M421.54,466.44a4.92,4.92,0,0,1-2-3.31l3.58-.21a3.72,3.72,0,0,0,1.69,2.65,3,3,0,0,0,3.26.36c2.33-1.15-3.26-4.82.81-6.83a8.64,8.64,0,0,1,7.37,0l2.33-1.15,2,1.36-2.28,1.13a3.24,3.24,0,0,1,1.27,3l-3.45-.1a2.27,2.27,0,0,0-1.16-2.08,2.82,2.82,0,0,0-3-.32c-2.15,1.06,3.57,4.66-.74,6.8a9,9,0,0,1-7.62,0l-2.35,1.16-2-1.36Z"/><path class="cls-10" d="M511.83,248.89l2.44-14c.37-2.11-1.16-4.86-3.41-6.14L344.8,134.69c-2.26-1.28-4.38-.6-4.75,1.52l-2.46,14.08Z"/><path class="cls-45" d="M354.05,149.71a2.89,2.89,0,0,1-4.16,2.21,4.88,4.88,0,0,1-2.64-5.23,2.9,2.9,0,0,1,4.16-2.22A4.9,4.9,0,0,1,354.05,149.71Z"/><path class="cls-46" d="M364.77,155.9a2.89,2.89,0,0,1-4.16,2.21,4.88,4.88,0,0,1-2.65-5.23,2.9,2.9,0,0,1,4.16-2.22A4.9,4.9,0,0,1,364.77,155.9Z"/><path class="cls-47" d="M375.48,162.09a2.89,2.89,0,0,1-4.16,2.21,4.88,4.88,0,0,1-2.64-5.23,2.9,2.9,0,0,1,4.16-2.22A4.9,4.9,0,0,1,375.48,162.09Z"/><line class="cls-48" x1="343.13" y1="165.34" x2="368.83" y2="180.16"/><polygon class="cls-49" points="417.32 226.95 443.01 241.77 445.92 224.63 420.22 209.81 417.32 226.95"/><polygon class="cls-49" points="391.62 212.13 417.32 226.95 420.22 209.81 394.52 194.99 391.62 212.13"/><polygon class="cls-49" points="340.23 182.49 365.93 197.31 368.83 180.16 343.13 165.34 340.23 182.49"/><line class="cls-49" x1="443.02" y1="241.77" x2="440.12" y2="258.91"/><polygon class="cls-49" points="388.72 229.27 414.42 244.09 417.32 226.95 391.62 212.13 388.72 229.27"/><polygon class="cls-49" points="363.03 214.45 388.72 229.27 391.62 212.13 365.93 197.31 363.03 214.45"/><polygon class="cls-49" points="337.33 199.63 363.03 214.45 365.93 197.31 340.23 182.49 337.33 199.63"/><line class="cls-48" x1="440.12" y1="258.91" x2="437.22" y2="276.06"/><polygon class="cls-49" points="411.52 261.24 437.22 276.06 440.12 258.91 414.42 244.09 411.52 261.24"/><polygon class="cls-49" points="385.82 246.41 411.52 261.24 414.42 244.09 388.72 229.27 385.82 246.41"/><polygon class="cls-49" points="360.13 231.59 385.82 246.41 388.72 229.27 363.03 214.45 360.13 231.59"/><polygon class="cls-49" points="334.43 216.77 360.13 231.59 363.03 214.45 337.33 199.63 334.43 216.77"/><line class="cls-49" x1="368.83" y1="180.16" x2="394.52" y2="194.98"/><polygon class="cls-50" points="364.65 228.22 389.54 225.52 413.97 234 438.76 225.7 438.79 229.24 413.6 237.97 388.72 229.27 364.03 231.72 364.65 228.22"/><polygon class="cls-50" points="433.77 222.75 444.24 225.87 437.77 234.04 433.77 222.75"/><path class="cls-50" d="M432.9,284.92l-6.45-3.9a2,2,0,0,1-.81-1.94h0c.13-.72.71-1,1.28-.69l6.45,3.91a2,2,0,0,1,.8,1.93h0C434.05,285,433.47,285.26,432.9,284.92Z"/><path class="cls-50" d="M412.85,272.71l-6.46-3.9a2,2,0,0,1-.8-1.94h0c.13-.72.7-1,1.27-.68l6.45,3.9a2,2,0,0,1,.81,1.94h0C414,272.75,413.42,273.06,412.85,272.71Z"/><path class="cls-50" d="M387,258.38l-6.46-3.9a2,2,0,0,1-.8-1.94h0c.13-.72.7-1,1.27-.68l6.45,3.9a2,2,0,0,1,.81,1.94h0C388.09,258.42,387.52,258.73,387,258.38Z"/><path class="cls-50" d="M361.68,243.73l-6.45-3.9a2,2,0,0,1-.8-1.94h0c.12-.73.7-1,1.27-.69l6.45,3.9A2,2,0,0,1,363,243h0C362.83,243.76,362.25,244.07,361.68,243.73Z"/><path class="cls-50" d="M338.84,231l-6.45-3.9a2,2,0,0,1-.81-1.94h0c.13-.72.7-1,1.27-.69l6.46,3.91a2,2,0,0,1,.8,1.93h0C340,231,339.41,231.3,338.84,231Z"/><path class="cls-46" d="M496.93,286.11a38.68,38.68,0,0,1-13.62-3.38c-2.93-1.46-11.62,3.92-18.07-.13-11.69-7.32-13.67-4.82-19.21-5.19L445.4,280l48.11,26.93Z"/><path class="cls-51" d="M493.47,307.14c.08.09.16.1.17,0l3.55-21.55a.42.42,0,0,0-.13-.28c-.09-.09-.16-.1-.17,0l-3.55,21.55A.34.34,0,0,0,493.47,307.14Z"/><path class="cls-51" d="M481.53,300.19c.08.09.16.1.17,0l3.55-21.55a.46.46,0,0,0-.13-.29c-.09-.08-.16-.1-.17,0l-3.56,21.56A.41.41,0,0,0,481.53,300.19Z"/><path class="cls-51" d="M469.54,293.51c.08.08.16.1.17,0L473.26,272a.36.36,0,0,0-.13-.28c-.08-.09-.16-.1-.17,0l-3.55,21.55A.46.46,0,0,0,469.54,293.51Z"/><path class="cls-51" d="M457.56,286.82c.08.08.16.1.17,0l3.55-21.56a.44.44,0,0,0-.13-.28c-.09-.09-.16-.1-.17,0l-3.55,21.55A.38.38,0,0,0,457.56,286.82Z"/><path class="cls-51" d="M445.4,280c.08.09.16.1.17,0l3.55-21.55a.38.38,0,0,0-.13-.28c-.08-.09-.16-.1-.17,0l-3.55,21.55A.42.42,0,0,0,445.4,280Z"/><path class="cls-10" d="M449.57,256.8l1.59.81a.25.25,0,0,0,.38-.17h0a.51.51,0,0,0-.27-.5l-1.59-.81a.25.25,0,0,0-.38.17h0A.52.52,0,0,0,449.57,256.8Z"/><path class="cls-10" d="M461.66,264l1.6.81a.24.24,0,0,0,.37-.16h0a.52.52,0,0,0-.26-.5l-1.6-.81a.24.24,0,0,0-.37.17h0A.51.51,0,0,0,461.66,264Z"/><path class="cls-10" d="M473.5,271l1.6.81a.24.24,0,0,0,.37-.17h0a.51.51,0,0,0-.26-.49l-1.6-.81a.24.24,0,0,0-.37.17h0A.51.51,0,0,0,473.5,271Z"/><path class="cls-10" d="M485.52,278l1.59.81a.24.24,0,0,0,.38-.17h0a.5.5,0,0,0-.27-.49l-1.59-.81a.24.24,0,0,0-.37.17h0A.51.51,0,0,0,485.52,278Z"/><path class="cls-10" d="M497.38,284.79l1.6.81a.24.24,0,0,0,.37-.17h0a.52.52,0,0,0-.26-.5l-1.6-.81a.24.24,0,0,0-.37.17h0A.52.52,0,0,0,497.38,284.79Z"/><path class="cls-10" d="M445.57,282l1.59.81h0l1.19.6a.52.52,0,0,1,.26.5.24.24,0,0,1-.37.17l-1.6-.81h0l-1.18-.6a.52.52,0,0,1-.27-.5A.25.25,0,0,1,445.57,282Z"/><path class="cls-10" d="M471,295.92l1.59.81h0l1.19.6a.52.52,0,0,1,.26.5.24.24,0,0,1-.37.17l-1.6-.81h0l-1.18-.6a.52.52,0,0,1-.27-.5A.25.25,0,0,1,471,295.92Z"/><path class="cls-10" d="M457.86,288.78l1.59.81h0l1.19.6a.52.52,0,0,1,.26.5.24.24,0,0,1-.37.17l-1.6-.81h0l-1.18-.6a.52.52,0,0,1-.27-.5A.25.25,0,0,1,457.86,288.78Z"/><path class="cls-10" d="M482.61,302.3l1.6.81h0l1.18.6a.51.51,0,0,1,.27.5.25.25,0,0,1-.38.17l-1.59-.81h0L482.5,303a.5.5,0,0,1-.26-.49A.24.24,0,0,1,482.61,302.3Z"/><path class="cls-52" d="M472.47,184.83l72.37,39.84a6.28,6.28,0,0,1,2.74,6.31l-8.77,46.82"/><path class="cls-47" d="M538.59,226.26l.86.47A6.29,6.29,0,0,1,542.2,233l-8.77,46.83c-.45,2.39-2.42,3.47-4.38,2.39l-72.37-39.84a6.3,6.3,0,0,1-2.75-6.32l8.77-46.82c.45-2.39,2.42-3.47,4.38-2.39L534,223.73Z"/><path class="cls-10" d="M516.92,256.46l10.71,5.9a1.39,1.39,0,0,0,2.09-1.15h0a3,3,0,0,0-1.31-3L517.7,252.3a1.39,1.39,0,0,0-2.1,1.14h0A3,3,0,0,0,516.92,256.46Z"/><path class="cls-10" d="M498.81,246.49l10.71,5.9a1.39,1.39,0,0,0,2.09-1.14h0a3,3,0,0,0-1.31-3l-10.71-5.9a1.38,1.38,0,0,0-2.09,1.14h0A3,3,0,0,0,498.81,246.49Z"/><path class="cls-10" d="M480.7,236.53l10.71,5.89a1.39,1.39,0,0,0,2.1-1.14h0a3,3,0,0,0-1.32-3l-10.71-5.9a1.39,1.39,0,0,0-2.09,1.15h0A3,3,0,0,0,480.7,236.53Z"/><path class="cls-10" d="M520.79,228.18l12.3,6.77a1.14,1.14,0,0,0,1.73-.94h0a2.49,2.49,0,0,0-1.08-2.48l-12.31-6.77a1.14,1.14,0,0,0-1.73.94h0A2.49,2.49,0,0,0,520.79,228.18Z"/><path class="cls-45" d="M518.39,246.05,529,251.88c1.25.69,2.5,0,2.78-1.52l.41-2.15a4,4,0,0,0-1.75-4l-10.58-5.83c-1.25-.69-2.5,0-2.78,1.52l-.41,2.15A4,4,0,0,0,518.39,246.05Z"/><path class="cls-10" d="M493.25,254.34l32.24,17.75a.92.92,0,0,0,1.39-.76h0a2,2,0,0,0-.87-2l-32.24-17.74a.92.92,0,0,0-1.39.75h0A2,2,0,0,0,493.25,254.34Z"/><path class="cls-10" d="M462.6,226.56l10.7,5.89a1.39,1.39,0,0,0,2.1-1.14h0a3,3,0,0,0-1.32-3l-10.7-5.89a1.39,1.39,0,0,0-2.1,1.14h0A3,3,0,0,0,462.6,226.56Z"/><path class="cls-10" d="M466.24,197.06a8.37,8.37,0,0,0,4.14,8.24c2.84,1.56,5.6.41,6.16-2.57a8.43,8.43,0,0,0-4.14-8.25C469.56,192.92,466.8,194.07,466.24,197.06Z"/><path class="cls-34" d="M334.82,203.29l-5.89,21.54a2.22,2.22,0,0,1-3.94.71l-14.6-20.36Z"/><path class="cls-50" d="M285.12,192.37l30.11,17c11.85,6.71,25.31-2.79,24.24-17.09l-.11-1.42a19.85,19.85,0,0,0-9.69-15.77l-33-18.68c-11.46-6.5-24.5,2.69-23.46,16.54h0A24.36,24.36,0,0,0,285.12,192.37Z"/><path class="cls-10" d="M316.36,188c-.18,3.32,1.79,7.2,4.39,8.68s4.86,0,5-3.34-1.8-7.21-4.4-8.68S316.53,184.71,316.36,188Z"/><path class="cls-10" d="M300.89,179.87c-.17,3.32,1.8,7.2,4.4,8.67s4.85,0,5-3.34-1.8-7.2-4.4-8.68S301.06,176.55,300.89,179.87Z"/><path class="cls-10" d="M286.91,172.58c-.17,3.32,1.8,7.2,4.4,8.68s4.85,0,5-3.35-1.8-7.2-4.4-8.67S287.08,169.26,286.91,172.58Z"/><path class="cls-53" d="M341,206.37a19,19,0,0,0,5.11-14.1l-.06-1.46a20.3,20.3,0,0,0-9.33-16.49L303.65,154"/></g></g></g></svg>