<svg viewBox="0 0 464 464" xmlns="http://www.w3.org/2000/svg"><path d="m440 152h16v-104c0-8.835938-7.164062-16-16-16h-24v16h24zm0 0" fill="#1cc8eb"/><path d="m80 0h232c4.417969 0 8 3.582031 8 8v448c0 4.417969-3.582031 8-8 8h-304c-4.417969 0-8-3.582031-8-8v-376zm0 0" fill="#c9dfff"/><path d="m56 304h160v40h-160zm0 0" fill="#f0be59"/><path d="m32 344h160v40h-160zm0 0" fill="#ffb41f"/><path d="m56 384h160v40h-160zm0 0" fill="#f0be59"/><path d="m32 424h160v40h-160zm0 0" fill="#ffb41f"/><path d="m368 8v24h32v-24c0-4.417969-3.582031-8-8-8h-16c-4.417969 0-8 3.582031-8 8zm0 0" fill="#1cc8eb"/><path d="m80 72v-72l-80 80h72c4.417969 0 8-3.582031 8-8zm0 0" fill="#1cc8eb"/><path d="m240 232c0 39.765625-32.234375 72-72 72s-72-32.234375-72-72 32.234375-72 72-72 72 32.234375 72 72zm0 0" fill="#ffb41f"/><path d="m360 32h56v160h-64v-152c0-4.417969 3.582031-8 8-8zm0 0" fill="#c9dfff"/><path d="m192.183594 164.246094c30.207031 20.214844 40.59375 59.78125 24.214844 92.226562-16.378907 32.445313-54.382813 47.582032-88.582032 35.28125 23.125 15.648438 53.210938 16.519532 77.203125 2.234375 23.988281-14.289062 37.554688-41.160156 34.804688-68.949219-2.746094-27.789062-21.316407-51.480468-47.640625-60.792968zm0 0" fill="#d4951a"/><path d="m176 184h-16v9.472656c-11.011719 3.878906-17.621094 15.132813-15.644531 26.640625 1.980469 11.507813 11.96875 19.910157 23.644531 19.886719 4.417969 0 8 3.582031 8 8s-3.582031 8-8 8h-24v16h16v8h16v-9.472656c11.011719-3.878906 17.621094-15.132813 15.644531-26.640625-1.980469-11.507813-11.96875-19.910157-23.644531-19.886719-4.417969 0-8-3.582031-8-8s3.582031-8 8-8h24v-16h-16zm0 0" fill="#f0cf8e"/><path d="m120 56h120c4.417969 0 8 3.582031 8 8s-3.582031 8-8 8h-120c-4.417969 0-8-3.582031-8-8s3.582031-8 8-8zm0 0" fill="#8c8c8c"/><path d="m32 104h256c4.417969 0 8 3.582031 8 8s-3.582031 8-8 8h-256c-4.417969 0-8-3.582031-8-8s3.582031-8 8-8zm0 0" fill="#8c8c8c"/><path d="m32 136h80c4.417969 0 8 3.582031 8 8s-3.582031 8-8 8h-80c-4.417969 0-8-3.582031-8-8s3.582031-8 8-8zm0 0" fill="#8c8c8c"/><path d="m232 136h56c4.417969 0 8 3.582031 8 8s-3.582031 8-8 8h-56c-4.417969 0-8-3.582031-8-8s3.582031-8 8-8zm0 0" fill="#8c8c8c"/><path d="m320 192h-43c-9.390625-.003906-17.003906 7.609375-17 17v238c-.003906 9.390625 7.609375 17.003906 17 17h43zm0 0" fill="#bbcfed"/><path d="m448 208h-160c-8.835938 0-16 7.164062-16 16v224c0 8.835938 7.164062 16 16 16h160c8.835938 0 16-7.164062 16-16v-224c0-8.835938-7.164062-16-16-16zm-144 32h128v32h-128zm0 0" fill="#ebebeb"/><path d="m304 240h128v32h-128zm0 0" fill="#1cc8eb"/><path d="m464 296h-192v16h88v64h-88v16h88v72h16v-72h88v-16h-88v-64h88zm0 0" fill="#ffb41f"/><g fill="#8c8c8c"><path d="m312 320v16h-16v16h16v16h16v-16h16v-16h-16v-16zm0 0"/><path d="m392 336h48v16h-48zm0 0"/><path d="m331.3125 402.34375-11.3125 11.3125-11.3125-11.3125-11.3125 11.3125 11.3125 11.3125-11.3125 11.3125 11.3125 11.3125 11.3125-11.3125 11.3125 11.3125 11.3125-11.3125-11.3125-11.3125 11.3125-11.3125zm0 0"/><path d="m392 416h48v16h-48zm0 0"/><path d="m408 436h16v8h-16zm0 0"/><path d="m408 404h16v8h-16zm0 0"/></g></svg>