<?xml version="1.0" encoding="iso-8859-1"?>
<!-- Generator: Adobe Illustrator 19.0.0, SVG Export Plug-In . SVG Version: 6.00 Build 0)  -->
<svg version="1.1" id="Capa_1" xmlns="http://www.w3.org/2000/svg" xmlns:xlink="http://www.w3.org/1999/xlink" x="0px" y="0px"
	 viewBox="0 0 381.539 381.539" style="enable-background:new 0 0 381.539 381.539;" xml:space="preserve">
<g>
	<g>
		<path d="M370.4,95.863c-5.2-5.2-12-8.8-20-10.8l-228.8-60.8c-7.6-2-15.6-2.4-22.4-0.8c-9.6,2.4-22.4,9.2-28,29.6l-3.6,13.2
			l-11.2,41.6l-12.8,47.6h-2.4c-20,0-41.2,10.8-41.2,41.2v121.2c0,30.4,21.2,41.2,41.2,41.2h237.2c20,0,41.2-10.8,41.2-41.2v-35.2
			c10-2,22.8-9.2,28.4-30l19.2-71.6l8.8-32.4l3.6-13.2C385.2,115.063,377.6,102.663,370.4,95.863z M68.8,118.663l138.8,36.8H58.8
			L68.8,118.663z M306,317.863h-0.4c0,23.2-16.8,26.8-26.8,26.8H42c-10,0-26.8-3.6-26.8-26.8v-121.6c0-23.2,16.8-26.8,26.8-26.8
			h237.2c10,0,26.8,3.6,26.8,26.8V317.863z M334.8,249.063c-2.8,10-7.6,16-14.8,18.8v-71.6c0-4.4-0.4-8-1.2-11.6l30.8,8
			L334.8,249.063z M354,175.463l-1.2,4l-42.8-11.2c-8-8.8-20-12.4-31.2-12.4h-15.6l-190.8-51.2l7.2-27.6l280.8,74.4L354,175.463z
			 M366,131.463l-1.6,6l-280.8-74.4l1.6-6c2.8-11.2,8.4-17.6,17.2-19.6c3.2-0.8,8.4-1.2,15.6,0.4l229.2,60.8
			c6.8,2,11.2,4.8,13.6,7.2C367.2,111.863,369.2,120.263,366,131.463z"/>
	</g>
</g>
<g>
	<g>
		<path d="M130.4,186.263H58.8c-10.4,0-17.6,6.4-17.6,16.4v33.2c0,9.6,7.2,16,17.6,16h71.6c10.4,0,17.6-6.4,17.6-16.4v-32.8
			C148,193.063,141.2,186.263,130.4,186.263z M133.6,235.863c0,1.2,0,2-3.2,2H58.8c-3.2,0-3.2-0.8-3.2-2v-33.2c0-1.2,0-2,3.2-2h71.6
			c3.2,0,3.2,0.8,3.2,2V235.863z"/>
	</g>
</g>
<g>
	<g>
		<path d="M280.8,281.463H40c-4,0-7.2,3.2-7.2,7.2s3.2,7.2,7.2,7.2h240.8c4,0,7.2-3.2,7.2-7.2S284.8,281.463,280.8,281.463z"/>
	</g>
</g>
<g>
	<g>
		<path d="M67.2,305.863H40c-4,0-7.2,3.2-7.2,7.2s3.2,7.2,7.2,7.2h27.2c4,0,7.2-3.2,7.2-7.2S71.2,305.863,67.2,305.863z"/>
	</g>
</g>
<g>
	<g>
		<path d="M154.4,305.863H94.8c-4,0-7.2,3.2-7.2,7.2s3.2,7.2,7.2,7.2h59.6c4,0,7.2-3.2,7.2-7.2S158,305.863,154.4,305.863z"/>
	</g>
</g>
<g>
</g>
<g>
</g>
<g>
</g>
<g>
</g>
<g>
</g>
<g>
</g>
<g>
</g>
<g>
</g>
<g>
</g>
<g>
</g>
<g>
</g>
<g>
</g>
<g>
</g>
<g>
</g>
<g>
</g>
</svg>
