<svg xmlns="http://www.w3.org/2000/svg" xmlns:xlink="http://www.w3.org/1999/xlink" viewBox="0 0 931.53 789.68"><defs><style>.cls-1{isolation:isolate;}.cls-14,.cls-2{fill:#a8c4e5;mix-blend-mode:multiply;}.cls-2{opacity:0.4;}.cls-3{fill:#1f3b82;}.cls-4{fill:#363656;}.cls-5{fill:url(#linear-gradient);}.cls-25,.cls-6{fill:#fff;}.cls-7{fill:#35b151;}.cls-8{fill:url(#linear-gradient-2);}.cls-9{fill:url(#linear-gradient-3);}.cls-10{fill:url(#linear-gradient-4);}.cls-11{fill:#2c4482;}.cls-12{fill:#dcf1ff;}.cls-13{fill:#269e3d;}.cls-14{opacity:0.52;}.cls-15{fill:#29479c;}.cls-16{fill:#e3f2ff;opacity:0.65;}.cls-17{fill:#4367c7;}.cls-18{fill:#527ded;}.cls-19{fill:#bad0e6;}.cls-20{fill:#3c5cb3;}.cls-21{fill:#3965b8;}.cls-22{fill:#5986ff;}.cls-23{fill:#abcfff;}.cls-24{fill:#ffc2b0;}.cls-25{opacity:0.46;}.cls-26{fill:#513554;}.cls-27{fill:#fcfeff;}.cls-28{fill:#dcefff;}.cls-29{fill:#e5f2ff;}.cls-30{fill:#ffe46e;}.cls-31,.cls-36{fill:none;}.cls-31{stroke:#29479c;stroke-linecap:round;stroke-linejoin:round;stroke-width:3.14px;}.cls-32{fill:url(#linear-gradient-5);}.cls-33{fill:url(#linear-gradient-6);}.cls-34{fill:url(#linear-gradient-7);}.cls-35{fill:url(#linear-gradient-8);}.cls-36{stroke:#dea749;stroke-miterlimit:10;stroke-width:1.15px;}.cls-37{fill:#c99334;}.cls-38{fill:url(#linear-gradient-9);}.cls-39{fill:url(#linear-gradient-10);}.cls-40{fill:url(#linear-gradient-11);}.cls-41{fill:url(#linear-gradient-12);}</style><linearGradient id="linear-gradient" y1="517.18" x2="268.93" y2="517.18" gradientUnits="userSpaceOnUse"><stop offset="0" stop-color="#4f80e3"/><stop offset="0.21" stop-color="#4c7cde"/><stop offset="0.46" stop-color="#4470cf"/><stop offset="0.73" stop-color="#375cb6"/><stop offset="0.96" stop-color="#29479c"/></linearGradient><linearGradient id="linear-gradient-2" x1="185.29" y1="420.95" x2="925.19" y2="420.95" gradientUnits="userSpaceOnUse"><stop offset="0" stop-color="#4f80e3"/><stop offset="0.31" stop-color="#406ac8"/><stop offset="0.73" stop-color="#2f51a8"/><stop offset="0.96" stop-color="#29479c"/></linearGradient><linearGradient id="linear-gradient-3" x1="185.29" y1="394.74" x2="925.19" y2="394.74" gradientUnits="userSpaceOnUse"><stop offset="0" stop-color="#e5f2ff"/><stop offset="0.36" stop-color="#e2f0fe"/><stop offset="0.6" stop-color="#d9e8fa"/><stop offset="0.82" stop-color="#cadaf5"/><stop offset="1" stop-color="#b6c9ed"/></linearGradient><linearGradient id="linear-gradient-4" x1="405.12" y1="272.53" x2="895.45" y2="272.53" gradientUnits="userSpaceOnUse"><stop offset="0.11" stop-color="#4f80e3"/><stop offset="1" stop-color="#436dc2"/></linearGradient><linearGradient id="linear-gradient-5" x1="262.23" y1="625.42" x2="372.58" y2="625.42" gradientUnits="userSpaceOnUse"><stop offset="0" stop-color="#deb949"/><stop offset="0" stop-color="#deb849"/><stop offset="0.03" stop-color="#dea749"/><stop offset="0.06" stop-color="#de9c49"/><stop offset="0.11" stop-color="#de9549"/><stop offset="0.24" stop-color="#de9349"/><stop offset="0.84" stop-color="#bd732b"/></linearGradient><linearGradient id="linear-gradient-6" x1="262.23" y1="610.8" x2="372.58" y2="610.8" xlink:href="#linear-gradient-5"/><linearGradient id="linear-gradient-7" x1="262.23" y1="593.41" x2="372.58" y2="593.41" xlink:href="#linear-gradient-5"/><linearGradient id="linear-gradient-8" x1="279.2" y1="586.5" x2="355.59" y2="586.5" gradientUnits="userSpaceOnUse"><stop offset="0.17" stop-color="#deb949"/><stop offset="0.88" stop-color="#de9349"/></linearGradient><linearGradient id="linear-gradient-9" x1="293.35" y1="586.44" x2="340.85" y2="586.44" xlink:href="#linear-gradient-5"/><linearGradient id="linear-gradient-10" x1="161.56" y1="672.6" x2="271.9" y2="672.6" xlink:href="#linear-gradient-5"/><linearGradient id="linear-gradient-11" x1="178.53" y1="665.69" x2="254.92" y2="665.69" xlink:href="#linear-gradient-8"/><linearGradient id="linear-gradient-12" x1="192.67" y1="665.63" x2="240.18" y2="665.63" xlink:href="#linear-gradient-5"/></defs><title>cost-of-renting</title><g class="cls-1"><g id="Layer_2" data-name="Layer 2"><g id="image"><path class="cls-2" d="M299,551.75l-125.7-72.57a6,6,0,0,0-5.4.22l-12.51,7.23a2.06,2.06,0,0,0-.26.12l-126.41,73c-1.6.93-1.77,2.32-.39,3.12l125.7,72.57a6,6,0,0,0,5.4-.22L172,628l.27-.13,126.4-73C300.24,554,300.41,552.55,299,551.75Z"/><rect class="cls-3" y="532.4" width="20.46" height="12.61"/><rect class="cls-4" x="239.31" y="531.2" width="20.46" height="12.61"/><path class="cls-3" d="M256,492.11v0l-107.42-62a4.69,4.69,0,0,0-6.82,2.65l-8.86,28.07,18.59,9v0L259.53,544.4l13.4-38.25a4.69,4.69,0,0,0-2.13-5.47Z"/><path class="cls-3" d="M126.64,618.59.93,546c-1.38-.8-1.21-2.19.39-3.12l126.41-73a6,6,0,0,1,5.4-.22l125.7,72.57c1.39.8,1.21,2.2-.39,3.12l-126.4,73A6,6,0,0,1,126.64,618.59Z"/><path class="cls-5" d="M266.59,498.23l-14.85-8.57v0l-107.42-62a4.69,4.69,0,0,0-6.82,2.66l-8.66,27.44a5.6,5.6,0,0,0-1.12.46l-126.41,73c-1.6.92-1.77,2.31-.39,3.11l125.71,72.58a6,6,0,0,0,5.4-.23l126.4-73a2.52,2.52,0,0,0,1.25-1.38l0,0,9-28.57A4.71,4.71,0,0,0,266.59,498.23Z"/><path class="cls-6" d="M127.57,487.81l-15.86-9.16c-1.14-.66-1-1.81.32-2.58l13.23-7.63a5,5,0,0,1,4.47-.19l15.85,9.15c1.15.67,1,1.82-.32,2.59L132,487.62A5,5,0,0,1,127.57,487.81Z"/><path class="cls-6" d="M159.83,506.43,144,497.28c-1.15-.66-1-1.82.32-2.58l13.22-7.63a5,5,0,0,1,4.48-.19L177.85,496c1.14.66,1,1.82-.32,2.59l-13.23,7.63A5,5,0,0,1,159.83,506.43Z"/><path class="cls-6" d="M192.1,525.06l-15.86-9.15c-1.14-.66-1-1.82.32-2.58l13.23-7.64a5,5,0,0,1,4.47-.18l15.85,9.15c1.15.66,1,1.82-.32,2.58l-13.22,7.64A5,5,0,0,1,192.1,525.06Z"/><path class="cls-6" d="M224.36,543.69l-15.85-9.15c-1.15-.66-1-1.82.32-2.58l13.22-7.64a5,5,0,0,1,4.48-.18l15.85,9.15c1.14.66,1,1.82-.32,2.58l-13.23,7.64A5,5,0,0,1,224.36,543.69Z"/><path class="cls-6" d="M97.4,505.22l-15.85-9.15c-1.14-.66-1-1.82.32-2.58l13.23-7.64a5,5,0,0,1,4.47-.18l15.85,9.15c1.15.66,1,1.82-.32,2.58L101.88,505A5,5,0,0,1,97.4,505.22Z"/><path class="cls-6" d="M129.67,523.85l-15.85-9.15c-1.15-.67-1-1.82.32-2.59l13.22-7.63a5,5,0,0,1,4.47-.19l15.86,9.16c1.14.66,1,1.81-.32,2.58l-13.23,7.63A5,5,0,0,1,129.67,523.85Z"/><path class="cls-6" d="M161.94,542.48l-15.86-9.16c-1.14-.66-1-1.81.32-2.58l13.23-7.63a5,5,0,0,1,4.47-.19L180,532.07c1.15.67,1,1.82-.32,2.59l-13.22,7.63A5,5,0,0,1,161.94,542.48Z"/><path class="cls-6" d="M194.2,561.1,178.35,552c-1.15-.66-1-1.82.32-2.58l13.22-7.63a5,5,0,0,1,4.48-.19l15.85,9.15c1.14.66,1,1.82-.32,2.58l-13.23,7.64A5,5,0,0,1,194.2,561.1Z"/><path class="cls-6" d="M67.24,522.63l-15.85-9.15c-1.14-.66-1-1.82.32-2.58l13.23-7.64a5,5,0,0,1,4.47-.18l15.85,9.15c1.15.66,1,1.82-.32,2.58l-13.22,7.64A5,5,0,0,1,67.24,522.63Z"/><path class="cls-6" d="M99.51,541.26l-15.85-9.15c-1.15-.66-1-1.82.32-2.58l13.22-7.64a5,5,0,0,1,4.47-.18l15.86,9.15c1.14.66,1,1.82-.33,2.58L104,541.08A5,5,0,0,1,99.51,541.26Z"/><path class="cls-6" d="M131.77,559.89l-15.85-9.15c-1.14-.66-1-1.82.32-2.59l13.23-7.63a5,5,0,0,1,4.47-.18l15.85,9.15c1.15.66,1,1.82-.32,2.58l-13.22,7.63A5,5,0,0,1,131.77,559.89Z"/><path class="cls-7" d="M164,578.52l-15.85-9.15c-1.15-.67-1-1.82.32-2.59l13.22-7.63a5,5,0,0,1,4.47-.19l15.86,9.16c1.14.66,1,1.81-.32,2.58l-13.23,7.63A5,5,0,0,1,164,578.52Z"/><path class="cls-6" d="M37.08,540.05l-15.85-9.16c-1.15-.66-1-1.81.32-2.58l13.22-7.63a5,5,0,0,1,4.48-.19l15.85,9.15c1.15.67,1,1.82-.32,2.59l-13.22,7.63A5,5,0,0,1,37.08,540.05Z"/><path class="cls-6" d="M69.35,558.67,53.5,549.52c-1.15-.66-1-1.82.32-2.58L67,539.31a5,5,0,0,1,4.47-.19l15.86,9.15c1.14.66,1,1.82-.33,2.58l-13.22,7.64A5,5,0,0,1,69.35,558.67Z"/><path class="cls-6" d="M101.61,577.3l-15.85-9.15c-1.14-.66-1-1.82.32-2.58l13.23-7.64a5,5,0,0,1,4.47-.18l15.85,9.15c1.15.66,1,1.82-.32,2.58l-13.22,7.64A5,5,0,0,1,101.61,577.3Z"/><path class="cls-7" d="M133,595.39l-14-8.07c-1.66-1-1.45-2.64.46-3.75l30.9-17.83a7.19,7.19,0,0,1,6.48-.27l14,8.08c1.66,1,1.45,2.63-.47,3.74l-30.89,17.83A7.19,7.19,0,0,1,133,595.39Z"/><path class="cls-6" d="M256.41,499.87,247,494.43v0l-74.31-42.9v.05l-27.77-16a2,2,0,0,0-2.93,1.14L136.52,454a2,2,0,0,0,.91,2.35l10.56,6.1v0l74.31,42.9,0-.06,26,15a3.64,3.64,0,0,0,5.29-2.06l4.45-14.13A3.63,3.63,0,0,0,256.41,499.87Z"/><path class="cls-2" d="M590.86,671.72,196.5,444a9.75,9.75,0,0,1,0-16.88l308-177.83a9.76,9.76,0,0,1,9.75,0l412.4,238.1a9.75,9.75,0,0,1,0,16.88l-290,167.41A45.81,45.81,0,0,1,590.86,671.72Z"/><path class="cls-8" d="M903.92,425.73v10l-396-228.63a9.76,9.76,0,0,0-9.75,0L206.56,375.51V366.3H185.29v28.18h.07a9.62,9.62,0,0,0,4.8,7.38l386.5,226a61.9,61.9,0,0,0,61.57,0L920.32,462.13a9.66,9.66,0,0,0,4.86-8.22h0V425.73Z"/><path class="cls-9" d="M584.52,603.52,190.16,375.84a9.75,9.75,0,0,1,0-16.88l308-177.83a9.76,9.76,0,0,1,9.75,0l412.4,238.1a9.75,9.75,0,0,1,0,16.88l-290,167.41A45.81,45.81,0,0,1,584.52,603.52Z"/><polygon class="cls-2" points="842.01 442.98 443.33 212.79 499.02 179.45 901.73 408.5 842.01 442.98"/><polygon class="cls-10" points="835.33 414.08 405.12 165.7 465.24 130.98 895.46 379.37 835.33 414.08"/><path class="cls-7" d="M509.81,188.12c-6,3.44-15.62,3.44-21.58,0s-6-9,0-12.46,15.62-3.44,21.58,0S515.77,184.68,509.81,188.12Z"/><ellipse class="cls-11" cx="538.28" cy="207.07" rx="15.26" ry="8.81"/><path class="cls-12" d="M470.53,165.72c-6,3.44-15.62,3.44-21.58,0s-6-9,0-12.46,15.62-3.44,21.58,0S476.49,162.28,470.53,165.72Z"/><path class="cls-6" d="M791.38,368.25c-9.64-5.56-9.64-14.62,0-20.19s25.33-5.57,35,0,9.64,14.63,0,20.2S801,373.82,791.38,368.25Zm30.56-17.64c-7.21-4.16-18.94-4.16-26.14,0s-7.21,10.93,0,15.09,18.93,4.17,26.14,0S829.14,354.77,821.94,350.61Z"/><path class="cls-6" d="M821.44,387.62h0a3.8,3.8,0,0,1-4.84-2.29l-4.38-12.22a3.8,3.8,0,0,1,2.29-4.84h0a3.79,3.79,0,0,1,4.83,2.29l4.39,12.22A3.8,3.8,0,0,1,821.44,387.62Z"/><polygon class="cls-2" points="662.19 220 667.83 101.41 698.29 83.26 667.83 101.41 694.14 147.88 691.81 203.6 662.19 220 875.99 338.93 903.61 322.35 684.57 193.25 662.19 220"/><polygon class="cls-13" points="621.77 37.15 621.77 44.92 550.85 85.39 550.65 77.32 621.77 37.15"/><polyline class="cls-7" points="662.19 219.68 691.81 203.29 694.14 147.56 667.83 101.09 698.29 82.94 796.75 263.43 769.13 280.02 667.83 101.09 662.19 219.68"/><polyline class="cls-7" points="587.51 87.54 561.2 41.07 596.52 31.82 690.11 203.41 662.49 220 561.2 41.07"/><polyline class="cls-7" points="769.05 278.59 798.67 262.2 801 206.47 774.7 160.01 805.16 141.85 903.61 322.35 875.99 338.93 774.7 160.01 769.05 278.59"/><polyline class="cls-13" points="769.05 278.59 798.67 262.2 801 206.47 774.7 160.01 805.16 141.85 774.7 160.01 769.05 278.59"/><polyline class="cls-13" points="662.19 220 691.81 203.6 694.14 147.88 667.83 101.41 698.29 83.26 667.83 101.41 662.19 220"/><polygon class="cls-7" points="621.77 37.15 554.05 0 550.69 78.58 621.77 37.15"/><path class="cls-14" d="M320.45,240.77c-1.34-.37-2.69-.71-4-1.05,8-18.18-17.17-34.25-26-39.21a9.28,9.28,0,0,0-6.24-1,173,173,0,0,0-55.44,21.33c-13,5.08-31.32,13.23-48.09,24.29l-2.2,1.48q-4.38,1.41-8.73,3A199.11,199.11,0,0,0,124,272.63a99.49,99.49,0,0,0-13.54,9.92,9.26,9.26,0,0,0,.33,14.15,93.17,93.17,0,0,0,25.77,14.74,61.21,61.21,0,0,0,6.18,23.07c2.89,5.62,9.78,7.68,15.32,7.24,3.39-.27,5.37-1.18,7.09-3.16a4.35,4.35,0,0,0,1-4.88c-.06-.17-5-8.83-6.22-18.38,8.85-.23,22.33-1.39,32.34-5.87,50.54-22.57,14.52-53.16,14.52-53.16l1.18-.59,3.68-1.82,1.19-.58s37.29,33.15,88.12,1.88c.56-.34,1.1-.69,1.63-1,6.75,1.21,10.92,2.12,11.08,2.16,7.62,1.64,13.48-.19,15.78-3a6.24,6.24,0,0,0,.5-.72C331.69,249.61,328.94,243.27,320.45,240.77Zm-14.76-5.11c.16-1.06.29-2.12.38-3.18A12.45,12.45,0,0,1,305.69,235.66Z"/><path class="cls-15" d="M129.79,325c-4.36-19-5.58-39.24,2.31-52.48,7.79-13.06,20-26.22,38-38.12,30.64-20.2,66.36-30.89,66.72-31l2.44,2.42c-.4.2-39.27,21.65-75,54.67-34.92,32.31-15.81,65.7-13.56,70.06,2.44,4.74-2.7,9-6.15,9.3C139,340.31,132.37,336.26,129.79,325Z"/><path class="cls-15" d="M159,238.93A266.52,266.52,0,0,1,227.65,224c28.84-2.3,56.84-1.76,84.67,6,8.64,2.54,11.43,9,9.66,12a4.82,4.82,0,0,1-.51.73c-2.34,2.84-8.3,4.7-16.05,3-.65-.14-65-14.21-103.2-5.86C140.37,253.46,100.43,272.48,100,272.67l.71-1.17C101,271.31,120.71,252.66,159,238.93Z"/><path class="cls-16" d="M107.29,277.74s4.79,21.59,28.36,22.82,55.13-3,61.6-18.13,3.31-36.27-8.59-41.16S120.45,252.15,107.29,277.74Z"/><path class="cls-16" d="M204.61,229.77s4.79,21.6,28.37,22.83,55.12-3,61.59-18.13,3.31-36.28-8.59-41.16S217.77,204.19,204.61,229.77Z"/><path class="cls-17" d="M98.72,272.48a9.42,9.42,0,0,0,.33,14.39c13.73,11,44.94,29.94,82.91,13,51.4-23,14.76-54.07,14.76-54.07l1.2-.6,3.74-1.85,1.21-.59s37.92,33.72,89.62,1.92c39.44-24.27.77-49.17-10.72-55.61a9.34,9.34,0,0,0-6.34-1c-12.65,2.39-58.28,13.17-87.56,48.11l-.31.15C135.84,245.44,109.92,262.59,98.72,272.48ZM218.06,239.1h0a9.45,9.45,0,0,1-1.29-15.25c20.61-17.93,46.46-24.41,55.82-26.26a9.38,9.38,0,0,1,6.83,1.27c9.28,5.82,33.46,23.94,4.45,39.79C248.76,257.82,218.06,239.1,218.06,239.1ZM117.47,287.51a9.43,9.43,0,0,1-1.17-15.79c9.63-7.37,27.69-17.61,58.59-23.83a9.47,9.47,0,0,1,7.5,1.67l5.8,4.3s27.68,20.22-10.57,37.3C152.59,302.34,130.05,294.36,117.47,287.51Z"/><path class="cls-6" d="M131.78,288.87h0a2.86,2.86,0,0,1-2.69-3l.89-17a2.85,2.85,0,0,1,3-2.69h0a2.86,2.86,0,0,1,2.69,3l-.89,17A2.85,2.85,0,0,1,131.78,288.87Z"/><path class="cls-6" d="M142,286.24h0a1.94,1.94,0,0,1-1.84-2l1-18.83a2,2,0,0,1,2-1.83h0a1.94,1.94,0,0,1,1.84,2l-1,18.83A2,2,0,0,1,142,286.24Z"/><path class="cls-6" d="M233,238.66h0a2.84,2.84,0,0,1-2.69-3l.88-17a2.86,2.86,0,0,1,3-2.69h0a2.86,2.86,0,0,1,2.69,3L236,236A2.85,2.85,0,0,1,233,238.66Z"/><path class="cls-6" d="M243.2,236h0a1.94,1.94,0,0,1-1.84-2l1-18.83a1.94,1.94,0,0,1,2-1.83h0a1.94,1.94,0,0,1,1.84,2l-1,18.83A1.93,1.93,0,0,1,243.2,236Z"/><path class="cls-18" d="M486.94,382.89c-45.37,26.19-119.17,26.06-164.83-.3s-45.89-69-.52-95.17,119.18-26.06,164.84.3l-82.16,47.43Z"/><path class="cls-19" d="M486.94,382.88h0l-.51-17.13-25.08,2.35-57.08-33-.15.09c1.32,9.83,5.95,34.16,9.14,50.59l.78,16.42,2.41-.13c26.8-1,51-8,70.49-19.23h0Z"/><path class="cls-13" d="M486.69,346.65s45.7-23.76,33.88-63.65-33.88,49.64-33.88,49.64Z"/><path class="cls-20" d="M322.11,382.59c-45.66-26.36-45.89-69-.52-95.17l82.68,47.73Z"/><path class="cls-21" d="M486.43,287.72c-45.66-26.36-119.46-26.5-164.84-.3l82.68,47.73Z"/><path class="cls-20" d="M404.12,335.24l.15-.09-82.68-47.73c-11.26,6.51-28.15,20.34-33.88,30.46v16.17C325.36,335.82,377.33,334,404.12,335.24Z"/><path class="cls-22" d="M486.94,366.44c-45.37,26.19-119.17,26.06-164.83-.3s-45.89-69-.52-95.17,119.18-26.06,164.84.3L404.27,318.7Z"/><path class="cls-17" d="M322.11,366.14c-45.66-26.36-45.89-69-.52-95.17l82.68,47.73Z"/><path class="cls-23" d="M486.43,271.27c-45.66-26.36-119.46-26.5-164.84-.3l82.68,47.73Z"/><path class="cls-7" d="M486.17,237.47c45.66,26.37,45.89,69,.52,95.17L404,284.91Z"/><path class="cls-11" d="M404.12,318.79l.15-.09L321.59,271C301.1,282.8,289.91,298,288,313.5,325.66,315.26,377.33,317.59,404.12,318.79Z"/><path class="cls-6" d="M404.12,318.79l.15-.09,82.67,47.74c-20.49,11.83-46.78,18.29-73.65,19.39C410.23,364.09,406.2,334.26,404.12,318.79Z"/><polygon class="cls-13" points="404.01 284.91 404.01 296.79 486.69 346.65 486.69 332.64 404.01 284.91"/><path class="cls-18" d="M322.11,382.59V366.14a122.42,122.42,0,0,0,20.29,9.39Z"/><polygon class="cls-11" points="690.33 423.99 711.4 411.83 607.84 352.03 586.75 364.2 690.33 423.99"/><polygon class="cls-11" points="759.47 439.88 725.53 420.15 704.45 432.32 738.51 451.98 759.47 439.88"/><polygon class="cls-22" points="574.13 395.64 552.74 383.29 573.99 371.02 595.38 383.37 574.13 395.64"/><polygon class="cls-22" points="540.32 415.2 518.94 402.85 540.19 390.58 561.58 402.93 540.32 415.2"/><polygon class="cls-22" points="507.19 434.48 485.81 422.13 507.06 409.86 528.45 422.21 507.19 434.48"/><polygon class="cls-22" points="472.08 455.1 450.7 442.75 471.95 430.48 493.34 442.83 472.08 455.1"/><polygon class="cls-6" points="716.48 465.12 595.05 395.01 585.03 400.79 706.46 470.9 716.48 465.12"/><polygon class="cls-6" points="683.75 485.31 562.32 415.2 552.3 420.98 673.73 491.09 683.75 485.31"/><polygon class="cls-6" points="649.08 504.59 527.65 434.48 517.63 440.26 639.06 510.37 649.08 504.59"/><polygon class="cls-6" points="616.37 528.14 494.94 458.03 484.92 463.81 606.35 533.92 616.37 528.14"/><ellipse class="cls-2" cx="466.12" cy="763.45" rx="26.23" ry="45.43" transform="matrix(0.01, -1, 1, 0.01, -299.85, 1225.42)"/><path class="cls-15" d="M454.32,744.57l-19.46,4-2.61,6.75c-.63,4.84-.6,7.42,2.61,10,2.7,2.15,8.21.49,11.08-.85l12.5-7.51c9.26-5.11,8.56-8.89,7.56-12h0C464.52,741.39,460.23,742.2,454.32,744.57Z"/><path class="cls-15" d="M495.62,768.3l-18.8-6.36-5.66,4.52c-3,3.86-4.25,6.11-2.76,9.93,1.26,3.21,6.85,4.55,10,4.84L493,781c10.57.25,11.87-3.36,12.57-6.56h0C506,770.69,501.93,769.23,495.62,768.3Z"/><polygon class="cls-22" points="525.81 602.25 481.06 576.32 507.4 499.32 552.14 525.25 525.81 602.25"/><path class="cls-6" d="M454.32,742.76l-19.46,4-2.61,6.75c-.63,4.84-.6,7.42,2.61,10,2.7,2.15,8.21.49,11.08-.85l12.5-7.52c9.26-5.1,8.56-8.88,7.56-12h0C464.52,739.58,460.23,740.39,454.32,742.76Z"/><path class="cls-6" d="M495.62,766.71l-18.8-6.36-5.66,4.52c-3,3.87-4.25,6.11-2.76,9.93,1.26,3.21,6.85,4.55,10,4.84l14.58-.2c10.57.25,11.87-3.37,12.57-6.57h0C506,769.1,501.93,767.65,495.62,766.71Z"/><path class="cls-24" d="M429.22,525.65c-10.6,16.08-15.29,36.6-19.48,55.16-.91,4-1.25,6.39-.19,10.31,3.54,13,7.56,25.24,9.08,38.84.77,6.86,11.62,6.93,10.84,0a180.79,180.79,0,0,0-7.86-37.16c-.76-2.28-1.59-4.52-2.46-6.76.8,2.05-.26,3.56.15,1.73.26-1.14.49-2.29.75-3.44,4-17.88,8.33-37.74,18.54-53.21,3.85-5.84-5.54-11.28-9.37-5.47Z"/><path class="cls-23" d="M426.16,529.91c-7.17,12.5-12.37,33.63-17.09,50.74-1.79,4.72-.66,9,2.32,8.81l10,1.38c2.46-.16,7.14-5.48,8.29-9.43l12.67-43.51c2.06-7.08.54-13.17-3.52-14.08l-.92-.14C437.19,521.08,431.57,521.05,426.16,529.91Z"/><path class="cls-15" d="M459.7,609.16l-50.09,28.92a3.68,3.68,0,0,1-5.52-3.19V600a3.68,3.68,0,0,1,1.84-3.19L456,567.9a3.68,3.68,0,0,1,5.52,3.19V606A3.68,3.68,0,0,1,459.7,609.16Z"/><ellipse class="cls-6" cx="434.44" cy="602.99" rx="9" ry="5.19" transform="translate(-305.38 673.72) rotate(-59.69)"/><path class="cls-24" d="M432.6,631.64,429,633.29a5.6,5.6,0,0,1-7.39-2.79h0a5.61,5.61,0,0,1,2.78-7.4l3.65-1.65a5.61,5.61,0,0,1,7.4,2.79h0A5.62,5.62,0,0,1,432.6,631.64Z"/><path class="cls-25" d="M474.83,490.55l.07,2.05s.27,6.17-5.81,3-5.89-10.9-5.89-10.9S467.82,484.14,474.83,490.55Z"/><path class="cls-26" d="M469.05,495.76c7.93,4.12,7.65-3.09,7.65-3.09l.06,0-.23-2.45c-8.84-7.6-14.47-7.23-14.47-7.23S461.13,491.64,469.05,495.76ZM463.51,485s4.51-.24,11.29,5.66l.05,1.77s.21,5.35-5.69,2.29S463.51,485,463.51,485Z"/><polygon class="cls-26" points="479.67 494.05 474.95 491.9 474.7 489.23 479.41 491.38 479.67 494.05"/><path class="cls-26" d="M462.44,485.06l-.83-.38a1.83,1.83,0,0,1-.92-1.41h0c-.06-.58.26-.88.72-.67l.83.38a1.89,1.89,0,0,1,.93,1.42h0C463.22,485,462.9,485.27,462.44,485.06Z"/><path class="cls-15" d="M481.26,496.19h0c-.19-.24-.25-.54-.13-.67l1.4-1.55c.12-.13.38-.05.58.18h0c.19.24.26.53.13.67l-1.4,1.55C481.72,496.5,481.46,496.42,481.26,496.19Z"/><path class="cls-27" d="M464.41,488.16h0c-.2-.23-.26-.53-.14-.66l1.41-1.55c.12-.14.38-.05.57.18h0c.2.23.26.53.14.67L465,488.35C464.86,488.48,464.61,488.4,464.41,488.16Z"/><path class="cls-15" d="M462.63,647.78c7.21,21.15,7.87,43.89,7.19,66-.5,16.5-3.11,33.14-2.69,49.64.27,10.82,17.12,10.87,16.85,0-.43-17,2.27-34.05,2.73-51,.63-23.08-.33-47.11-7.84-69.14-3.47-10.21-19.76-5.83-16.24,4.48Z"/><path class="cls-15" d="M428.73,628.79c3.78,13.73,5.49,27.9,6.86,42.05.81,8.36,1.8,16.33.93,24.67-1.77,16.77-4.9,33.86-4.78,50.76.07,10.84,16.92,10.87,16.85,0-.12-17.15,3.09-34.48,4.85-51.51.89-8.58-.31-17-1.15-25.54C450.79,654.15,449,639,445,624.31c-2.87-10.44-19.13-6-16.25,4.48Z"/><path class="cls-15" d="M442.54,651.07h0c1.55,1.74-5.13-6.74-3.13-5.53C443.58,648.05,467,664,471.84,664c5.88.1,2.45-5.59,6.83-9.52,4.15-3.72,5.13-9.78,5.53-15.34a9.6,9.6,0,0,0-.42-4.56,9.89,9.89,0,0,0-3.37-3.62c-10.39-7.86-30.83-27.33-45.35-21.11C418.28,617.08,435.09,642.72,442.54,651.07Z"/><path class="cls-24" d="M454.1,525.89l4.4-19.64,12,8.06-3.61,17.88C466.52,535.1,453.23,532.56,454.1,525.89Z"/><path class="cls-24" d="M461.37,477.63s-12-8.37-12.13,12a35.44,35.44,0,0,0,20.11,31.9c7.22,3.44,16-1,16.44-8,1.73-10.27,1.75-19.87-1.62-28.13.48-8.49-5.36-5.47-15.45-6Z"/><path class="cls-3" d="M454.5,517.07s-13.89-5.16-12.57-24.7c1.43-21.14,20.88-19.32,31.68-20.35,4.79-.46,8.12-1.15,13,3.22,4.46,4,.29,12.91-6.11,13.48-2.53.23-1.37,7.06-1.88,9.4-.91,4.17-3.51,6.2-4.47,10.24-.9,3.82-6.54,9.81-10.2,10.24C457.45,519.35,454.5,517.07,454.5,517.07Z"/><path class="cls-22" d="M484.92,604.22l.06-2.44c0-1.62.1-3.22.16-4.81.09-2.38.2-4.74.31-7.09.07-1.57.15-3.12.23-4.68.36-7.05.74-14.08.92-21.47l2.1.59s3-20-7.28-26.07c-5.53-3.25-14.12-8.45-20.86-12.56-9.91-6-23.11-8.29-30.22.88a11.8,11.8,0,0,0-2.29,4.4h0a15.94,15.94,0,0,0-.36,4.1c-2.68,32.07-3.27,84.42-.09,85.64h0a4.81,4.81,0,0,0,2.66,3.55,41.14,41.14,0,0,0,6.93,6.62h0l.78.58c.34.25.68.5,1,.74l.9.62,1,.67.91.58,1.48.89,1.19.68,1.17.65,1,.53,1.16.6,1,.49,1.68.81,1.12.51,1.45.66,1,.43,1.39.59.92.39,2.08.84.62.25,1.92.75.85.33,1.68.63.77.29,2.4.88c4,2.3,11,2,15.6-.64h0c.3-.18.59-.36.86-.55l.25-.19.5-.39.26-.24.39-.37c.07-.09.15-.17.22-.25l.31-.39.18-.25a3.26,3.26,0,0,0,.24-.4,2,2,0,0,0,.14-.25c.07-.14.12-.28.18-.42s.06-.15.08-.23a4,4,0,0,0,.11-.47,1.06,1.06,0,0,0,0-.19,3.49,3.49,0,0,0,0-.65l.16.05c-.2-2-.38-4-.53-6-.53-6.84-.77-13.18-.83-19.21,0-1.72,0-3.41,0-5.09S484.89,605.85,484.92,604.22Z"/><path class="cls-28" d="M474.64,534.2c-13.45-2-22.54,6.43-25.75-12.94h0a4.3,4.3,0,0,1,5.81,1.27c2.31,3.34,7.22,5.44,12.64,4.78a4.28,4.28,0,0,1,4.11,1.92Z"/><path class="cls-24" d="M476.86,551.73c.91,11.21,2.69,21.47,7.38,31.74,3.37,7.39,6.83,18,14.13,22.63,16.46,10.52,34-16.42,41.79-26.67,4.22-5.56-5.19-11-9.36-5.48-4.4,5.81-20.67,31.25-29.06,20.28-8.95-11.72-12.87-28.2-14-42.5-.56-6.91-11.41-7-10.84,0Z"/><path class="cls-23" d="M471.41,551.59c3.28,27.73,12,45.36,24.13,54.33,6.37,3.53,12.32-6.52,9.89-12.59-12.06-10.72-16.29-27.45-17.44-46.54A8.74,8.74,0,0,0,477.63,542h0A8.16,8.16,0,0,0,471.41,551.59Z"/><path class="cls-24" d="M477.42,504.27c.29,3.34-1.42,6.22-3.81,6.43a3.38,3.38,0,0,1-.78,0c-2.07-.33-3.83-2.68-4.08-5.66-.29-3.34,1.42-6.22,3.82-6.42S477.14,500.93,477.42,504.27Z"/><polygon class="cls-29" points="502.49 563.12 493.14 557.28 498.57 540.55 507.92 546.39 502.49 563.12"/><polygon class="cls-6" points="513.95 570.27 504.6 564.44 508.15 553.5 517.5 559.33 513.95 570.27"/><polygon class="cls-30" points="525.75 577.64 516.4 571.81 523.53 549.88 532.88 555.71 525.75 577.64"/><path class="cls-15" d="M536.15,536.65l-4.71-3-.05,0-23.05-14.79a1.48,1.48,0,0,0-2.14.61,1.85,1.85,0,0,0,.59,2.37l4.72,3,0,0,23.05,14.78a1.49,1.49,0,0,0,2.15-.61A1.85,1.85,0,0,0,536.15,536.65Z"/><path class="cls-6" d="M528.23,541.74a1.19,1.19,0,0,0-.47-1.37l-21.67-13.91a1.49,1.49,0,0,0-2.15.61,1.84,1.84,0,0,0,.6,2.37l4.71,3,.05,0L525.64,543a1.93,1.93,0,0,0,2.59-1.24Z"/><path class="cls-6" d="M511.71,540.33a1,1,0,0,0-.43-1.07l-7.54-4.84a1.49,1.49,0,0,0-2.15.61,1.87,1.87,0,0,0,.6,2.37l4.72,3,0,0,2.79,1.78a1.3,1.3,0,0,0,1.78-.91Z"/><path class="cls-31" d="M488,773.22s2.7-4.18.44-7.23"/><path class="cls-31" d="M494.47,773.61s2.7-4.18.44-7.23"/><path class="cls-31" d="M454.4,749.08s-1.37-4.79-5.16-5.09"/><path class="cls-31" d="M458.91,747s-1.37-4.79-5.15-5.09"/><ellipse class="cls-2" cx="328.61" cy="638.51" rx="52.64" ry="29.78"/><path class="cls-32" d="M372.5,621c.37,2.07-.7,10.82-1.73,13-2,7.12-8.47,13.87-19.07,18.84-23.24,10.89-57.68,9.06-76.92-4.09-9-6.13-13-13.63-12.5-21-.09-.69.62-9.83.62-9.83a22.87,22.87,0,0,1,4.19-7.45c3.26-4.7,8.6-9,16-12.47,23.24-10.89,57.69-9.07,76.93,4.08C368.09,607.62,372.19,614.28,372.5,621Z"/><ellipse class="cls-6" cx="317.44" cy="621" rx="54.64" ry="30.91"/><ellipse class="cls-30" cx="317.44" cy="619.31" rx="54.64" ry="30.91"/><ellipse class="cls-2" cx="228.14" cy="687.71" rx="52.64" ry="29.78"/><path class="cls-33" d="M372.5,606.33c.37,2.08-.7,10.82-1.73,13-2,7.12-8.47,13.87-19.07,18.84-23.24,10.89-57.68,9.06-76.92-4.09-9-6.13-13-13.63-12.5-21-.09-.69.62-9.83.62-9.83a22.87,22.87,0,0,1,4.19-7.45c3.26-4.7,8.6-9,16-12.47,23.24-10.89,57.69-9.07,76.93,4.08C368.09,593,372.19,599.66,372.5,606.33Z"/><ellipse class="cls-6" cx="317.44" cy="606.38" rx="54.64" ry="30.91"/><ellipse class="cls-30" cx="317.44" cy="604.7" rx="54.64" ry="30.91"/><path class="cls-34" d="M372.5,589c.37,2.07-.7,10.82-1.73,13-2,7.12-8.47,13.87-19.07,18.83-23.24,10.89-57.68,9.06-76.92-4.08-9-6.13-13-13.63-12.5-21-.09-.69.62-9.84.62-9.84a22.93,22.93,0,0,1,4.19-7.44c3.26-4.71,8.6-9,16-12.48,23.24-10.89,57.69-9.06,76.93,4.09C368.09,575.61,372.19,582.28,372.5,589Z"/><ellipse class="cls-6" cx="317.44" cy="589" rx="54.64" ry="30.91"/><ellipse class="cls-30" cx="317.44" cy="587.31" rx="54.64" ry="30.91"/><ellipse class="cls-35" cx="317.4" cy="586.5" rx="38.19" ry="21.61"/><ellipse class="cls-36" cx="317.55" cy="587.38" rx="47.61" ry="26.94"/><path class="cls-37" d="M293,572.51c16.25-7.61,40.33-6.34,53.78,2.85,5.36,3.67,8.22,8,8.7,12.45.57-5.29-2.27-10.7-8.7-15.09-13.45-9.19-37.53-10.47-53.78-2.86-9.77,4.58-14.48,11.33-13.77,18C279.9,582.08,284.57,576.48,293,572.51Z"/><path class="cls-38" d="M340.85,573.52l-8.74,2.36-10.36-1.59-5.95,1.59-4.38.71-.06,5a5.15,5.15,0,0,0,0,.68h0c.14,2.43,1.95,5,2.65,7.08l-3.68.73-6.14-1.55,1.67,2.11,8.41,0a2.06,2.06,0,0,1-1.31,2.08,6.28,6.28,0,0,1-5.31.23l-1.79-2.27H304.2a8.58,8.58,0,0,1-2.26-4.66l-3.26.19-4.7-4.3v4.58a8.34,8.34,0,0,0,1.73,4.51l-2.36.76v4.58l4.52,3,5.23-2.59a19.88,19.88,0,0,0,16.93.07c2.62-1.29,3.58-2.83,3.68-4.43h0v0a2.91,2.91,0,0,0,0-.59v-4l-1.24.15c-1.36-2.73-3.06-5.14-.79-6.26s4.44-.79,6.68.71a5,5,0,0,1,2.57,4.63l7.68.21a8.15,8.15,0,0,0,0-1.78v-2.79l-1.2-2.91,3.44-1.7Z"/><path class="cls-6" d="M298.37,590.16c-2.4-2-4.36-4.83-4.39-7.36l8-.48a8.32,8.32,0,0,0,3.76,5.89c2.62,1.74,4.94,1.95,7.25.8,5.18-2.56-7.25-10.72,1.8-15.2a19.27,19.27,0,0,1,16.39.13l5.18-2.56,4.53,3-5.08,2.51a7.26,7.26,0,0,1,2.84,6.68l-7.68-.21a5,5,0,0,0-2.57-4.64c-2.24-1.49-4.41-1.83-6.68-.71-4.77,2.37,8,10.38-1.65,15.13a19.84,19.84,0,0,1-16.93-.08l-5.23,2.59-4.52-3Z"/><path class="cls-30" d="M298.37,589.29c-2.4-2-4.36-4.83-4.39-7.37l8-.47a8.32,8.32,0,0,0,3.76,5.89c2.62,1.74,4.94,1.95,7.25.8,5.18-2.56-7.25-10.72,1.8-15.2a19.23,19.23,0,0,1,16.39.13l5.18-2.57,4.53,3L335.77,576a7.25,7.25,0,0,1,2.84,6.68l-7.68-.22a5,5,0,0,0-2.57-4.63c-2.24-1.49-4.41-1.83-6.68-.71-4.77,2.37,8,10.38-1.65,15.13a19.84,19.84,0,0,1-16.93-.08l-5.23,2.59-4.52-3Z"/><path class="cls-39" d="M271.83,668.13c.37,2.08-.71,10.83-1.73,13.06-2.05,7.12-8.48,13.87-19.07,18.83-23.25,10.89-57.69,9.06-76.93-4.09-9-6.12-13-13.63-12.49-21-.1-.68.62-9.83.62-9.83a22.93,22.93,0,0,1,4.18-7.45c3.27-4.7,8.61-9,16-12.47,23.24-10.89,57.68-9.06,76.92,4.08C267.41,654.8,271.51,661.46,271.83,668.13Z"/><ellipse class="cls-6" cx="216.76" cy="668.18" rx="54.64" ry="30.91"/><ellipse class="cls-30" cx="216.76" cy="666.5" rx="54.64" ry="30.91"/><ellipse class="cls-40" cx="216.72" cy="665.69" rx="38.19" ry="21.61"/><ellipse class="cls-36" cx="216.88" cy="666.56" rx="47.61" ry="26.94"/><path class="cls-37" d="M192.37,651.69c16.25-7.61,40.32-6.33,53.77,2.86,5.37,3.66,8.23,8,8.7,12.44.57-5.28-2.26-10.69-8.7-15.09-13.45-9.19-37.52-10.47-53.77-2.85-9.78,4.57-14.49,11.32-13.77,18C179.22,661.27,183.89,655.66,192.37,651.69Z"/><path class="cls-41" d="M240.18,652.71l-8.75,2.35-10.35-1.58-6,1.58-4.37.72-.06,5a5.12,5.12,0,0,0,0,.68h0c.14,2.43,1.95,5,2.64,7.08l-3.67.73-6.14-1.56,1.67,2.11,8.4,0a2,2,0,0,1-1.3,2.07,6.21,6.21,0,0,1-5.31.23l-1.79-2.27h-1.65a8.58,8.58,0,0,1-2.26-4.66l-3.26.19-4.71-4.29v4.57A8.31,8.31,0,0,0,195,670.2l-2.37.76v4.57l4.53,3,5.23-2.59a19.84,19.84,0,0,0,16.93.08c2.62-1.3,3.57-2.83,3.68-4.43h0v0a5.8,5.8,0,0,0,0-.59v-4l-1.25.14c-1.36-2.72-3-5.13-.78-6.26s4.43-.78,6.67.71a5,5,0,0,1,2.58,4.63l7.67.22a7.66,7.66,0,0,0,0-1.79v-2.79l-1.2-2.91,3.45-1.7Z"/><path class="cls-6" d="M197.7,669.34c-2.4-2-4.36-4.83-4.4-7.36l8-.47A8.34,8.34,0,0,0,205,667.4c2.61,1.74,4.93,1.94,7.25.8,5.17-2.56-7.25-10.72,1.8-15.2a19.23,19.23,0,0,1,16.39.12l5.18-2.56,4.53,3-5.08,2.51a7.25,7.25,0,0,1,2.83,6.67l-7.67-.21a5,5,0,0,0-2.58-4.63c-2.24-1.49-4.41-1.83-6.67-.71-4.77,2.36,8,10.37-1.65,15.12a19.84,19.84,0,0,1-16.93-.07l-5.23,2.59-4.53-3Z"/><path class="cls-30" d="M197.7,668.47c-2.4-2-4.36-4.83-4.4-7.36l8-.47a8.34,8.34,0,0,0,3.76,5.89c2.61,1.74,4.93,1.94,7.25.8,5.17-2.56-7.25-10.72,1.8-15.2a19.23,19.23,0,0,1,16.39.12l5.18-2.56,4.53,3-5.08,2.51a7.25,7.25,0,0,1,2.83,6.67l-7.67-.21a5,5,0,0,0-2.58-4.63c-2.24-1.5-4.41-1.83-6.67-.71-4.77,2.36,8,10.37-1.65,15.12a19.88,19.88,0,0,1-16.93-.07L197.2,674l-4.53-3Z"/></g></g></g></svg>