<svg xmlns="http://www.w3.org/2000/svg" viewBox="0 0 64 80" x="0px" y="0px"><title>Credit-card-History-bill</title><g><rect x="18" y="30" width="23" height="2"/><rect x="25" y="26" width="19" height="2"/><path d="M22,20.855V22h2V20.855a2.844,2.844,0,0,0,.422-5.262l-1.949-.975A.854.854,0,0,1,22.854,13h.292a.855.855,0,0,1,.854.854V14h2v-.146a2.849,2.849,0,0,0-2-2.709V10H22v1.145a2.844,2.844,0,0,0-.422,5.262l1.949.975A.854.854,0,0,1,23.146,19h-.292A.855.855,0,0,1,22,18.146V18H20v.146A2.849,2.849,0,0,0,22,20.855Z"/><rect x="42" y="10" width="2" height="2"/><rect x="31" y="20" width="13" height="2"/><rect x="31" y="16" width="13" height="2"/><rect x="38" y="10" width="2" height="2"/><rect x="21" y="26" width="2" height="2"/><path d="M61,15H56V7a4,4,0,0,0-4-4H16a4,4,0,0,0-4,4V35H3a1,1,0,0,0-1,1V60a1,1,0,0,0,1,1H40a1,1,0,0,0,1-1V58.414l2-2,2.293,2.293a1,1,0,0,0,1.414,0l3-3A1,1,0,0,0,50,55V47h8a4,4,0,0,0,4-4V16A1,1,0,0,0,61,15ZM39,37v3H4V37ZM4,42H39v3H4ZM4,59V47H39V59Zm44-4.414-2,2-2.293-2.293a1,1,0,0,0-1.414,0L41,55.586V36a1,1,0,0,0-1-1H14V7a2,2,0,0,1,2-2H48.556A3.959,3.959,0,0,0,48,7ZM50,7a2,2,0,0,1,4,0V43a3.959,3.959,0,0,0,.556,2H50ZM60,43a2,2,0,0,1-4,0V17h4Z"/><rect x="26" y="50" width="2" height="2"/><rect x="30" y="50" width="2" height="2"/><rect x="34" y="50" width="2" height="2"/></g><text x="0" y="79" fill="#000000" font-size="5px" font-weight="bold" font-family="'Helvetica Neue', Helvetica, Arial-Unicode, Arial, Sans-serif">Created by Nhor</text><text x="0" y="84" fill="#000000" font-size="5px" font-weight="bold" font-family="'Helvetica Neue', Helvetica, Arial-Unicode, Arial, Sans-serif">from the Noun Project</text></svg>