<svg height="464pt" viewBox="0 0 464 464" width="464pt" xmlns="http://www.w3.org/2000/svg"><path d="m48 0h376c8.835938 0 16 7.164062 16 16v224c0 8.835938-7.164062 16-16 16h-376c-8.835938 0-16-7.164062-16-16v-224c0-8.835938 7.164062-16 16-16zm0 0" fill="#e6ac69"/><path d="m16 72h88c8.835938 0 16 7.164062 16 16v48c0 8.835938-7.164062 16-16 16h-104v-64c0-8.835938 7.164062-16 16-16zm0 0" fill="#ffbf75"/><path d="m0 152h32v32h-16c-8.835938 0-16-7.164062-16-16zm0 0" fill="#cc995e"/><path d="m96 112c0 8.835938-7.164062 16-16 16s-16-7.164062-16-16 7.164062-16 16-16 16 7.164062 16 16zm0 0" fill="#b38652"/><path d="m288 48h72v16h-72zm0 0" fill="#55965c"/><path d="m194.796875 105.929688 56-48 10.40625 12.140624-56 48zm0 0" fill="#55965c"/><path d="m144 112h24v16h-24zm0 0" fill="#55965c"/><path d="m392 48h24v16h-24zm0 0" fill="#55965c"/><path d="m264 40h16c4.417969 0 8 3.582031 8 8v16c0 4.417969-3.582031 8-8 8h-16c-4.417969 0-8-3.582031-8-8v-16c0-4.417969 3.582031-8 8-8zm0 0" fill="#55965c"/><path d="m280 80h-16c-8.832031-.011719-15.988281-7.167969-16-16v-16c.011719-8.832031 7.167969-15.988281 16-16h16c8.832031.011719 15.988281 7.167969 16 16v16c-.011719 8.832031-7.167969 15.988281-16 16zm-16-32v16h16.015625l-.015625-16zm0 0" fill="#73c97c"/><path d="m368 40h16c4.417969 0 8 3.582031 8 8v16c0 4.417969-3.582031 8-8 8h-16c-4.417969 0-8-3.582031-8-8v-16c0-4.417969 3.582031-8 8-8zm0 0" fill="#55965c"/><path d="m384 80h-16c-8.832031-.011719-15.988281-7.167969-16-16v-16c.011719-8.832031 7.167969-15.988281 16-16h16c8.832031.011719 15.988281 7.167969 16 16v16c-.011719 8.832031-7.167969 15.988281-16 16zm-16-32v16h16.015625l-.015625-16zm0 0" fill="#73c97c"/><path d="m240 128h16v16h-16zm0 0" fill="#b38652"/><path d="m176 104h16c4.417969 0 8 3.582031 8 8v16c0 4.417969-3.582031 8-8 8h-16c-4.417969 0-8-3.582031-8-8v-16c0-4.417969 3.582031-8 8-8zm0 0" fill="#55965c"/><path d="m192 144h-16c-8.832031-.011719-15.988281-7.167969-16-16v-16c.011719-8.832031 7.167969-15.988281 16-16h16c8.832031.011719 15.988281 7.167969 16 16v16c-.011719 8.832031-7.167969 15.988281-16 16zm-16-32v16h16.015625l-.015625-16zm0 0" fill="#73c97c"/><path d="m272 128h112v16h-112zm0 0" fill="#b38652"/><path d="m400 128h16v16h-16zm0 0" fill="#b38652"/><path d="m256 96h16v16h-16zm0 0" fill="#b38652"/><path d="m288 96h96v16h-96zm0 0" fill="#b38652"/><path d="m400 96h16v16h-16zm0 0" fill="#b38652"/><path d="m384 392h-296c-8.835938 0-16-7.164062-16-16v-176c0-8.835938 7.164062-16 16-16h296c8.835938 0 16 7.164062 16 16v176c0 8.835938-7.164062 16-16 16zm0 0" fill="#d6d6d6"/><path d="m400 296h-328v-72h328zm0 0" fill="#707070"/><path d="m448 464h-296c-8.835938 0-16-7.164062-16-16v-176c0-8.835938 7.164062-16 16-16h296c8.835938 0 16 7.164062 16 16v176c0 8.835938-7.164062 16-16 16zm0 0" fill="#efefef"/><path d="m416 368h-48c-8.835938 0-16-7.164062-16-16v-48c0-8.835938 7.164062-16 16-16h48c8.835938 0 16 7.164062 16 16v48c0 8.835938-7.164062 16-16 16zm0 0" fill="#ffd04a"/><path d="m272 424h-24c-4.417969 0-8-3.582031-8-8v-24c0-4.417969 3.582031-8 8-8h24c4.417969 0 8 3.582031 8 8v24c0 4.417969-3.582031 8-8 8zm0 0" fill="#75c1ff"/><path d="m200 424h-24c-4.417969 0-8-3.582031-8-8v-24c0-4.417969 3.582031-8 8-8h24c4.417969 0 8 3.582031 8 8v24c0 4.417969-3.582031 8-8 8zm0 0" fill="#73c97c"/><path d="m376 368h16v-24h40v-16h-40c-8.832031.007812-15.992188 7.167969-16 16zm0 0" fill="#e6bb43"/><path d="m376 288h16v24h-16zm0 0" fill="#e6bb43"/><g fill="#bcbcbc"><path d="m312 304h16v16h-16zm0 0"/><path d="m192 304h104v16h-104zm0 0"/><path d="m160 304h16v16h-16zm0 0"/><path d="m312 336h16v16h-16zm0 0"/><path d="m192 336h104v16h-104zm0 0"/><path d="m160 336h16v16h-16zm0 0"/><path d="m416 400h16v16h-16zm0 0"/><path d="m384 400h16v16h-16zm0 0"/><path d="m352 400h16v16h-16zm0 0"/><path d="m320 400h16v16h-16zm0 0"/></g></svg>