<svg id="Capa_1" enable-background="new 0 0 512 512" height="512" viewBox="0 0 512 512" width="512" xmlns="http://www.w3.org/2000/svg"><g><path d="m120.695 346.058h-91.046c-8.284 0-14.999 6.716-14.999 14.999v74.946c0 8.284 6.715 14.999 14.999 14.999h91.045c8.284 0 14.999-6.715 14.999-14.999v-74.946c.001-8.283-6.715-14.999-14.998-14.999z" fill="#fbbd43"/><path d="m285.637 433.475v-222.41c0-8.284-6.715-14.999-14.999-14.999h-90.495c-8.284 0-14.999 6.715-14.999 14.999v224.939c0 8.284 6.715 14.999 14.999 14.999h90.708c8.284 0 14.999-6.715 14.999-14.999-.001-.862-.074-1.707-.213-2.529z" fill="#ff8a66"/><path d="m285.849 436.004c0 8.28-6.72 14.999-14.999 14.999h-45.358v-254.937h45.148c8.28 0 14.999 6.72 14.999 14.999v222.409c.14.82.21 1.67.21 2.53z" fill="#f97658"/><path d="m420.88 49.023h-90.495c-8.284 0-14.999 6.715-14.999 14.999v372.255c0 3.979 1.581 7.796 4.396 10.609 2.813 2.811 6.627 4.39 10.603 4.39h.008l90.495-.048c8.281-.004 14.991-6.718 14.991-14.999v-372.207c0-8.283-6.715-14.999-14.999-14.999z" fill="#e25c3d"/><circle cx="362.357" cy="377.007" fill="#fbbd43" r="134.993"/><path d="m497.348 377.007c0 74.436-60.557 134.993-134.993 134.993v-269.987c74.436 0 134.993 60.557 134.993 134.994z" fill="#f19637"/><circle cx="362.357" cy="377.007" fill="#fedd33" r="104.995"/><path d="m467.349 377.007c0 57.897-47.098 104.995-104.995 104.995v-209.99c57.898 0 104.995 47.098 104.995 104.995z" fill="#fbbd43"/><path d="m383.261 334.375-63.637 63.636c-5.858 5.857-5.858 15.355 0 21.212 2.929 2.929 6.767 4.393 10.606 4.393s7.677-1.465 10.606-4.393l63.636-63.636c5.858-5.857 5.858-15.355 0-21.212-5.856-5.857-15.354-5.857-21.211 0z" fill="#fbbd43"/><path d="m404.473 355.588-42.118 42.118v-42.418l20.909-20.909c5.85-5.86 15.349-5.86 21.209 0 5.859 5.85 5.859 15.349 0 21.209z" fill="#f19637"/><circle cx="329.488" cy="344.168" fill="#fbbd43" r="14.949"/><path d="m382.625 397.304c-5.838 5.838-5.838 15.303 0 21.141s15.303 5.838 21.141 0 5.838-15.303 0-21.141-15.303-5.838-21.141 0z" fill="#f19637"/><path d="m281.201.797-89.971 30.023c-10.553 3.521-13.739 16.954-5.858 24.834l19.394 19.394-184.424 184.425c-5.86 5.86-5.86 15.359 0 21.209 5.872 5.872 15.348 5.861 21.209 0l184.424-184.425 19.369 19.369c7.927 7.929 21.334 4.641 24.836-5.863l29.999-89.996c3.903-11.71-7.274-22.877-18.978-18.97z" fill="#33bee8"/><path d="m300.178 19.764-29.999 89.996c-3.5 10.509-16.909 13.799-24.839 5.87l-19.369-19.369-.48.48v-77.357l55.707-18.589c11.71-3.909 22.88 7.26 18.98 18.969z" fill="#2ba6e3"/></g></svg>