<svg xmlns="http://www.w3.org/2000/svg" viewBox="0 0 862.26 783.44"><defs><style>.cls-1{isolation:isolate;}.cls-2{fill:#d7edf9;}.cls-3,.cls-7{fill:#e8f2f8;}.cls-29,.cls-3{mix-blend-mode:multiply;}.cls-4{fill:#142b6b;}.cls-5{fill:#28a03f;}.cls-6{fill:#35b151;}.cls-8{fill:#afd1ef;}.cls-9{fill:#dcf4ff;}.cls-10{fill:#3b7aa7;}.cls-11{fill:#216384;}.cls-12{fill:#fff;}.cls-13{fill:#0d275b;}.cls-14,.cls-20,.cls-28{fill:none;stroke-linecap:round;stroke-linejoin:round;}.cls-14{stroke:#fff;stroke-width:1.04px;}.cls-15{fill:#6f8be8;}.cls-16{fill:#032f45;}.cls-17{fill:#f0b037;}.cls-18{fill:#ffd482;}.cls-19{fill:#f2c97b;}.cls-20{stroke:#ffd482;stroke-width:1.59px;}.cls-21{fill:#fffcfa;}.cls-22{fill:#ed5353;}.cls-23{fill:#a7bbe6;}.cls-24{fill:#3457b8;}.cls-25{fill:#f0a548;}.cls-26{fill:#c6d2f2;}.cls-27{fill:#ffba63;}.cls-28{stroke:#142b6b;}.cls-29{fill:#e8eefa;}</style></defs><title>fthb-splash-illo</title><g class="cls-1"><g id="Layer_2" data-name="Layer 2"><g id="image"><path class="cls-2" d="M180.59,320s-39-187.11,122.62-237.16C443.28,39.48,437.86-16.37,549.33,4.53s110.39,144.27,220.55,197c90.53,43.31,178.83,367.29-69.81,384.82C545.11,597.24,180.59,320,180.59,320Z"/><path class="cls-3" d="M147.51,520.05c-1.54-8.82-16.17-14.53-32.69-12.75q-1.65.18-3.24.45c-8.08-3.32-18.89-4.77-30.38-3.54-22.32,2.41-38.74,14-36.67,25.94,2,11.75,21.27,19.4,43.18,17.32,4.86,6.17,17.1,9.73,30.61,8.27,16.52-1.78,28.67-10.37,27.14-19.19A10.65,10.65,0,0,0,142.4,531C146.21,527.75,148.18,523.92,147.51,520.05Z"/><path class="cls-4" d="M83,480.31c22.69-.86,38.84-28.68,37.93-49.32-.34-7.71-12.37-7.75-12,0,.34,7.57,6.16,14.11,1.92,20.5-4.43,6.68-9.76,21.92-27.43,21-7.71-.41-8.14,8.15-.39,7.86Z"/><path class="cls-4" d="M77.7,541.6h0c-2.55,0-4.64-2.56-4.64-5.69V457.18c0-3.13,2.09-5.69,4.64-5.69h0c2.56,0,4.64,2.56,4.64,5.69v78.73C82.34,539,80.26,541.6,77.7,541.6Z"/><ellipse class="cls-5" cx="72.81" cy="370.21" rx="48.73" ry="42.72" transform="translate(-37.03 9.25) rotate(-5.8)"/><ellipse class="cls-5" cx="86.85" cy="416.61" rx="48.73" ry="42.72" transform="translate(-41.65 10.91) rotate(-5.8)"/><path class="cls-5" d="M81.4,401.06c0,17.49-16.17,31.67-36.11,31.67S9.17,418.55,9.17,401.06s23-31.09,43-31.09S81.4,383.57,81.4,401.06Z"/><path class="cls-6" d="M108.77,353.39c11.92-.28,25.86,10.25,26.18,23.84s-10.28,27.54-22.2,27.83S90.91,394.56,90.58,381,96.86,353.68,108.77,353.39Z"/><ellipse class="cls-6" cx="71.24" cy="363.95" rx="21.05" ry="31.56" transform="translate(-299.1 344.35) rotate(-75.9)"/><ellipse class="cls-6" cx="44.35" cy="401.35" rx="12.33" ry="18.48" transform="translate(-358.43 372.88) rotate(-79.65)"/><path class="cls-7" d="M418,749.05l190,6.19a133.47,133.47,0,0,0,73.26-19.09l150.9-90.92a23.16,23.16,0,0,0-.72-40.1L688.11,525.67Z"/><polygon class="cls-8" points="141.58 581.94 141.58 349.85 232.59 296.28 271.25 301.36 418 446.26 418 741.42 365.04 710.85 365.04 710.96 141.58 581.94"/><polygon class="cls-9" points="418 446.54 455.38 424.96 455.38 424.18 458.55 423.13 610.87 380.35 618.66 372.76 704.83 391.47 701.44 578.05 483.84 703.68 483.84 703.41 418 741.42 418 446.54"/><polygon class="cls-10" points="539.57 148.8 704.83 380.35 420.99 540.76 258.63 301.26 539.57 148.8"/><polygon class="cls-11" points="258.63 301.26 98.49 368.49 169.98 321.76 434.05 185.35 539.57 148.8 258.63 301.26"/><polygon class="cls-12" points="704.83 380.35 704.83 391.47 420.78 550.77 420.94 540.76 704.83 380.35"/><polygon class="cls-12" points="420.78 550.77 258.63 315.59 258.63 301.26 420.99 540.76 420.78 550.77"/><polygon class="cls-12" points="258.63 315.59 98.49 380.35 98.49 368.49 258.63 301.26 258.63 315.59"/><polygon class="cls-11" points="207.71 532.73 158.66 504.41 158.66 425.2 207.71 453.51 207.71 532.73"/><polygon class="cls-12" points="207.71 532.73 207.71 453.52 167.22 430.14 167.22 509.35 207.71 532.73"/><polygon class="cls-11" points="207.7 521.54 207.7 461.75 177.14 444.1 177.14 503.9 207.7 521.54"/><polygon class="cls-11" points="377.34 622.08 328.3 593.76 328.3 514.55 377.34 542.87 377.34 622.08"/><polygon class="cls-12" points="377.34 622.08 377.34 542.87 336.86 519.49 336.86 598.71 377.34 622.08"/><polygon class="cls-11" points="377.34 610.9 377.34 551.1 346.78 533.45 346.78 593.25 377.34 610.9"/><polygon class="cls-10" points="490.52 619.44 539.57 591.12 539.57 511.91 490.52 540.23 490.52 619.44"/><polygon class="cls-12" points="490.52 619.44 490.52 540.23 531 516.86 531 596.07 490.52 619.44"/><polygon class="cls-10" points="490.52 608.26 490.52 548.46 521.09 530.81 521.09 590.61 490.52 608.26"/><polygon class="cls-10" points="598.41 559.22 647.46 530.9 647.46 451.69 598.41 480.01 598.41 559.22"/><polygon class="cls-12" points="598.41 559.22 598.41 480.01 638.9 456.63 638.9 535.85 598.41 559.22"/><polygon class="cls-10" points="598.42 548.04 598.42 488.24 628.98 470.59 628.98 530.39 598.42 548.04"/><polygon class="cls-13" points="418 749.05 418 717.57 141.43 558.06 141.43 589.49 418 749.05"/><polygon class="cls-11" points="418 749.05 418 717.57 701.88 553.85 700.07 586.32 418 749.05"/><polygon class="cls-11" points="234.22 461.65 234.22 617.84 291.22 650.76 291.22 650.63 304.82 658.48 304.82 502.28 234.22 461.65"/><polygon class="cls-12" points="253.72 629.11 291.22 650.76 291.22 650.63 304.82 658.48 304.82 502.28 253.72 472.87 253.72 629.11"/><polygon class="cls-11" points="299.7 550.77 265.92 531.26 265.92 493.85 299.7 513.35 299.7 550.77"/><path class="cls-11" d="M259.42,565.33h0a4.92,4.92,0,0,1-2.44-3.78V550.8c0-1.35,1.1-1.84,2.44-1.1h0a4.93,4.93,0,0,1,2.44,3.79v10.75C261.86,565.58,260.76,566.07,259.42,565.33Z"/><polygon class="cls-13" points="151.39 631.44 151.39 661.1 290.33 741.32 348.96 707.47 348.96 677.81 151.39 631.44"/><polygon class="cls-10" points="348.96 677.81 210.02 597.59 151.39 631.44 290.33 711.66 348.96 677.81"/><polygon class="cls-7" points="290.33 741.32 418 749.05 348.96 707.47 290.33 741.32"/><line class="cls-14" x1="141.43" y1="366.38" x2="141.43" y2="558.06"/><path class="cls-15" d="M430.5,399.7,577,318.86c5.78-3.19,4.39-9.47-3.1-13.95h0c-7.48-4.48-18.34-5.53-24.12-2.34L403.28,383.41c-5.78,3.19-4.39,9.46,3.09,13.94h0C413.86,401.83,424.71,402.89,430.5,399.7Z"/><path class="cls-16" d="M444.36,409.07l146.53-80.84c5.78-3.19,4.39-9.46-3.1-13.94h0c-7.48-4.48-18.34-5.54-24.12-2.35L417.14,392.78c-5.78,3.19-4.39,9.47,3.09,14h0C427.72,411.21,438.57,412.26,444.36,409.07Z"/><path class="cls-17" d="M448.74,359.88c-3.63-1.28-27.23-16.59-29.94-19.86-9.66-8.82-15.08-23.13-14.19-41.44,2-40.18,33.54-84.34,70.52-98.63,17.24-6.66,31.12-7.64,43.34-.74,6.8,3.42,25.2,13.9,25.2,13.9,3.39,3.29-3.23,4.76-1,9.41,4.79,8.36,7.24,19.15,6.61,31.88-2,40.18-33.53,84.34-70.52,98.63C463.14,359,459.64,365.17,448.74,359.88Z"/><ellipse class="cls-12" cx="495.24" cy="286.01" rx="87.46" ry="57.45" transform="translate(-17.43 539.45) rotate(-56.31)"/><ellipse class="cls-18" cx="497.95" cy="287.59" rx="87.46" ry="57.45" transform="translate(-17.53 542.41) rotate(-56.31)"/><ellipse class="cls-12" cx="499.29" cy="288.29" rx="61.14" ry="40.17" transform="translate(-17.53 543.84) rotate(-56.31)"/><path class="cls-19" d="M542.56,268.41c-1.61,29.13-24.19,60.53-50.44,70.14-10.46,3.83-19.92,3.62-27.42.14,8,5.71,19.12,6.94,31.68,2.34,26.25-9.61,48.83-41,50.43-70.14,1-17.52-5.87-30.22-17.18-35.47C538.36,241.65,543.4,253.22,542.56,268.41Z"/><path class="cls-18" d="M502.28,258.78c5-1.29,10.87-1.3,14.75.89l-5.71,10.63c-4.23-1.64-7.91-1.95-12-.4-4.76,1.81-6.95,4.6-7.07,8.58-.28,8.9,22.16.21,21.68,15.77-.26,8.47-5.38,16.22-13.41,20.89l-.28,8.91L492,327.18l.27-8.73a14.29,14.29,0,0,1-12.45-2.28l6.52-9.65a9.63,9.63,0,0,0,9.13.8c4.08-1.55,6.34-4,6.46-7.92.25-8.21-22.2,1-21.69-15.51.26-8.3,5-16.4,13.77-21.63l.28-9,8.24-3.13Z"/><line class="cls-20" x1="443.96" y1="257.63" x2="422.71" y2="245.53"/><line class="cls-20" x1="433.55" y1="277.58" x2="412.95" y2="265.69"/><line class="cls-20" x1="427.36" y1="298.69" x2="406.76" y2="286.8"/><line class="cls-20" x1="425.92" y1="320.02" x2="406.92" y2="309.05"/><line class="cls-20" x1="430.87" y1="341.05" x2="411.84" y2="329.47"/><line class="cls-20" x1="458.07" y1="238.63" x2="437.56" y2="226.6"/><line class="cls-20" x1="474.65" y1="223.57" x2="454.14" y2="211.54"/><line class="cls-20" x1="493.64" y1="212.45" x2="474.73" y2="201.36"/><line class="cls-20" x1="515.31" y1="206.92" x2="495.82" y2="196.08"/><path class="cls-21" d="M616,163c.29-19-7.52-37.78-19.34-44.6a19,19,0,0,0-5.59-2.19c-3.48-17-11.82-31.78-23-38.21-11.39-6.57-22.88-2.83-30.75,8.21a28.25,28.25,0,0,0-7.29-6.27c-11.83-6.82-24.58,7.64-17.17,23.53Z"/><path class="cls-21" d="M340.65,193c.2-12.91-5.11-25.71-13.16-30.36a12.88,12.88,0,0,0-3.81-1.48c-2.36-11.59-8.05-21.64-15.63-26-7.75-4.48-15.58-1.93-20.93,5.58a19,19,0,0,0-5-4.26c-8-4.65-16.73,5.2-11.68,16Z"/><path class="cls-21" d="M740.67,308.22c.2-12.92-5.12-25.71-13.16-30.36a13,13,0,0,0-3.81-1.49c-2.37-11.58-8.05-21.63-15.63-26-7.75-4.47-15.58-1.92-20.94,5.59a19.22,19.22,0,0,0-5-4.27c-8-4.64-16.73,5.2-11.68,16Z"/><polygon class="cls-11" points="290.33 741.32 290.33 711.66 348.96 677.81 348.96 707.47 290.33 741.32"/><path class="cls-3" d="M0,741.78c.56-10.69,19.57-19.57,40-18.49,17.76.93,38.6,8.34,41.75,17.26,13.77-1.16,28.23,1,38.3,6.32,16.16,8.61,14.87,22.28-2.88,30.55s-45.24,8-61.4-.61c-7.73-4.12-11.46-9.4-11.3-14.69h-.17C23.88,761-.55,752.48,0,741.78Z"/><path class="cls-4" d="M55.7,734.25,62.91,736c5.4-.34,8.15-1.09,9.75.88l.46.56c1.6,2,.55,3.95-2.35,4.42l-13.18,4.19a7.16,7.16,0,0,1-7.18-3.56s-.74-1.46,1.71-5.45C53.51,734.77,53.39,734.62,55.7,734.25Z"/><path class="cls-22" d="M25.41,681.77,7.76,724.91c-2,5.3,4.78,6,6.81,3.05l24.07-54.6Z"/><path class="cls-22" d="M52,641.19l.39,96.4c-.06,6,6.35,4.31,7.2.68l6.29-89.55Z"/><path class="cls-4" d="M73.58,613.94,61.14,729.88s-4.92,6.85-10.71-.56c-2.27-18.37-3.43-35.39.25-46.47l.27-50-1.34-20.21Z"/><path class="cls-4" d="M51.14,618.89l-7.53,52a14.43,14.43,0,0,1-1.31,4.26L22.4,715.92s-8.64,4.72-12.18-5c5.57-22.72,12-36.43,19.12-42.4A7.72,7.72,0,0,0,30,666l5.2-54.58Z"/><path class="cls-4" d="M60.25,651.32l-20-9.17a11.79,11.79,0,0,1-6.71-12.72l1.92-11.15,34,16.9Z"/><path class="cls-22" d="M64.4,559.19c-.19,6.68-5.05,7.67-10,4.61a17.69,17.69,0,0,1-8-15.68c.19-6.69,4.37-9.63,9.34-6.57S64.58,552.5,64.4,559.19Z"/><path class="cls-22" d="M70.45,555.52c-.18,6.69-6.28,10.66-11.25,7.6s-8.85-11-8.66-17.64,4.36-9.63,9.33-6.57S70.64,548.84,70.45,555.52Z"/><path class="cls-22" d="M52.07,579l-.6-.22c-2-.75-1.86-3.59-.88-6.27l4.48-15c1-2.68,3.45-4.26,5.49-3.51l.61.22c2,.75,2.9,3.55,1.92,6.22l-3.69,15.1C58.42,578.15,54.11,579.73,52.07,579Z"/><path class="cls-4" d="M49.05,559.68S50.32,563,57,562c6.36-1,3.23-10.2,9-12.71,6.3-2.76,4.93-10,1.54-12.44s-11.06-2.22-15.71,1.44S41.79,545.11,49.05,559.68Z"/><path class="cls-22" d="M64.65,555.05a2.95,2.95,0,1,1-2.86-3A2.94,2.94,0,0,1,64.65,555.05Z"/><path class="cls-23" d="M36.78,586.35l-4.63,37.07s-4.16,4.23,15.7,11.31c16,5.71,28.07,4.34,29.14,2.5l-1-41.07,14.23,9.77a48.37,48.37,0,0,0-21.41-32c-3.45-2.19-8.57-4.87-12.77-7-6.23-3.12-6.76-3.55-12.85-.16C43.05,566.87,37.22,580.31,36.78,586.35Z"/><path class="cls-23" d="M55.48,546.93c.55,4-1.78,7.58-5.2,8.06s-6.65-2.37-7.19-6.35,1.78-7.58,5.2-8S54.93,543,55.48,546.93Z"/><path class="cls-12" d="M61.76,569.84s-5.77-5-10.34-4.51C51.42,565.33,51.37,571.4,61.76,569.84Z"/><path class="cls-22" d="M36.55,578.71h0a4.43,4.43,0,0,1,2.27,5.81l-.79,1.8a4.43,4.43,0,0,1-5.81,2.27h0A4.43,4.43,0,0,1,30,582.78l.79-1.8A4.43,4.43,0,0,1,36.55,578.71Z"/><rect class="cls-24" x="68.9" y="645.84" width="29.32" height="18.59" transform="translate(218.21 8.57) rotate(19.03)"/><path class="cls-25" d="M89.16,570.87,68.75,602c-2.93,5.21-13.06,7-18.28,3.17L33.36,590.11l5.72-8.3,14.33,10s6.44-20.27,12.27-23.18S89.16,570.87,89.16,570.87Z"/><path class="cls-4" d="M64,747.76l7.45-1.27c4.92-2.49,7.19-4.29,9.48-3.1l.65.34c2.28,1.19,2.1,3.47-.41,5.07L70.48,758a7.28,7.28,0,0,1-8.15-.44s-1.28-1.06-.6-5.78C62.12,749.13,61.94,749,64,747.76Z"/><path class="cls-4" d="M95.18,760.25l7.42,1.4c5.48-.63,8.24-1.54,10,.37l.49.54c1.73,1.92.77,4-2.15,4.62l-13.18,5a7.25,7.25,0,0,1-7.48-3.24s-.84-1.43,1.44-5.63C93,760.89,92.85,760.75,95.18,760.25Z"/><path class="cls-26" d="M100.35,762.08c0,3.75-9.13,3.75-9.13,0v-12.2h9.13Z"/><path class="cls-10" d="M101.5,754.37c-1.15,4.75-10.64,4.41-12.49,1.33-1.88-14.43-7.49-35.43-1-48.93l-4.19-78.46,23.38.31A1189.61,1189.61,0,0,1,101.5,754.37Z"/><path class="cls-26" d="M71.07,748.94c-.06,3.41-9.19,3.81-9.13.4l.2-11.07,9.12-.39Z"/><path class="cls-10" d="M72.64,744c-3.48,3.91-10.72,2.62-12.22,0-3.08-17.47-5-37.24,0-50.13l0-60,23.08,2.4Z"/><ellipse class="cls-22" cx="87.31" cy="553.63" rx="7.98" ry="14.09" transform="translate(-153.9 47.72) rotate(-16.53)"/><path class="cls-22" d="M102.24,556.9c-.8,6.69-7.28,10.11-12,6.59s-7.86-11.81-7.06-18.5,5.27-9.26,10-5.74S103.05,550.21,102.24,556.9Z"/><path class="cls-22" d="M84,577.87l-.71-.32c-2.4-1.07-2.28-3.77-1.21-6.17l4.83-13.69a4.8,4.8,0,0,1,6.32-2.42l.71.32a4.79,4.79,0,0,1,2.42,6.31l-3.89,13.88C91.37,578.18,86.37,578.94,84,577.87Z"/><path class="cls-4" d="M80.39,559.09s1,3.45,7.75,3.06c6.47-.36,4.18-9.93,10.16-11.92,6.57-2.19,5.87-9.57,2.69-12.34s-10.88-3.25-15.89,0S74.45,543.81,80.39,559.09Z"/><path class="cls-22" d="M98.3,554.86a3,3,0,1,1-2.59-3.3A3,3,0,0,1,98.3,554.86Z"/><path class="cls-27" d="M57.4,633.45c1.35-14.6,1.12-25.25,1.35-41C57.4,552.73,89.12,568.09,91,569.05c19.69,10.14,21,11.88,20.4,23.52.09,19.38.91,42.63.5,52.16C107.82,658.13,61.9,643,57.4,633.45Z"/><path class="cls-4" d="M36.17,553.29c-2.25,6.68-3,24.84,1.42,25,14.48.66,11.35-13.29,13.6-20s.71-13.24-3.44-14.63S38.42,546.6,36.17,553.29Z"/><path class="cls-4" d="M16.48,724.86,14.32,731c-.16,4.77.26,7.24-1.6,8.48l-.52.35c-1.86,1.24-3.52.14-3.68-2.43L6,725.53a6.32,6.32,0,0,1,3.73-6s1.34-.53,4.63,2C16.2,722.91,16.34,722.81,16.48,724.86Z"/><path class="cls-12" d="M97.37,572.15s-12.71-8.59-19.79-7.77C77.58,564.38,81.24,574.57,97.37,572.15Z"/><path class="cls-27" d="M109.64,581.2s5.57,7.75,6.07,30.61l-13.84,3.84L99.81,591.2Z"/><path class="cls-25" d="M111.88,644.73l-4.65-48.53L98.32,594,94.8,649.67S109.6,652.85,111.88,644.73Z"/><path class="cls-22" d="M130.92,670.89h0a3.47,3.47,0,0,0,1.88-4.54l-2.15-5.19a3.48,3.48,0,0,0-4.54-1.89h0a3.5,3.5,0,0,0-1.89,4.55l2.15,5.19A3.48,3.48,0,0,0,130.92,670.89Z"/><path class="cls-27" d="M115,601.56l2.87,26.75,13.6,31.88-7.77,3L106,635a14.13,14.13,0,0,1-1.89-4.8l-8.33-42.6Z"/><path class="cls-10" d="M80.77,663.65l-6.85-3.36c-2-.62-3.5,2.2-3.56,4.27-.24,9-.86,29.64-1.49,30.76-.73,1.28-3.7,36.36,0,50.82A7.25,7.25,0,0,0,72.64,744Z"/><line class="cls-28" x1="705.67" y1="396.33" x2="705.67" y2="426.54"/><ellipse class="cls-29" cx="724.08" cy="630.32" rx="45.8" ry="24.59"/><path class="cls-4" d="M724.08,633.17h0a4.46,4.46,0,0,1-4.45-4.45V565.78a4.46,4.46,0,0,1,4.45-4.45h0a4.46,4.46,0,0,1,4.46,4.45v62.94A4.46,4.46,0,0,1,724.08,633.17Z"/><path class="cls-6" d="M764.51,504.75a55.29,55.29,0,0,0,.49-7.34,52.28,52.28,0,0,0-9.19-30A44.2,44.2,0,0,0,757,457.07c0-21.15-14.76-38.3-33-38.3s-33,17.15-33,38.3a44.2,44.2,0,0,0,1.22,10.33,52.35,52.35,0,0,0-9.18,30,55.29,55.29,0,0,0,.49,7.34c-10.06,8.58-16.27,20.34-16.27,33.33,0,26.26,25.38,47.55,56.69,47.55s56.7-21.29,56.7-47.55C780.78,525.09,774.57,513.33,764.51,504.75Z"/><path class="cls-5" d="M764.51,504.75a55.29,55.29,0,0,0,.49-7.34,52.28,52.28,0,0,0-9.19-30A44.2,44.2,0,0,0,757,457.07c0-15.95-8.4-29.62-20.33-35.38-12.63,78.74,23.95,114.53-31,161.36a66.2,66.2,0,0,0,18.41,2.58c31.32,0,56.7-21.29,56.7-47.55C780.78,525.09,774.57,513.33,764.51,504.75Z"/></g></g></g></svg>