<svg id="Capa_1" enable-background="new 0 0 498.009 498.009" height="512" viewBox="0 0 498.009 498.009" width="512" xmlns="http://www.w3.org/2000/svg"><g id="_x3C_Group_x3E__31_"><path d="m394.434 264.034c-54.589 0-89.696-38.257-89.696-92.846 0-34.118 12.619-63.813 38.957-81.622 15.803-10.685 34.843-16.931 55.313-16.931 54.589 0 99 44.411 99 99 0 28.273-11.913 53.815-30.983 71.872-17.75 16.807-46.275 20.527-72.591 20.527z" fill="#6d7c84"/><path d="m471.094 239.406c-18.825 11.675-43.712 16.747-66.472 13.053-1.899-.308-3.446-1.664-4.02-3.5-.981-3.14-2.057-6.257-3.238-9.343-40.659-.564-72.295-38.593-65.49-78.79-2.669-1.643-5.383-3.202-8.138-4.678-1.696-.909-2.743-2.685-2.684-4.609.767-24.97 10.833-47.647 26.852-64.663-21.874 13.236-38.226 34.696-44.766 60.055-.005-.002-.009-.003-.014-.005-17.473 63.843 36.57 129.055 102.61 123.48 0-.002-.001-.003-.001-.005 25.696-1.733 48.74-13.306 65.361-30.995z" fill="#5f6c75"/><path d="m460.312 171.636 6.288 7.5c-3.463 31.565-28.53 56.63-60.096 60.091-2.461.27-6.607-3.311-9.14-3.311-37.555 0-60.966-25.083-60.966-62.638 0-3.679-5.096-8.932-4.534-12.453 4.791-29.99 29.19-53.436 59.639-56.78l7.506 7.682 7.495-7.683c31.566 3.461 56.633 28.527 60.096 60.093z" fill="#f7f9fa"/><path d="m93.279 264.034c-54.037 0-87.827-38.289-87.827-92.326 0-26.348 4.999-50.374 21.974-68.003 17.839-18.527 42.883-30.07 70.572-30.07 49.489 0 90.528 36.873 97.085 84.59.603 4.385-5.346 15.999-5.346 20.547 0 26.91-3.41 45.501-22.263 61.912-19.749 17.192-47.068 23.35-74.195 23.35z" fill="#ffd064"/><path d="m195.074 158.226c-10.56 4.07-20.64 9.35-30.06 15.79-.6 17.14-7.62 32.64-18.74 44.17-8.45 8.76-19.27 13.08-31.42 14.9-3.185 6.995-5.759 14.257-7.725 21.713-.371 1.407-1.676 2.341-3.127 2.247-51.076-3.295-91.626-45.892-91.626-97.786 0-23.876 8.578-45.782 22.819-62.803-22.467 18.805-36.417 47.479-35.111 79.284 2.073 50.497 42.861 91.483 93.348 93.79 28.91 1.321 55.261-9.973 74.015-28.823.009-.008.018-.015.027-.022 18.85-16.41 28.52-42.14 28.52-69.05 0-4.55-.31-9.03-.92-13.41z" fill="#ffc250"/><path d="m165.058 171.634c0 18.079-7.154 34.487-18.786 46.548-12.197 12.646-29.314 16.036-48.271 16.036-37.036 0-61.436-25.474-61.436-62.51 0-19.276 2.508-36.726 15.529-48.958 11.997-11.271 28.145-18.174 45.905-18.174 37.035-.001 67.059 30.023 67.059 67.058z" fill="#ffc250"/><path d="m150.786 213.001c-12.281 15.641-31.359 25.694-52.788 25.694-37.033 0-67.059-30.026-67.059-67.059 0-21.429 10.053-40.517 25.694-52.788-8.939 11.396-14.27 25.752-14.27 41.364 0 37.033 30.026 67.059 67.059 67.059 15.604.001 29.969-5.331 41.364-14.27z" fill="#ebb044"/><path d="m106.003 164.662c-1.889-.668-3.596-1.174-5.102-1.622-4.224-1.255-5.758-1.778-7.225-3.523-.486-.579-.849-1.998-.495-3.744.192-.946.891-3.277 3.234-4.475 3.39-1.729 7.255 1.328 7.685 1.682 3.041 2.507 7.542 2.078 10.051-.966 2.509-3.042 2.077-7.542-.966-10.051-2.205-1.818-4.971-3.423-8.046-4.424v-2.015c0-3.944-3.196-7.14-7.14-7.14s-7.14 3.196-7.14 7.14v2.63c-.313.14-.627.268-.94.428-5.546 2.834-9.459 8.065-10.733 14.354-1.179 5.816.15 11.709 3.555 15.765 4.299 5.117 9.276 6.596 14.09 8.028 1.411.418 2.869.853 4.42 1.399 4.183 1.476 4.608 4.481 4.228 6.742-.535 3.193-3.228 6.643-7.873 6.673-5.219.031-6.563-.178-10.427-2.702-3.301-2.156-7.726-1.228-9.882 2.074-2.156 3.301-1.228 7.726 2.074 9.882 4.37 2.855 7.671 4.139 11.487 4.677v2.418c0 3.944 3.196 7.14 7.14 7.14s7.14-3.196 7.14-7.14v-3.351c8.071-2.873 13.22-10.138 14.423-17.308 1.688-10.044-3.761-19.115-13.558-22.571z" fill="#ffd064"/><path d="m165.014 174.016c-.6 17.14-7.62 32.64-18.74 44.17-8.45 8.76-19.27 13.08-31.42 14.9 6.85-15.13 16.48-29.05 28.65-41.22 6.68-6.68 13.88-12.65 21.51-17.85z" fill="#ebb044"/><path d="m397.364 239.616c-1.345-.032-2.686-2.433-4.01-2.542-.621-.051-1.235 2.22-1.851 2.152-31.563-3.463-56.618-28.532-60.08-60.09-.27-2.463 6.06-4.047 6.06-6.582s-6.331-5.956-6.059-8.418c.123-1.112.273-2.215.45-3.31 10.56 6.49 20.43 14.28 29.41 23.26 16.3 16.3 28.33 35.27 36.08 55.53z" fill="#e9edf1"/><g><path d="m339.368 206.008c-50.182-50.182-131.544-50.182-181.726 0s-45.044 129.683 5.139 179.866 126.406 52.043 176.588 1.861 50.182-131.545-.001-181.727z" fill="#f7f9fa"/><path d="m345.165 381.531c-1.84 2.11-3.78 4.18-5.8 6.2-50.18 50.19-131.54 50.19-181.72 0-50.19-50.18-50.19-131.54 0-181.72 2.02-2.02 4.09-3.96 6.2-5.8-44.31 50.47-42.37 127.36 5.8 175.52 48.16 48.17 125.05 50.11 175.52 5.8z" fill="#e9edf1"/><path d="m318.195 227.18c-38.489-38.489-100.892-38.489-139.381 0s-34.098 96.204 4.391 134.693 96.501 43.177 134.989 4.688 38.49-100.892.001-139.381z" fill="#e9edf1"/><path d="m324.395 359.761c-1.94 2.34-4.01 4.61-6.2 6.8-38.49 38.49-100.89 38.49-139.38 0s-38.49-100.89 0-139.38c2.19-2.19 4.46-4.26 6.8-6.2-32.17 38.72-30.1 96.28 6.2 132.58s93.86 38.37 132.58 6.2z" fill="#dce6eb"/><g><g><path d="m213.654 285.935c-6.128 0-12.255-2.332-16.92-6.996-9.329-9.329-9.329-24.51 0-33.839 9.329-9.327 24.508-9.329 33.839 0 9.329 9.329 9.329 24.51 0 33.839-4.665 4.664-10.792 6.996-16.919 6.996zm0-32.839c-2.286 0-4.572.87-6.313 2.611-3.481 3.48-3.481 9.144 0 12.624 3.479 3.482 9.143 3.484 12.624 0 3.481-3.48 3.481-9.144 0-12.624-1.739-1.74-4.026-2.611-6.311-2.611z" fill="#df646e"/></g><g><path d="m283.348 355.63c-6.127 0-12.254-2.332-16.919-6.996-9.329-9.329-9.329-24.51 0-33.839 9.331-9.328 24.51-9.328 33.839 0 9.329 9.329 9.329 24.51 0 33.839-4.665 4.664-10.792 6.996-16.92 6.996zm0-32.839c-2.285 0-4.571.87-6.312 2.611-3.481 3.48-3.481 9.144 0 12.624 3.481 3.482 9.145 3.482 12.624 0 3.481-3.48 3.481-9.144 0-12.624-1.74-1.741-4.026-2.611-6.312-2.611z" fill="#df646e"/></g><g><path d="m202.429 350.447c-1.919 0-3.839-.732-5.304-2.196-2.929-2.93-2.929-7.678 0-10.607l92.152-92.152c2.93-2.928 7.678-2.928 10.607 0 2.929 2.93 2.929 7.678 0 10.607l-92.152 92.152c-1.464 1.464-3.384 2.196-5.303 2.196z" fill="#df646e"/></g></g></g><g><path d="m406.504 104.046v15.61c0 4.15-3.35 7.5-7.5 7.5-4.14 0-7.5-3.35-7.5-7.5v-15.6c2.46-.28 4.97-.42 7.51-.42 2.53 0 5.03.14 7.49.41z" fill="#bed9fd"/></g><g><path d="m406.504 223.606v15.62c-2.46.27-4.96.41-7.49.41-.551 0-1.102-.007-1.65-.02-.813-.02-1.788-3.918-2.594-3.967-1.153-.07-2.132 3.695-3.266 3.566v-15.61c0-4.14 3.36-7.5 7.5-7.5 4.15.001 7.5 3.361 7.5 7.501z" fill="#bed9fd"/></g><g><path d="m467.014 171.636c0 2.54-.14 5.04-.41 7.5h-15.62c-4.14 0-7.5-3.36-7.5-7.5s3.36-7.5 7.5-7.5h15.62c.27 2.46.41 4.96.41 7.5z" fill="#bed9fd"/></g><g><path d="m354.534 171.636c0 4.14-3.36 7.5-7.5 7.5h-15.61c-.27-2.46 4.697-4.961 4.697-7.501s-4.967-5.039-4.697-7.499h15.61c4.14 0 7.5 3.36 7.5 7.5z" fill="#bed9fd"/></g><g><path d="m397.364 239.606v.01c-.08 0-.17 0-.25-.01.08.01.17.01.25 0z" fill="#9ec8fc"/><g><path d="m397.364 239.606c-1.953-.011-3.917-.19-5.86-.39v-13.02c2.17 4.4 4.12 8.87 5.86 13.41z" fill="#9ec8fc"/></g><g fill="#9ec8fc"><path d="m352.914 176.286c-1.37 1.74-3.5 2.85-5.88 2.85h-15.61c-.531-4.961-.566-10.048.01-15h5.59c5.51 3.68 10.82 7.74 15.89 12.15z"/><path d="m331.424 164.136h.01c-.02.13-.04.26-.05.4.01-.13.03-.27.04-.4z"/></g></g><path d="m426.407 144.237c-2.929-2.928-7.678-2.928-10.606 0l-22.095 22.095c-2.929 2.93-2.929 7.678 0 10.607l11.681 11.681c1.464 1.464 3.384 2.196 5.303 2.196s3.839-.732 5.303-2.196c2.929-2.93 2.929-7.678 0-10.607l-6.377-6.377 16.791-16.791c2.929-2.931 2.929-7.679 0-10.608z" fill="#bed9fd"/></g></svg>