<?xml version="1.0" encoding="iso-8859-1"?>
<!-- Generator: Adobe Illustrator 19.0.0, SVG Export Plug-In . SVG Version: 6.00 Build 0)  -->
<svg version="1.1" id="Layer_1" xmlns="http://www.w3.org/2000/svg" xmlns:xlink="http://www.w3.org/1999/xlink" x="0px" y="0px"
	 viewBox="0 0 512 512" style="enable-background:new 0 0 512 512;" xml:space="preserve">
<g>
	<g>
		<path d="M469,234v-63h-58v-63h-81v-9.213L231.213,0H0v512h330v-48h182V234H469z M240,51.213L278.787,90H240V51.213z M300,482H30
			V30h180v90h90V482z M330,138h51v33h-51V138z M330,201h81h28v33H330V201z M330,307.633c16.899,6.146,29,22.37,29,41.367
			s-12.101,35.221-29,41.367V307.633z M482,293h-56v30h56v111H330v-12.53c33.637-6.953,59-36.804,59-72.47s-25.363-65.517-59-72.47
			V264h152V293z"/>
	</g>
</g>
<g>
	<g>
		<path d="M266.005,317.523c-2.533-5.239-5.963-9.759-10.301-13.554c-4.338-3.795-9.446-6.819-15.316-9.081
			c-5.875-2.258-12.156-3.388-18.84-3.388c-6.87,0-13.241,1.131-19.111,3.388c-5.875,2.262-10.979,5.286-15.316,9.081
			c-4.337,3.796-7.726,8.315-10.166,13.554c-2.44,5.244-3.66,10.843-3.66,16.807s1.22,11.568,3.66,16.808
			c2.44,5.243,5.828,9.759,10.166,13.554c4.337,3.795,9.441,6.823,15.316,9.081c5.87,2.258,12.241,3.389,19.111,3.389
			c6.684,0,12.966-1.131,18.84-3.389c5.87-2.258,10.979-5.286,15.316-9.081c4.337-3.796,7.768-8.311,10.301-13.554
			c2.528-5.24,3.795-10.844,3.795-16.808C269.8,328.366,268.533,322.767,266.005,317.523z M230.764,347.342
			c-2.532,3.617-5.603,5.422-9.217,5.422c-3.617,0-6.688-1.805-9.217-5.422c-2.533-3.613-3.795-7.95-3.795-13.012
			c0-5.057,1.262-9.395,3.795-13.011c2.529-3.614,5.6-5.422,9.217-5.422c3.613,0,6.684,1.808,9.217,5.422
			c2.529,3.617,3.796,7.954,3.796,13.011C234.56,339.392,233.293,343.73,230.764,347.342z"/>
	</g>
</g>
<g>
	<g>
		<polygon points="224.53,179 79.772,356.83 102.271,377.162 247.029,199.331 		"/>
	</g>
</g>
<g>
	<g>
		<path d="M149.711,205.296c-2.533-5.24-5.964-9.759-10.301-13.554c-4.337-3.796-9.445-6.82-15.316-9.082
			c-5.875-2.258-12.156-3.389-18.841-3.389c-6.87,0-13.241,1.131-19.111,3.389c-5.875,2.262-10.979,5.286-15.316,9.082
			c-4.337,3.795-7.726,8.314-10.166,13.554c-2.44,5.243-3.66,10.843-3.66,16.807s1.22,11.568,3.66,16.807
			c2.44,5.244,5.828,9.759,10.166,13.554c4.337,3.796,9.442,6.823,15.316,9.081c5.87,2.261,12.241,3.388,19.111,3.388
			c6.685,0,12.966-1.127,18.841-3.388c5.871-2.258,10.979-5.286,15.316-9.081c4.337-3.796,7.768-8.31,10.301-13.554
			c2.529-5.239,3.796-10.843,3.796-16.807S152.24,210.539,149.711,205.296z M114.471,235.113c-2.533,3.618-5.604,5.422-9.218,5.422
			c-3.617,0-6.688-1.804-9.217-5.422c-2.532-3.613-3.795-7.95-3.795-13.011c0-5.057,1.263-9.395,3.795-13.012
			c2.529-3.613,5.6-5.421,9.217-5.421c3.614,0,6.685,1.809,9.218,5.421c2.528,3.618,3.795,7.955,3.795,13.012
			C118.266,227.163,116.999,231.501,114.471,235.113z"/>
	</g>
</g>
<g>
</g>
<g>
</g>
<g>
</g>
<g>
</g>
<g>
</g>
<g>
</g>
<g>
</g>
<g>
</g>
<g>
</g>
<g>
</g>
<g>
</g>
<g>
</g>
<g>
</g>
<g>
</g>
<g>
</g>
</svg>
