<svg id="Capa_1" enable-background="new 0 0 510.179 510.179" height="512" viewBox="0 0 510.179 510.179" width="512" xmlns="http://www.w3.org/2000/svg"><g><g><path d="m443.241 413.316v-388.167c0-5.983-4.855-10.833-10.844-10.833h-308.646c-5.989 0-10.844 4.85-10.844 10.833v458.333c0 5.983 4.855 10.833 10.844 10.833h240.41l79.009-80.875" fill="#f9f3f1"/><path d="m153.755 494.318h-30c-5.99 0-10.85-4.85-10.85-10.84v-458.33c0-5.98 4.86-10.83 10.85-10.83h30c-5.99 0-10.85 4.85-10.85 10.83v458.33c0 5.99 4.86 10.84 10.85 10.84z" fill="#e1d3ce"/><path d="m172.955 353.088v90.75c0 5.66-4.67 10.25-10.44 10.25h-128.36c-5.77 0-10.44-4.59-10.44-10.25v-90.75z" fill="#ffe177"/><g fill="#fe646f"><path d="m373.048 120.316h-189.948c-4.594 0-8.317-3.724-8.317-8.317v-31.366c0-4.594 3.724-8.317 8.317-8.317h189.948c4.594 0 8.317 3.724 8.317 8.317v31.365c.001 4.594-3.723 8.318-8.317 8.318z"/><path d="m187.053 357.581h-177.03c-2.9 0-4.35-3.5-2.31-5.55l88.52-88.88c1.27-1.27 3.34-1.27 4.61 0l88.51 88.88c2.05 2.05.59 5.55-2.3 5.55z"/><path d="m123.765 400.108v53.98h-50.45v-53.98c0-2.67 2.16-4.83 4.83-4.83h40.78c2.67 0 4.84 2.16 4.84 4.83z"/></g><path d="m486.165 134.873-29.608 92.43-14.962 46.728-6.62 20.666c-2.076 6.481-9.374 9.932-16.309 7.723l-5.223-1.662c-6.935-2.209-10.879-9.248-8.804-15.719l6.62-20.666 14.962-46.728 29.608-92.44c2.066-6.472 9.374-9.922 16.299-7.713l5.233 1.662c6.935 2.209 10.87 9.248 8.804 15.719z" fill="#8ac9fe"/><path d="m456.557 227.303-14.962 46.728-30.336-9.658 14.962-46.728z" fill="#fe646f"/><path d="m441.789 410.088h-69.184c-6.015 0-10.89 5.016-10.89 11.205v73.814c0 1.777 2.101 2.652 3.303 1.375l78.152-83.041c1.181-1.255.317-3.353-1.381-3.353z" fill="#e1d3ce"/></g><g><path d="m113.165 130.688c4.142 0 7.5-3.357 7.5-7.5v-98.01c0-1.853 1.48-3.359 3.3-3.359h262.25c4.142 0 7.5-3.357 7.5-7.5s-3.358-7.5-7.5-7.5h-262.25c-10.09 0-18.3 8.236-18.3 18.359v98.01c0 4.142 3.358 7.5 7.5 7.5z"/><path d="m183.057 128.158h188.912c8.722 0 15.817-7.096 15.817-15.817v-31.52c0-8.722-7.096-15.817-15.817-15.817h-188.912c-8.722 0-15.817 7.096-15.817 15.817v31.52c0 8.721 7.096 15.817 15.817 15.817zm-.817-47.337c0-.451.367-.817.817-.817h188.912c.451 0 .817.366.817.817v31.52c0 .451-.367.817-.817.817h-188.912c-.451 0-.817-.366-.817-.817z"/><path d="m174.74 186.344h195.286c4.142 0 7.5-3.357 7.5-7.5s-3.358-7.5-7.5-7.5h-195.286c-4.142 0-7.5 3.357-7.5 7.5s3.358 7.5 7.5 7.5z"/><path d="m174.74 271.617h108.162c4.142 0 7.5-3.357 7.5-7.5s-3.358-7.5-7.5-7.5h-108.162c-4.142 0-7.5 3.357-7.5 7.5s3.358 7.5 7.5 7.5z"/><path d="m174.74 230.486h195.286c4.142 0 7.5-3.357 7.5-7.5s-3.358-7.5-7.5-7.5h-195.286c-4.142 0-7.5 3.357-7.5 7.5s3.358 7.5 7.5 7.5z"/><path d="m506.355 156.145c-3.386-6.036-8.665-10.741-15.066-13.507l2.098-6.713c3.257-10.422-2.898-21.692-13.721-25.124l-5.211-1.652c-5.405-1.712-11.089-1.246-16.009 1.319-4.213 2.195-7.391 5.729-9.101 10.031v-95.32c0-10.123-8.2-18.359-18.28-18.359h-10.85c-4.142 0-7.5 3.357-7.5 7.5s3.358 7.5 7.5 7.5h10.85c1.809 0 3.28 1.507 3.28 3.359v143.073l-14.498 46.39c-.005.014-.011.027-.016.042-.005.017-.008.034-.013.051l-14.641 46.848c-.004.014-.011.026-.015.04-.005.016-.008.033-.013.049l-6.48 20.735c-2.702 8.644 1.086 17.858 8.629 22.713l-4.816 15.412c-1.235 3.954.968 8.16 4.921 9.396.745.233 1.499.344 2.24.344 3.193 0 6.153-2.056 7.156-5.265l4.683-14.987c.868.108 1.737.177 2.603.177 3.301-.001 6.554-.784 9.526-2.334.255-.133.491-.288.738-.431v99.668h-61.443c-9.72 0-17.627 7.908-17.627 17.628v63.633h-231.31c-1.818 0-3.298-1.51-3.298-3.366v-23.214c0-.065-.008-.128-.01-.192h39.004c9.76 0 17.7-7.852 17.7-17.502v-81.063h5.793c4.381 0 8.286-2.619 9.948-6.674 1.662-4.054.718-8.66-2.401-11.733l-70.035-69.027v-119.06c0-4.143-3.358-7.5-7.5-7.5s-7.5 3.357-7.5 7.5v104.276l-1.167-1.15c-4.161-4.1-10.931-4.099-15.092 0v.001l-86.199 84.959c-3.121 3.074-4.064 7.681-2.402 11.734 1.662 4.055 5.566 6.674 9.948 6.674h5.793v81.063c0 9.65 7.94 17.502 17.7 17.502h71.43c-.002.065-.01.127-.01.192v23.214c0 10.127 8.208 18.366 18.298 18.366h239.199c3.027 0 5.628-1.796 6.813-4.378.443-.32.867-.674 1.257-1.077l72.677-75.058c.441-.455.808-.957 1.14-1.477 2.536-1.203 4.295-3.779 4.295-6.773v-137.763l.34-1.089c.001-.002.002-.004.002-.006.001-.004.002-.008.003-.011l14.663-46.917c.001-.003.003-.006.004-.009.002-.006.003-.011.004-.017l22.401-71.678c2.741 1.497 4.996 3.685 6.502 6.37 1.968 3.518 2.425 7.458 1.288 11.098l-11.767 37.65c-1.235 3.954.968 8.16 4.921 9.396.745.233 1.498.344 2.24.344 3.193 0 6.153-2.056 7.156-5.265l11.767-37.65c2.379-7.615 1.487-15.747-2.519-22.906zm-392.253 290.443h-34.29v-47.404h34.29zm-17.144-173.307 75.835 74.743h-151.671zm-65.408 170.805v-81.063h130.815v81.063c0 1.38-1.211 2.502-2.7 2.502h-30.563v-50.271c0-6.69-5.484-12.133-12.224-12.133h-39.841c-6.74 0-12.224 5.442-12.224 12.133v50.271h-30.563c-1.488 0-2.7-1.122-2.7-2.502zm431.609-317.747c.436-1.396 1.447-2.169 2.218-2.57.792-.413 1.695-.622 2.623-.622.639 0 1.288.1 1.92.3l5.211 1.652c2.971.942 4.738 3.791 3.938 6.351l-26.771 85.66-15.929-5.051zm-25.53 137.708-15.929-5.05 10.195-32.621 15.929 5.051zm-10.951 30.513c-1.336.697-2.993.814-4.543.322l-5.211-1.652c-2.972-.941-4.738-3.79-3.938-6.35l4.24-13.566 15.929 5.05-4.258 13.625c-.436 1.397-1.447 2.169-2.219 2.571zm-56.4 182.773v-52.605c0-1.449 1.179-2.628 2.627-2.628h50.854z"/><path d="m242.864 382.675c.85.311 1.718.457 2.573.457 3.06 0 5.934-1.888 7.045-4.929l6.179-16.916c.878 3.613 1.669 6.638 2.36 9.029 1.58 5.461 3.369 11.651 9.801 11.651 3.576 0 5.502-.001 28.041-26.455 7.581 8.334 20.597 20.047 32.817 18.658 7.388-.851 13.18-5.697 18.289-9.974 8.925-7.47 9.589-6.784 12.38-3.892 14.059 14.564 31.234 9.602 38.352 4.939 3.465-2.269 4.435-6.917 2.166-10.383-2.268-3.465-6.917-4.435-10.383-2.166-.417.272-10.295 6.565-19.342-2.809-7.237-7.497-14.489-7.29-19.296-5.795-5.132 1.596-9.388 5.157-13.503 8.602-3.665 3.066-7.455 6.238-10.378 6.574-5.467.651-17.396-9.8-25.084-19.931-1.376-1.819-3.505-2.913-5.786-2.973-2.27-.06-4.463.922-5.933 2.666-6.426 7.632-13.791 16.104-19.124 21.953-1.913-7.556-4.313-18.336-6.25-27.908-.667-3.291-3.439-5.738-6.787-5.99-3.349-.259-6.456 1.752-7.609 4.905l-15 41.065c-1.421 3.895.581 8.2 4.472 9.622z"/></g></g></svg>