<svg id="Layer_3" enable-background="new 0 0 64 64" height="512" viewBox="0 0 64 64" width="512" xmlns="http://www.w3.org/2000/svg"><g><path d="m48 58v4h-46v-48l12-12h34v30" fill="#c7e2fc"/><path d="m2 14v37.971c3.263 1.307 6.8 2.029 10.5 2.029 16.292 0 29.5-13.879 29.5-31 0-8.103-2.962-15.477-7.805-21h-20.195z" fill="#ebf7fe"/><path d="m14 2v12h-12" fill="#8892a0"/><circle cx="33" cy="17" fill="#f5b953" r="11"/><path d="m41 11c0-.581-.062-1.147-.154-1.703-1.995-2.033-4.772-3.297-7.846-3.297-6.075 0-11 4.925-11 11 0 .963.136 1.891.369 2.781 1.948 1.387 4.363 2.219 6.99 2.219 6.429 0 11.641-4.925 11.641-11z" fill="#f9d18b"/><path d="m60 32h-34c-1.105 0-2 .895-2 2v22c0 1.105.895 2 2 2h34c1.105 0 2-.895 2-2v-22c0-1.105-.895-2-2-2z" fill="#2b74ca"/><path d="m24 34v17.977c3.135 1.29 6.707 2.023 10.5 2.023 12.426 0 22.5-7.835 22.5-17.5 0-1.556-.264-3.064-.755-4.5h-30.245c-1.105 0-2 .895-2 2z" fill="#3d98f7"/><circle cx="33" cy="50" fill="#ebf7fe" r="5"/><g><path d="m33 56c-3.309 0-6-2.691-6-6s2.691-6 6-6c.834 0 1.642.168 2.4.5l-.8 1.833c-.505-.221-1.043-.333-1.6-.333-2.206 0-4 1.794-4 4s1.794 4 4 4 4-1.794 4-4c0-.271-.026-.54-.08-.802l1.961-.396c.079.391.119.795.119 1.198 0 3.309-2.691 6-6 6z" fill="#c7e2fc"/></g><g><path d="m33 53c-.005 0-.011 0-.017 0-.328-.005-.633-.172-.815-.445l-2-3 1.664-1.109 1.196 1.794 4.158-5.821 1.627 1.162-5 7c-.187.263-.491.419-.813.419z" fill="#2b74ca"/></g><circle cx="55" cy="51" fill="#f2c351" r="3"/><circle cx="52" cy="51" fill="#c66b60" r="3"/><ellipse cx="53.5" cy="51" fill="#e39854" rx="1.5" ry="2.584"/><g fill="#8892a0"><path d="m33 16c-1.103 0-2-.897-2-2s.897-2 2-2 2 .897 2 2h2c0-1.858-1.279-3.411-3-3.858v-2.142h-2v2.142c-1.721.447-3 2-3 3.858 0 2.206 1.794 4 4 4 1.103 0 2 .897 2 2s-.897 2-2 2-2-.897-2-2h-2c0 1.858 1.279 3.411 3 3.858v2.142h2v-2.142c1.721-.447 3-2 3-3.858 0-2.206-1.794-4-4-4z"/><path d="m19 27h2v2h-2z"/><path d="m5 27h12v2h-12z"/><path d="m5 23h2v2h-2z"/><path d="m9 23h12v2h-12z"/><path d="m19 57h2v2h-2z"/><path d="m5 57h12v2h-12z"/><path d="m5 53h2v2h-2z"/><path d="m9 53h12v2h-12z"/></g><path d="m24 36h38v6h-38z" fill="#4d5d7a"/><path d="m25 37h36v2h-36z" fill="#8892a0"/></g></svg>