<svg id="Capa_1" enable-background="new 0 0 496.9 496.9" height="512" viewBox="0 0 496.9 496.9" width="512" xmlns="http://www.w3.org/2000/svg"><path d="m60.625 4.543-19.535-3.194c-2.6-.794-5.343-1.262-8.19-1.339-.3-.01-.59-.01-.89-.01-17.52 0-31.73 14.21-31.73 31.73v129.07c0 3.16 2.56 5.72 5.72 5.72l57.74.05h43.182v-148.138z" fill="#f3eae6"/><g><g id="XMLID_402_"><g><path d="m212.18 97.108v-27.266h-116.71v179.478h95.2s39.507 4.998 39.507-.505 0-143.571 0-143.571z" fill="#efe2dd"/><path d="m332.97 85h-95.2-78.83c.3 0 .59 0 .89.01 17.28.47 30.84 15.09 30.84 32.38v131.93 73.61c0 17.52 14.21 31.73 31.73 31.73.3 0 .59 0 .89-.01 11.693-.318 21.676-7.12 26.914-16.84h114.496v-159.09-61.99c0-17.53-14.21-31.73-31.73-31.73z" fill="#faf7f7"/><path d="m255.13 322.93v-73.61-131.93c0-17.29-13.56-31.91-30.84-32.38-.3-.01-.59-.01-.89-.01h-64.46c.3 0 .59 0 .89.01 17.28.47 30.84 15.09 30.84 32.38v131.93 73.61c0 17.52 14.21 31.73 31.73 31.73.3 0 .59 0 .89-.01 11.693-.318 21.676-7.12 26.914-16.84h8.633c-2.363-4.439-3.707-9.502-3.707-14.88z" fill="#f9f3f1"/><path d="m288.903 178.882c-.712-.069-1.428-.122-2.153-.142-.3-.01-.59-.01-.89-.01-17.52 0-31.73 14.2-31.73 31.73v111.81c0 17.29-13.56 31.91-30.84 32.38-.3.01-.59.01-.89.01h95.19 40.911v-171.187z" fill="#f3eae6"/><path d="m285.86 178.72h78.84 100.19c17.53 0 31.73 14.21 31.73 31.74v274.02c0 6.86-5.56 12.42-12.41 12.42h-154.2c-6.86 0-12.42-5.56-12.42-12.42v-129.82-143.54c0-17.29-13.55-31.91-30.84-32.38-.3-.01-.59-.01-.89-.01z" fill="#faf7f7"/><path d="m396.43 484.48v-129.82-143.54c0-17.29-13.55-31.91-30.84-32.38-.3-.01-.59-.01-.89-.01v-.01h-78.84v.01c.3 0 .59 0 .89.01 17.29.47 30.84 15.09 30.84 32.38v143.54 129.82c0 6.86 5.56 12.42 12.42 12.42h78.84c-6.86 0-12.42-5.56-12.42-12.42z" fill="#f9f3f1"/><path d="m237.77 31.73v53.27h-78.83c-17.53 0-31.74 14.21-31.74 31.73v100.2c0 17.29-13.55 31.91-30.84 32.38-.3.01-.59.01-.89.01-17.52 0-31.73-14.21-31.73-31.73v-51.02-134.18c0-17.29-13.55-31.91-30.84-32.38-.3-.01-.59-.01-.89-.01h174.03c17.53 0 31.73 14.2 31.73 31.73z" fill="#faf7f7"/><path d="m124.432 217.59v-51.02-134.18c0-17.29-13.55-31.91-30.84-32.38-.299-.01-.589-.01-.89-.01h-60.692c.3 0 .59 0 .89.01 17.29.47 30.84 15.09 30.84 32.38v134.18 51.02c0 17.52 14.21 31.73 31.73 31.73.3 0 .59 0 .89-.01 13.938-.379 25.441-9.956 29.378-22.712-.845-2.857-1.306-5.878-1.306-9.008z" fill="#f9f3f1"/></g></g><path d="m451.932 444.291-77.049 19.705c-3.053.781-6.161-1.061-6.941-4.114l-5.839-22.831c-.781-3.053 1.061-6.161 4.114-6.941l77.049-19.705c3.053-.781 6.161 1.061 6.941 4.114l5.839 22.831c.78 3.052-1.062 6.16-4.114 6.941z" fill="#fe646f"/><path d="m366.217 430.11c-3.053.781-4.895 3.888-4.114 6.941l5.839 22.831c.781 3.053 3.889 4.895 6.942 4.114l21.547-5.51v-36.103z" fill="#fd4755"/><g><path d="m458.916 232.862h-107.991c-4.143 0-7.5-3.358-7.5-7.5s3.357-7.5 7.5-7.5h107.991c4.143 0 7.5 3.358 7.5 7.5s-3.357 7.5-7.5 7.5z" fill="#f3eae6"/></g><path d="m350.925 217.862c-4.143 0-7.5 3.358-7.5 7.5s3.357 7.5 7.5 7.5h45.505v-15z" fill="#efe2dd"/><g><path d="m332.27 139.36h-107.991c-4.142 0-7.5-3.358-7.5-7.5s3.358-7.5 7.5-7.5h107.991c4.143 0 7.5 3.358 7.5 7.5s-3.358 7.5-7.5 7.5z" fill="#f3eae6"/></g><path d="m224.279 124.36c-4.142 0-7.5 3.358-7.5 7.5s3.358 7.5 7.5 7.5h30.851v-15z" fill="#efe2dd"/><g><path d="m204.68 47.874h-107.991c-4.142 0-7.5-3.358-7.5-7.5s3.358-7.5 7.5-7.5h107.991c4.142 0 7.5 3.358 7.5 7.5s-3.358 7.5-7.5 7.5z" fill="#f3eae6"/></g><path d="m96.689 32.874c-4.142 0-7.5 3.358-7.5 7.5s3.358 7.5 7.5 7.5h27.744v-15z" fill="#efe2dd"/><g><path d="m458.916 269.588h-107.991c-4.143 0-7.5-3.358-7.5-7.5s3.357-7.5 7.5-7.5h107.991c4.143 0 7.5 3.358 7.5 7.5s-3.357 7.5-7.5 7.5z" fill="#f3eae6"/></g><path d="m350.925 254.588c-4.143 0-7.5 3.358-7.5 7.5s3.357 7.5 7.5 7.5h45.505v-15z" fill="#efe2dd"/><g><path d="m458.916 306.314h-107.991c-4.143 0-7.5-3.358-7.5-7.5s3.357-7.5 7.5-7.5h107.991c4.143 0 7.5 3.358 7.5 7.5s-3.357 7.5-7.5 7.5z" fill="#f3eae6"/></g><path d="m350.925 291.314c-4.143 0-7.5 3.358-7.5 7.5s3.357 7.5 7.5 7.5h45.505v-15z" fill="#efe2dd"/><g><path d="m458.916 343.04h-107.991c-4.143 0-7.5-3.358-7.5-7.5s3.357-7.5 7.5-7.5h107.991c4.143 0 7.5 3.358 7.5 7.5s-3.357 7.5-7.5 7.5z" fill="#f3eae6"/></g><path d="m350.925 328.04c-4.143 0-7.5 3.358-7.5 7.5s3.357 7.5 7.5 7.5h45.505v-15z" fill="#efe2dd"/><g><path d="m458.916 379.765h-107.991c-4.143 0-7.5-3.358-7.5-7.5s3.357-7.5 7.5-7.5h107.991c4.143 0 7.5 3.358 7.5 7.5s-3.357 7.5-7.5 7.5z" fill="#f3eae6"/></g><path d="m350.925 364.765c-4.143 0-7.5 3.358-7.5 7.5s3.357 7.5 7.5 7.5h45.505v-15z" fill="#efe2dd"/></g></svg>