<svg id="Capa_1" enable-background="new 0 0 512 512" height="512" viewBox="0 0 512 512" width="512" xmlns="http://www.w3.org/2000/svg"><g><path d="m74.98 161.146 24.02 64.52 60.693 20.194c24.611-24.516 58.532-39.694 95.932-39.694.125 0 .25.004.375.005l40-55.505-40-64.5c-68.38 0-132.667 26.628-181.02 74.98z" fill="#afea93"/><path d="m437.02 161.146c-48.352-48.352-112.64-74.98-181.02-74.98v120.004c37.442.102 71.373 15.41 95.932 40.064l65.068-13.568z" fill="#ffb454"/><path d="m0 342.166c0 8.284 6.716 15 15 15h89.625c8.284 0 15-6.716 15-15 0-37.59 15.332-71.666 40.068-96.306l-84.713-84.714c-48.351 48.353-74.98 112.64-74.98 181.02z" fill="#8bb9ff"/><path d="m437.02 161.146-85.088 85.088c24.516 24.611 39.693 58.532 39.693 95.931 0 8.284 6.716 15 15 15h90.375c8.284 0 15-6.716 15-15 0-68.379-26.629-132.666-74.98-181.019z" fill="#f90024"/><path d="m283.419 425.834c-1.792 0-3.59-.085-5.394-.257-16.777-1.599-31.821-10.518-41.273-24.471l-120.45-177.806c-4.034-5.955-3.273-13.935 1.812-19.02 5.086-5.086 13.066-5.846 19.019-1.812l177.807 120.449c13.954 9.453 22.873 24.496 24.471 41.274 1.598 16.776-4.32 33.233-16.237 45.149-10.634 10.637-24.887 16.494-39.755 16.494z" fill="#f1f1f4"/><path d="m314.94 322.917-58.94-39.927v135.741c6.701 3.725 14.167 6.098 22.025 6.846 1.804.172 3.603.257 5.394.257 14.868 0 29.121-5.857 39.756-16.493 11.917-11.916 17.835-28.373 16.237-45.149-1.599-16.778-10.518-31.821-24.472-41.275z" fill="#dddadf"/></g></svg>